<?xml version="1.0" standalone="no"?>
<!DOCTYPE svg PUBLIC "-//W3C//DTD SVG 1.1//EN" "http://www.w3.org/Graphics/SVG/1.1/DTD/svg11.dtd" >
<svg>
<metadata>
Created by FontForge 20090914 at Wed Nov 15 12:32:53 2017
 By www-data
Copyright 2015 Samsung Electronics Co., Ltd. All Rights Reserved.
</metadata>
<defs>
<font id="SamsungOne-400" horiz-adv-x="0" >
  <font-face 
    font-family="SamsungOne 400"
    font-weight="400"
    font-stretch="normal"
    units-per-em="1024"
    panose-1="2 11 5 3 3 3 3 2 2 4"
    ascent="794"
    descent="-230"
    x-height="534"
    cap-height="724"
    bbox="-678 -304 2452 1047"
    underline-thickness="31"
    underline-position="-103"
    unicode-range="U+0002-U+1F16B"
  />
<missing-glyph horiz-adv-x="690" 
d="M592 0h-69h-385h-40v724h69h425v-724zM523 658h-323l323 -534v534zM167 66h323l-323 534v-534z" />
    <glyph glyph-name="fi" unicode="fi" horiz-adv-x="625" 
d="M114 473l-93.002 -0.000976562v61h93v68c0 54.667 15.833 97.167 47.5 127.5s75.834 45.5 132.501 45.5c20.667 0 37.667 -1.66699 51 -5v-64c-20 2.66699 -37 4 -51 4c-35.333 0 -62.166 -9.16699 -80.499 -27.5s-27.5 -45.166 -27.5 -80.499v-68h140v-61h-140v-473h-72
v473zM456.998 533.999h72v-534h-72v534zM454.498 643.999c-9 9.33301 -13.5 22.333 -13.5 39c0 17.333 4.5 30.666 13.5 39.999s21.833 14 38.5 14s29.5 -4.66699 38.5 -14s13.5 -22.333 13.5 -39c0 -17.333 -4.5 -30.666 -13.5 -39.999s-21.833 -14 -38.5 -14
s-29.5 4.66699 -38.5 14z" />
    <glyph glyph-name="fl" unicode="fl" horiz-adv-x="665" 
d="M114 473l-93.002 -0.000976562v61h93v68c0 54.667 15.833 97.167 47.5 127.5s75.834 45.5 132.501 45.5c20.667 0 37.667 -1.66699 51 -5v-64c-20 2.66699 -37 4 -51 4c-35.333 0 -62.166 -9.16699 -80.499 -27.5s-27.5 -45.166 -27.5 -80.499v-68h140v-61h-140v-473h-72
v473zM452.998 108.999l0.000976562 661h72v-658c0 -18.667 4.33301 -32.167 13 -40.5s22.667 -12.5 42 -12.5c11.333 0 24.666 1.33301 39.999 4l7 -61c-20 -5.33301 -40.667 -8 -62 -8c-74.667 0 -112 38.333 -112 115z" />
    <glyph glyph-name=".notdef" horiz-adv-x="690" 
d="M592 0h-69h-385h-40v724h69h425v-724zM523 658h-323l323 -534v534zM167 66h323l-323 534v-534z" />
    <glyph glyph-name="uni0000" 
 />
    <glyph glyph-name="uni0002" 
 />
    <glyph glyph-name="uni0008" horiz-adv-x="260" 
 />
    <glyph glyph-name="uni0009" unicode="&#x9;" horiz-adv-x="512" 
 />
    <glyph glyph-name="nonmarkingreturn" unicode="&#xd;" 
 />
    <glyph glyph-name="uni001D" horiz-adv-x="231" 
 />
    <glyph glyph-name="space" unicode=" " horiz-adv-x="231" 
 />
    <glyph glyph-name="exclam" unicode="!" horiz-adv-x="346" 
d="M129 724h86l-14 -529h-58zM132.5 2c-9.66699 10 -14.5 23.667 -14.5 41s4.83301 31 14.5 41s23.167 15 40.5 15s30.833 -4.83301 40.5 -14.5s14.5 -23.167 14.5 -40.5c0 -18 -4.83301 -32 -14.5 -42s-23.167 -15 -40.5 -15s-30.833 5 -40.5 15z" />
    <glyph glyph-name="quotedbl" unicode="&#x22;" horiz-adv-x="362" 
d="M215 724h79l-17 -231h-45zM68 724h79l-17 -231h-45z" />
    <glyph glyph-name="numbersign" unicode="#" horiz-adv-x="651" 
d="M473 460l-30 -196h124v-54h-133l-33 -210h-62l33 210h-140l-33 -210h-62l33 210h-129v54h138l30 196h-127v54h136l33 210h62l-33 -210h140l33 210h62l-33 -210h128v-54h-137zM411 460h-140l-30 -196h140z" />
    <glyph glyph-name="dollar" unicode="$" horiz-adv-x="544" 
d="M437 70c-32 -34 -77.001 -54.6641 -135.001 -61.9971v-93h-62v91c-33.333 2 -66.666 7.66699 -99.999 17s-63 21.333 -89 36l25 61c52.667 -30.667 107.334 -47.334 164.001 -50.001v267l-16 4c-56 15.333 -97.667 38 -125 68s-41 69 -41 117
c0 55.333 15.833 99.666 47.5 132.999s76.5 52.666 134.5 57.999v92h62v-92c55.333 -4 109.666 -17 162.999 -39l-24 -61c-50.667 20 -97 32 -139 36v-258l17 -5c56 -16 97.667 -38.833 125 -68.5s41 -68.5 41 -116.5c0 -56 -16 -101 -48 -135zM154.999 457.503
c16.667 -19 44 -33.833 82 -44.5l3 -1v241c-37.333 -4 -65 -15.5 -83 -34.5s-27 -46.167 -27 -81.5c0 -34 8.33301 -60.5 25 -79.5zM385.999 110.503c18 20.333 27 48.833 27 85.5c0 33.333 -8.33301 59.5 -25 78.5s-44 33.5 -82 43.5l-4 1v-246
c38 4.66699 66 17.167 84 37.5z" />
    <glyph glyph-name="percent" unicode="%" horiz-adv-x="920" 
d="M98 354.5c-24.667 37 -37 91.5 -37 163.5s12.333 126.5 37 163.5s61 55.5 109 55.5s84.333 -18.5 109 -55.5s37 -91.5 37 -163.5s-12.333 -126.5 -37 -163.5s-61 -55.5 -109 -55.5s-84.333 18.5 -109 55.5zM616 724h73l-385 -724h-73zM266 395.5
c12.667 26.333 19 67.166 19 122.499s-6.33301 96.166 -19 122.499s-32.334 39.5 -59.001 39.5s-46.334 -13.167 -59.001 -39.5s-19 -67.166 -19 -122.499s6.33301 -96.166 19 -122.499s32.334 -39.5 59.001 -39.5s46.334 13.167 59.001 39.5zM604 42.5
c-24.667 37 -37 91.5 -37 163.5s12.333 126.5 37 163.5s61 55.5 109 55.5s84.333 -18.5 109 -55.5s37 -91.5 37 -163.5s-12.333 -126.5 -37 -163.5s-61 -55.5 -109 -55.5s-84.333 18.5 -109 55.5zM772 83.5c12.667 26.333 19 67.166 19 122.499s-6.33301 96.166 -19 122.499
s-32.334 39.5 -59.001 39.5s-46.334 -13.167 -59.001 -39.5s-19 -67.166 -19 -122.499s6.33301 -96.166 19 -122.499s32.334 -39.5 59.001 -39.5s46.334 13.167 59.001 39.5z" />
    <glyph glyph-name="ampersand" unicode="&#x26;" horiz-adv-x="642" 
d="M554 -11l-90.999 107c-54 -72.667 -124 -109 -210 -109c-59.333 0 -105.666 15.333 -138.999 46s-50 73.667 -50 129c0 32.667 6.66699 61.5 20 86.5s35.333 49.833 66 74.5l73 58l-31 36c-28.667 34 -48.834 63.167 -60.501 87.5s-17.5 49.833 -17.5 76.5
c0 49.333 16.167 87.666 48.5 114.999s77.166 41 134.499 41s102 -13.333 134 -40s48 -64 48 -112c0 -32.667 -9.16699 -62.667 -27.5 -90s-50.5 -59.666 -96.5 -96.999l-32 -26l133 -158l73 152h74l-86 -180l-14 -28l104 -124zM279.001 425l39.999 31.999
c34 26.667 56.833 48.334 68.5 65.001s17.5 35.667 17.5 57c0 30.667 -9.16699 53.834 -27.5 69.501s-45.5 23.5 -81.5 23.5c-35.333 0 -62.166 -7.66699 -80.499 -23s-27.5 -37.666 -27.5 -66.999c0 -18.667 4.5 -36.834 13.5 -54.501s25.5 -40.834 49.5 -69.501z
M347 76.499c26.667 15.667 50.6689 39.499 72.002 71.499l-152 180l-53 -43c-26.667 -21.333 -45.334 -41.166 -56.001 -59.499s-16 -39.5 -16 -63.5c0 -36 9.66699 -63.167 29 -81.5s47.666 -27.5 84.999 -27.5c34 0 64.333 7.83301 91 23.5z" />
    <glyph glyph-name="quotesingle" unicode="'" horiz-adv-x="215" 
d="M68 724h79l-17 -231h-45z" />
    <glyph glyph-name="parenleft" unicode="(" horiz-adv-x="328" 
d="M102.5 105.5c-25.667 77.667 -38.5 156.168 -38.5 235.501s12.833 158.166 38.5 236.499s61.5 147.5 107.5 207.5l56 -42c-41.333 -56 -72.833 -117.833 -94.5 -185.5s-32.5 -139.5 -32.5 -215.5s10.833 -147.833 32.5 -215.5s53.167 -129.5 94.5 -185.5l-56 -42
c-46 60 -81.833 128.833 -107.5 206.5z" />
    <glyph glyph-name="parenright" unicode=")" horiz-adv-x="328" 
d="M62 -59c41.333 56 72.833 117.832 94.5 185.499s32.5 139.5 32.5 215.5s-10.833 147.833 -32.5 215.5s-53.167 129.5 -94.5 185.5l56 42c46 -60 81.833 -129.167 107.5 -207.5s38.5 -157.166 38.5 -236.499s-12.833 -157.833 -38.5 -235.5s-61.5 -146.5 -107.5 -206.5z
" />
    <glyph glyph-name="asterisk" unicode="*" horiz-adv-x="536" 
d="M309 506l102 -129l-52 -42l-91 139l-91 -139l-52 42l102 129l-159 44l22 66l153 -58l-8 166h66l-8 -166l153 58l22 -66z" />
    <glyph glyph-name="plus" unicode="+" horiz-adv-x="571" 
d="M513 334h-192v-209h-71v209h-192v69h192v209h71v-209h192v-69z" />
    <glyph glyph-name="comma" unicode="," horiz-adv-x="233" 
d="M12 -140c26 28 44.667 55.498 56 82.498s17 57.5 17 91.5c0 18 -1.33301 37.667 -4 59h80c2.66699 -21.333 4 -40.666 4 -57.999c0 -42 -9.5 -80.167 -28.5 -114.5s-48.5 -67.166 -88.5 -98.499z" />
    <glyph glyph-name="hyphen" unicode="-" horiz-adv-x="405" 
d="M57 328h291v-65h-291v65z" />
    <glyph glyph-name="period" unicode="." horiz-adv-x="246" 
d="M82.5 2c-9.66699 10 -14.5 23.667 -14.5 41s4.83301 31 14.5 41s23.167 15 40.5 15s30.833 -4.83301 40.5 -14.5s14.5 -23.167 14.5 -40.5c0 -18 -4.83301 -32 -14.5 -42s-23.167 -15 -40.5 -15s-30.833 5 -40.5 15z" />
    <glyph glyph-name="slash" unicode="/" horiz-adv-x="437" 
d="M347 737h64l-320 -823h-64z" />
    <glyph glyph-name="zero" unicode="0" horiz-adv-x="620" 
d="M130 78.5c-39.333 61 -59 155.5 -59 283.5s19.667 222.5 59 283.5s99.333 91.5 180 91.5s140.667 -30.5 180 -91.5s59 -155.5 59 -283.5s-19.667 -222.5 -59 -283.5s-99.333 -91.5 -180 -91.5s-140.667 30.5 -180 91.5zM433.5 128c26.333 50 39.5 128 39.5 234
s-13.167 184 -39.5 234s-67.5 75 -123.5 75s-97.167 -25 -123.5 -75s-39.5 -128 -39.5 -234s13.167 -184 39.5 -234s67.5 -75 123.5 -75s97.167 25 123.5 75z" />
    <glyph glyph-name="one" unicode="1" horiz-adv-x="437" 
d="M303 724v-724h-73v642l-170 -59l-22 63l203 78h62z" />
    <glyph glyph-name="two" unicode="2" horiz-adv-x="529" 
d="M464 64l0.00292969 -63.9971h-420v65l254 313c31.333 38 53.166 69.667 65.499 95s18.5 50.333 18.5 75c0 37.333 -12 66.666 -36 87.999s-57 32 -99 32c-28.667 0 -57.834 -5 -87.501 -15s-56.5 -23.667 -80.5 -41l-36 59c24.667 20 56.167 36 94.5 48
s76.166 18 113.499 18c61.333 0 110.833 -16.5 148.5 -49.5s56.5 -76.833 56.5 -131.5c0 -32.667 -7.83301 -65.834 -23.5 -99.501s-41.5 -72.834 -77.5 -117.501l-225 -275h334z" />
    <glyph glyph-name="three" unicode="3" horiz-adv-x="559" 
d="M380.5 407.5c32.333 -17.667 57.335 -42.832 75.002 -75.499s26.5 -70.334 26.5 -113.001c0 -46 -9.83301 -86.5 -29.5 -121.5s-47.334 -62.167 -83.001 -81.5s-76.834 -29 -123.501 -29c-34 0 -69.5 5 -106.5 15s-69.167 23.333 -96.5 40l31 65
c26.667 -16 55 -28.5 85 -37.5s59 -13.5 87 -13.5c50 0 89 14.333 117 43s42 68.667 42 120c0 48 -13.5 85.5 -40.5 112.5s-64.833 40.5 -113.5 40.5c-26 0 -48.667 -3 -68 -9l-28 35l223 262h-324v64h407v-64l-193 -226c42.667 0 80.167 -8.83301 112.5 -26.5z" />
    <glyph glyph-name="four" unicode="4" horiz-adv-x="577" 
d="M522 226v-65h-95v-161h-71v161h-321v65l288 498h104v-498h95zM356 226v430l-242 -430h242z" />
    <glyph glyph-name="five" unicode="5" horiz-adv-x="550" 
d="M378 424.5c32 -19 56.8311 -45.667 74.498 -80s26.5 -74.166 26.5 -119.499c0 -47.333 -9.83301 -89 -29.5 -125s-47.5 -63.833 -83.5 -83.5s-77.667 -29.5 -125 -29.5c-33.333 0 -67.166 4.66699 -101.499 14s-63.833 21.666 -88.5 36.999l31 65
c24 -14.667 50 -26.167 78 -34.5s55 -12.5 81 -12.5c50.667 0 90.334 15 119.001 45s43 71.333 43 124c0 50.667 -13.667 90.167 -41 118.5s-65 42.5 -113 42.5c-23.333 0 -46 -3.33301 -68 -10s-40.667 -16 -56 -28l-45 25l22 351h347v-64h-284l-16 -233
c16.667 8 35.5 14.333 56.5 19s41.5 7 61.5 7c42 0 79 -9.5 111 -28.5z" />
    <glyph glyph-name="six" unicode="6" horiz-adv-x="563" 
d="M413 420c32.667 -18.667 57.999 -45.168 75.999 -79.501s27 -74.166 27 -119.499c0 -46 -9.5 -86.833 -28.5 -122.5s-45.833 -63.167 -80.5 -82.5s-74.667 -29 -120 -29c-46 0 -86.5 10.167 -121.5 30.5s-62.167 48.833 -81.5 85.5s-29 79 -29 127
c0 45.333 9.83301 91 29.5 137s52.167 99.333 97.5 160l158 210l60 -43l-159 -204l-49 -67c14 7.33301 30.5 13.333 49.5 18s38.5 7 58.5 7c42.667 0 80.334 -9.33301 113.001 -28zM399.499 96.499c27 29.667 40.499 70.167 40.499 121.5
c0 52.667 -14.167 94.167 -42.5 124.5s-67.166 45.5 -116.499 45.5c-46 0 -87.667 -12 -125 -36c-16.667 -33.333 -25 -73 -25 -119c0 -56.667 13.833 -101 41.5 -133s66.167 -48 115.5 -48c47.333 0 84.5 14.833 111.5 44.5z" />
    <glyph glyph-name="seven" unicode="7" horiz-adv-x="491" 
d="M452 724v-64l-289 -670l-67 28l282 642h-355v64h429z" />
    <glyph glyph-name="eight" unicode="8" horiz-adv-x="583" 
d="M167.5 10.5c-35.667 15.667 -63.3301 38.001 -82.9971 67.001s-29.5 62.5 -29.5 100.5c0 42.667 14.333 82.167 43 118.5s66.667 63.166 114 80.499c-37.333 13.333 -67.5 36.666 -90.5 69.999s-34.5 70.333 -34.5 111c0 53.333 18.667 96.5 56 129.5
s86.666 49.5 147.999 49.5c62 0 111.667 -16.5 149 -49.5s56 -76.167 56 -129.5c0 -40.667 -11.5 -77.167 -34.5 -109.5s-53.167 -55.166 -90.5 -68.499c47.333 -14 85.333 -38.667 114 -74s43 -75.333 43 -120c0 -39.333 -9.83301 -74 -29.5 -104
s-47.334 -53.333 -83.001 -70s-77.167 -25 -124.5 -25c-46.667 0 -87.834 7.83301 -123.501 23.5zM388.004 464.001c22 26 33 54.998 33 86.998c0 37.333 -11.5 67 -34.5 89s-54.833 33 -95.5 33c-40 0 -71.5 -10.667 -94.5 -32s-34.5 -50.666 -34.5 -87.999
c0 -33.333 12 -63.166 36 -89.499s57 -45.833 99 -58.5c38.667 13.333 69 33 91 59zM409.004 87.499c28.667 23.667 43 56.167 43 97.5c0 34 -14.667 65.833 -44 95.5s-69.666 53.5 -120.999 71.5c-48.667 -17.333 -86.834 -40.5 -114.501 -69.5s-41.5 -60.833 -41.5 -95.5
c0 -42 14.167 -75 42.5 -99s67.5 -36 117.5 -36s89.333 11.833 118 35.5z" />
    <glyph glyph-name="nine" unicode="9" horiz-adv-x="563" 
d="M397.5 706.5c35 -20.333 62.168 -48.832 81.501 -85.499s29 -79 29 -127c0 -45.333 -9.83301 -91 -29.5 -137s-52.167 -99.333 -97.5 -160l-158 -210l-60 43l159 204l49 67c-14 -7.33301 -30.5 -13.333 -49.5 -18s-38.5 -7 -58.5 -7
c-42.667 0 -80.334 9.33301 -113.001 28s-58 45.167 -76 79.5s-27 74.166 -27 119.499c0 46 9.5 86.833 28.5 122.5s45.833 63.167 80.5 82.5s74.667 29 120 29c46 0 86.5 -10.167 121.5 -30.5zM165.501 381.501c28.333 -30.333 67.167 -45.5 116.5 -45.5
c46 0 87.667 12 125 36c16.667 33.333 25 73 25 119c0 56.667 -13.833 101 -41.5 133s-66.167 48 -115.5 48c-47.333 0 -84.5 -14.833 -111.5 -44.5s-40.5 -70.167 -40.5 -121.5c0 -52.667 14.167 -94.167 42.5 -124.5z" />
    <glyph glyph-name="colon" unicode=":" horiz-adv-x="286" 
d="M102.5 350c-9.66699 10 -14.5 23.667 -14.5 41s4.83301 31 14.5 41s23.167 15 40.5 15s30.833 -4.83301 40.5 -14.5s14.5 -23.167 14.5 -40.5c0 -18 -4.83301 -32 -14.5 -42s-23.167 -15 -40.5 -15s-30.833 5 -40.5 15zM102.5 2c-9.66699 10 -14.5 23.667 -14.5 41
s4.83301 31 14.5 41s23.167 15 40.5 15s30.833 -4.83301 40.5 -14.5s14.5 -23.167 14.5 -40.5c0 -18 -4.83301 -32 -14.5 -42s-23.167 -15 -40.5 -15s-30.833 5 -40.5 15z" />
    <glyph glyph-name="semicolon" unicode=";" horiz-adv-x="286" 
d="M102.5 350c-9.66699 10 -14.5 23.667 -14.5 41s4.83301 31 14.5 41s23.167 15 40.5 15s30.833 -4.83301 40.5 -14.5s14.5 -23.167 14.5 -40.5c0 -18 -4.83301 -32 -14.5 -42s-23.167 -15 -40.5 -15s-30.833 5 -40.5 15zM37 -140c26 28 44.667 55.498 56 82.498
s17 57.5 17 91.5c0 18 -1.33301 37.667 -4 59h80c2.66699 -21.333 4 -40.666 4 -57.999c0 -42 -9.5 -80.167 -28.5 -114.5s-48.5 -67.166 -88.5 -98.499z" />
    <glyph glyph-name="less" unicode="&#x3c;" horiz-adv-x="427" 
d="M56 365l262 299l53 -49l-222 -250l222 -250l-53 -49z" />
    <glyph glyph-name="equal" unicode="=" horiz-adv-x="571" 
d="M81 514h409v-69h-409v69zM81 285h409v-69h-409v69z" />
    <glyph glyph-name="greater" unicode="&#x3e;" horiz-adv-x="427" 
d="M56 115l222 250l-222 250l53 49l262 -299l-262 -299z" />
    <glyph glyph-name="question" unicode="?" horiz-adv-x="514" 
d="M188 256c0 36.667 7.83105 67.999 23.498 93.999s45.167 56 88.5 90c26.667 20.667 44.834 39 54.501 55s14.5 35.667 14.5 59c0 74.667 -40.333 112 -121 112c-26.667 0 -53 -4.33301 -79 -13s-53 -22 -81 -40l-31 64c57.333 40 121 60 191 60
c62.667 0 111.5 -15.667 146.5 -47s52.5 -74.666 52.5 -129.999c0 -33.333 -7.5 -62.5 -22.5 -87.5s-41.5 -51.833 -79.5 -80.5c-33.333 -25.333 -55.666 -47.333 -66.999 -66s-17 -43 -17 -73c0 -15.333 1 -34.666 3 -57.999h-73c-2 25.333 -3 45.666 -3 60.999z
M187.498 1.99902c-9.66699 10 -14.5 23.667 -14.5 41s4.83301 31 14.5 41s23.167 15 40.5 15s30.833 -4.83301 40.5 -14.5s14.5 -23.167 14.5 -40.5c0 -18 -4.83301 -32 -14.5 -42s-23.167 -15 -40.5 -15s-30.833 5 -40.5 15z" />
    <glyph glyph-name="at" unicode="@" horiz-adv-x="805" 
d="M477.5 533.5c19 -5.66699 36.167 -13.833 51.5 -24.5v-210c0 -41.333 17.667 -62 53 -62c28.667 0 51.167 13.5 67.5 40.5s24.5 64.833 24.5 113.5c0 89.333 -23.5 158.833 -70.5 208.5s-112.5 74.5 -196.5 74.5c-83.333 0 -148.333 -27.5 -195 -82.5
s-70 -131.5 -70 -229.5c0 -98.667 24.333 -175.667 73 -231s116.334 -83 203.001 -83c55.333 0 104 11.333 146 34l25 -55c-22 -12.667 -48 -22.5 -78 -29.5s-61 -10.5 -93 -10.5c-68 0 -128 15.667 -180 47s-92.333 75.333 -121 132s-43 122 -43 196
s13.833 139.333 41.5 196s66.667 100.667 117 132s108.5 47 174.5 47c65.333 0 122.833 -14.333 172.5 -43s88.167 -69.167 115.5 -121.5s41 -112.833 41 -181.5c0 -62 -13.5 -112 -40.5 -150s-62.833 -57 -107.5 -57c-18.667 0 -35.5 3.5 -50.5 10.5
s-26.167 16.5 -33.5 28.5c-22.667 -27.333 -54.667 -41 -96 -41c-45.333 0 -80.5 15.667 -105.5 47s-37.5 75.333 -37.5 132s13.667 101 41 133s65.666 48 114.999 48c18.667 0 37.5 -2.83301 56.5 -8.5zM470 478.001c-16.667 7.33301 -33.999 10.999 -51.999 10.999
c-30 0 -52.667 -10.833 -68 -32.5s-23 -53.5 -23 -95.5c0 -41.333 7.66699 -72.666 23 -93.999s37.666 -32 66.999 -32c20 0 37.667 5.33301 53 16v227z" />
    <glyph glyph-name="A" unicode="A" horiz-adv-x="666" 
d="M485 198h-305l-68 -198h-80l259 724h84l259 -724h-81zM462 264l-130 378l-130 -378h260z" />
    <glyph glyph-name="B" unicode="B" horiz-adv-x="644" 
d="M556.5 320.5c22.333 -29.667 33.501 -68.5 33.501 -116.5c0 -64 -19.167 -114 -57.5 -150s-91.833 -54 -160.5 -54h-235h-39v724h74h164c67.333 0 119.666 -17.333 156.999 -52s56 -83 56 -145c0 -78.667 -30.667 -127 -92 -145c44 -11.333 77.167 -31.833 99.5 -61.5z
M172.001 657v-252h164c44.667 0 78.5 10.333 101.5 31s34.5 51 34.5 91c0 42.667 -11.833 75 -35.5 97s-58.5 33 -104.5 33h-160zM477.501 102c23 23.333 34.5 57.332 34.5 101.999s-11.833 78.334 -35.5 101.001s-58.5 34 -104.5 34h-200v-272h204
c44.667 0 78.5 11.667 101.5 35z" />
    <glyph glyph-name="C" unicode="C" horiz-adv-x="599" 
d="M201.5 31c-47.667 28.667 -84.166 70 -109.499 124s-38 118.333 -38 193c0 77.333 13 145.5 39 204.5s62.667 104.5 110 136.5s102.333 48 165 48c32 0 63.833 -4 95.5 -12s60.834 -19.667 87.501 -35l-28 -61c-54.667 26 -107 39 -157 39
c-73.333 0 -130.666 -27.5 -171.999 -82.5s-62 -131.833 -62 -230.5c0 -97.333 20.833 -171.166 62.5 -221.499s103.167 -75.5 184.5 -75.5c59.333 0 109.333 11.667 150 35l28 -60c-20.667 -14.667 -47.334 -25.834 -80.001 -33.501s-67.334 -11.5 -104.001 -11.5
c-66.667 0 -123.834 14.333 -171.501 43z" />
    <glyph glyph-name="D" unicode="D" horiz-adv-x="689" 
d="M539 632c57.333 -61.333 86 -151.333 86 -270s-29 -208.667 -87 -270s-141.667 -92 -251 -92h-189v724h193c108 0 190.667 -30.667 248 -92zM482 142c43.333 50 65 123.333 65 220c0 97.333 -22 170.833 -66 220.5s-108.667 74.5 -194 74.5h-115v-590h119
c84 0 147.667 25 191 75z" />
    <glyph glyph-name="E" unicode="E" horiz-adv-x="574" 
d="M528 67v-67h-430v724h418v-67h-344v-253h258v-68h-258v-269h356z" />
    <glyph glyph-name="F" unicode="F" horiz-adv-x="536" 
d="M172 657v-265h276v-68h-276v-324h-74v724h412v-67h-338z" />
    <glyph glyph-name="G" unicode="G" horiz-adv-x="668" 
d="M590 378l0.000976562 -342c-24.667 -15.333 -54.834 -27.333 -90.501 -36s-73.167 -13 -112.5 -13c-67.333 0 -125.166 14.833 -173.499 44.5s-85.333 72.667 -111 129s-38.5 123.5 -38.5 201.5s12.833 145.167 38.5 201.5s62.667 99.333 111 129
s106.166 44.5 173.499 44.5c34.667 0 68.5 -4 101.5 -12s61.167 -19 84.5 -33l-23 -63c-56.667 26.667 -111.667 40 -165 40c-80 0 -140.5 -25.833 -181.5 -77.5s-61.5 -128.167 -61.5 -229.5s20.667 -178 62 -230s102.333 -78 183 -78c44 0 87 6.66699 129 20v237h-134v67
h208z" />
    <glyph glyph-name="H" unicode="H" horiz-adv-x="700" 
d="M602 724v-724h-74v334h-356v-334h-74v724h74v-323h356v323h74z" />
    <glyph glyph-name="I" unicode="I" horiz-adv-x="274" 
d="M100 724h74v-724h-74v724z" />
    <glyph glyph-name="J" unicode="J" horiz-adv-x="452" 
d="M77 -1.5c-26.667 7.66699 -48.998 18.5 -66.998 32.5l29 61c39.333 -24.667 80.666 -37 123.999 -37c40.667 0 71.167 10.5 91.5 31.5s30.5 52.167 30.5 93.5v544h74v-544c0 -61.333 -17.167 -108.833 -51.5 -142.5s-82.5 -50.5 -144.5 -50.5
c-30.667 0 -59.334 3.83301 -86.001 11.5z" />
    <glyph glyph-name="K" unicode="K" horiz-adv-x="616" 
d="M267 334l-95 -113v-221h-74v724h74v-407l332 407h91l-279 -331l294 -393h-91z" />
    <glyph glyph-name="L" unicode="L" horiz-adv-x="527" 
d="M497 68v-68h-399v724h74v-656h325z" />
    <glyph glyph-name="M" unicode="M" horiz-adv-x="843" 
d="M745 724v-724h-72v607l-213 -456h-78l-213 456v-607h-71v724h89l235 -500l233 500h90z" />
    <glyph glyph-name="N" unicode="N" horiz-adv-x="722" 
d="M624 724v-724h-69l-385 598v-598h-72v724h69l385 -597v597h72z" />
    <glyph glyph-name="O" unicode="O" horiz-adv-x="712" 
d="M139 82.5c-50 63.667 -75 156.834 -75 279.501s25 215.834 75 279.501s122.333 95.5 217 95.5s167 -31.833 217 -95.5s75 -156.834 75 -279.501s-25 -215.834 -75 -279.501s-122.333 -95.5 -217 -95.5s-167 31.833 -217 95.5zM516 132c36 52 54 128.667 54 230
s-18 178 -54 230s-89.333 78 -160 78s-124 -26 -160 -78s-54 -128.667 -54 -230s18 -178 54 -230s89.333 -78 160 -78s124 26 160 78z" />
    <glyph glyph-name="P" unicode="P" horiz-adv-x="595" 
d="M510 663.5c39.333 -40.333 58.999 -96.833 58.999 -169.5s-20.167 -129.5 -60.5 -170.5s-96.166 -61.5 -167.499 -61.5h-169v-262h-74v724h74h173c70.667 0 125.667 -20.167 165 -60.5zM453.999 371c24.667 28 36.999 69 36.999 123c0 53.333 -12.667 93.833 -38 121.5
s-62.666 41.5 -111.999 41.5h-169v-328h173c48 0 84.333 14 109 42z" />
    <glyph glyph-name="Q" unicode="Q" horiz-adv-x="712" 
d="M606 -152l-136 159c-34.667 -13.333 -72.667 -20 -114 -20c-94.667 0 -167 31.833 -217 95.5s-75 156.834 -75 279.501s25 215.834 75 279.501s122.333 95.5 217 95.5s167 -31.833 217 -95.5s75 -156.834 75 -279.501c0 -76.667 -10 -141.834 -30 -195.501
s-49 -95.5 -87 -125.5l127 -139zM196 132c36 -52 89.333 -78 160 -78s124 26 160 78s54 128.667 54 230s-18 178 -54 230s-89.333 78 -160 78s-124 -26 -160 -78s-54 -128.667 -54 -230s18 -178 54 -230z" />
    <glyph glyph-name="R" unicode="R" horiz-adv-x="631" 
d="M319 281l-146.999 -0.00195312v-281h-74v724h74h164c69.333 0 123.666 -19.5 162.999 -58.5s59 -93.167 59 -162.5c0 -57.333 -13.833 -104.666 -41.5 -141.999s-66.5 -61.666 -116.5 -72.999l191 -288h-91zM172.001 347.998h164.001c47.333 0 83.166 13 107.499 39
s36.5 64.667 36.5 116c0 50.667 -12.5 89 -37.5 115s-61.833 39 -110.5 39h-160v-309z" />
    <glyph glyph-name="S" unicode="S" horiz-adv-x="560" 
d="M149.5 3c-39 10 -73.5 23.999 -103.5 41.999l27 65c62 -36 126.667 -54 194 -54c51.333 0 91.333 11.5 120 34.5s43 54.5 43 94.5c0 34 -9.5 61.5 -28.5 82.5s-48.167 36.833 -87.5 47.5l-82 23c-61.333 17.333 -106.5 42 -135.5 74s-43.5 73.667 -43.5 125
c0 60.667 20.5 109 61.5 145s96.167 54 165.5 54c34.667 0 70.167 -3.83301 106.5 -11.5s69.5 -18.5 99.5 -32.5l-26 -65c-68 27.333 -128.667 41 -182 41c-46.667 0 -83.167 -10.833 -109.5 -32.5s-39.5 -51.167 -39.5 -88.5c0 -34 9.5 -61.5 28.5 -82.5
s48.167 -36.833 87.5 -47.5l82 -23c61.333 -17.333 106.5 -42 135.5 -74s43.5 -73.667 43.5 -125c0 -41.333 -9.83301 -77.666 -29.5 -108.999s-47.5 -55.5 -83.5 -72.5s-78 -25.5 -126 -25.5c-39.333 0 -78.5 5 -117.5 15z" />
    <glyph glyph-name="T" unicode="T" horiz-adv-x="526" 
d="M494 656h-194v-656h-74v656h-194v68h268h194v-68z" />
    <glyph glyph-name="U" unicode="U" horiz-adv-x="684" 
d="M158.5 58.5c-43.667 47.667 -65.5 113.834 -65.5 198.501v467h74v-467c0 -66.667 14.833 -117.167 44.5 -151.5s73.167 -51.5 130.5 -51.5s100.833 17.167 130.5 51.5s44.5 84.833 44.5 151.5v467h74v-467c0 -84.667 -22 -150.834 -66 -198.501
s-105.333 -71.5 -184 -71.5c-78 0 -138.833 23.833 -182.5 71.5z" />
    <glyph glyph-name="V" unicode="V" horiz-adv-x="630" 
d="M594 724l-237 -724h-84l-237 724h81l199 -638l198 638h80z" />
    <glyph glyph-name="W" unicode="W" horiz-adv-x="894" 
d="M856 724l-186 -724h-84l-140 607l-139 -607h-84l-185 724h79l149 -633l140 632h82l142 -630l148 631h78z" />
    <glyph glyph-name="X" unicode="X" horiz-adv-x="606" 
d="M484 0l-182 306l-182 -306h-87l228 365l-221 359h89l176 -296l179 296h87l-225 -355l227 -369h-89z" />
    <glyph glyph-name="Y" unicode="Y" horiz-adv-x="586" 
d="M558 724l-229 -464v-260h-74v260l-227 464h83l183 -377l182 377h82z" />
    <glyph glyph-name="Z" unicode="Z" horiz-adv-x="551" 
d="M503 66v-66h-457v67l369 591h-357v66h441v-66l-369 -592h373z" />
    <glyph glyph-name="bracketleft" unicode="[" horiz-adv-x="350" 
d="M167 711v-738h150v-60h-219v858h219v-60h-150z" />
    <glyph glyph-name="backslash" unicode="\" horiz-adv-x="437" 
d="M346 -86l-320 823h64l320 -823h-64z" />
    <glyph glyph-name="bracketright" unicode="]" horiz-adv-x="350" 
d="M252 771v-858h-219v60h150v738h-150v60h219z" />
    <glyph glyph-name="asciicircum" unicode="^" horiz-adv-x="409" 
d="M163 724h82l140 -193h-87l-93 139l-94 -139h-87z" />
    <glyph glyph-name="underscore" unicode="_" horiz-adv-x="597" 
d="M98 -76h401v-70h-401v70z" />
    <glyph glyph-name="grave" unicode="`" horiz-adv-x="500" 
d="M124 774v10h85l95 -159v-10h-56z" />
    <glyph glyph-name="a" unicode="a" horiz-adv-x="528" 
d="M388.5 504c35 -28.667 52.501 -70.666 52.501 -125.999v-378h-67v65c-34.667 -50.667 -88.334 -76 -161.001 -76c-52.667 0 -93.834 14 -123.501 42s-44.5 67 -44.5 117c0 63.333 26.333 110.166 79 140.499s134.334 45.833 245.001 46.5v37
c0 34.667 -10.833 61.167 -32.5 79.5s-53.167 27.5 -94.5 27.5c-43.333 0 -85.333 -9.66699 -126 -29l-19 61c47.333 24 98.333 36 153 36c57.333 0 103.5 -14.333 138.5 -43zM306.001 71.001c22.667 10.667 43.665 27.001 62.998 49.001v155
c-86 -0.666992 -149.333 -10.834 -190 -30.501s-61 -50.167 -61 -91.5c0 -32 9.33301 -56.333 28 -73s46.334 -25 83.001 -25c28.667 0 54.334 5.33301 77.001 16z" />
    <glyph glyph-name="b" unicode="b" horiz-adv-x="574" 
d="M464 472c35.333 -50 53.0029 -119.666 53.0029 -208.999c0 -86.667 -18.833 -154.334 -56.5 -203.001s-89.834 -73 -156.501 -73c-28.667 0 -55.334 5.83301 -80.001 17.5s-45.667 28.167 -63 49.5v-54h-67v493v277h72v-297c36 49.333 86 74 150 74
c63.333 0 112.666 -25 147.999 -75zM407.003 106.001c23.333 35.333 34.999 87.667 34.999 157c0 70.667 -12.167 124 -36.5 160s-60.166 54 -107.499 54c-26 0 -49.667 -5.16699 -71 -15.5s-41.666 -26.833 -60.999 -49.5v-297c17.333 -19.333 38 -34.5 62 -45.5
s49.333 -16.5 76 -16.5c45.333 0 79.666 17.667 102.999 53z" />
    <glyph glyph-name="c" unicode="c" horiz-adv-x="479" 
d="M115.5 62c-41.667 49.333 -62.4971 118.333 -62.4971 207c0 55.333 9.66699 104 29 146s46.5 74.5 81.5 97.5s75.5 34.5 121.5 34.5c25.333 0 51.333 -3.83301 78 -11.5s51 -18.167 73 -31.5l-28 -59c-43.333 23.333 -85 35 -125 35c-48.667 0 -86.667 -18 -114 -54
s-41 -86.333 -41 -151c0 -72 14.167 -126.5 42.5 -163.5s70.166 -55.5 125.499 -55.5c41.333 0 81 11.333 119 34l27 -58c-18.667 -14 -41.334 -24.833 -68.001 -32.5s-54.667 -11.5 -84 -11.5c-74.667 0 -132.834 24.667 -174.501 74z" />
    <glyph glyph-name="d" unicode="d" horiz-adv-x="574" 
d="M480 770l-0.00195312 -729v-41h-67v68c-18 -26.667 -40.167 -46.834 -66.5 -60.501s-55.833 -20.5 -88.5 -20.5c-63.333 0 -112.666 25 -147.999 75s-53 119.667 -53 209c0 86.667 18.833 154.334 56.5 203.001s89.834 73 156.501 73c27.333 0 52.833 -5.33301 76.5 -16
s44.167 -25.667 61.5 -45v284h72zM346.998 72.5c21.333 10.333 41.667 26.832 61 49.499v297c-17.333 19.333 -38 34.5 -62 45.5s-49.333 16.5 -76 16.5c-45.333 0 -79.666 -17.667 -102.999 -53s-35 -87.666 -35 -156.999c0 -70.667 12.167 -124 36.5 -160
s60.166 -54 107.499 -54c26 0 49.667 5.16699 71 15.5z" />
    <glyph glyph-name="e" unicode="e" horiz-adv-x="538" 
d="M484 248h-355.998c2.66699 -63.333 18.167 -111.166 46.5 -143.499s68.833 -48.5 121.5 -48.5c50 0 96 14 138 42l28 -58c-20.667 -16.667 -45.834 -29.5 -75.501 -38.5s-61.167 -13.5 -94.5 -13.5c-74.667 0 -132.834 24.667 -174.501 74s-62.5 117.666 -62.5 204.999
c0 88 19.333 156.667 58 206s92.334 74 161.001 74c67.333 0 119.666 -22.667 156.999 -68s56 -108.333 56 -189c0 -16 -1 -30 -3 -42zM172.502 438.5c-23.667 -29 -37.832 -72.167 -42.499 -129.5h284c-0.666992 54.667 -13.5 97.167 -38.5 127.5s-59.5 45.5 -103.5 45.5
c-42.667 0 -75.834 -14.5 -99.501 -43.5z" />
    <glyph glyph-name="f" unicode="f" horiz-adv-x="361" 
d="M114 473l-93.002 -0.000976562v61h93v68c0 54.667 15.833 97.167 47.5 127.5s75.834 45.5 132.501 45.5c20.667 0 37.667 -1.66699 51 -5v-64c-20 2.66699 -37 4 -51 4c-35.333 0 -62.166 -9.16699 -80.499 -27.5s-27.5 -45.166 -27.5 -80.499v-68h140v-61h-140v-473h-72
v473z" />
    <glyph glyph-name="g" unicode="g" horiz-adv-x="577" 
d="M483 534l0.00195312 -537.999c0 -68 -20.333 -121 -61 -159s-97.334 -57 -170.001 -57c-26.667 0 -52.834 2.66699 -78.501 8s-47.5 12.666 -65.5 21.999l22 65c37.333 -18.667 78 -28 122 -28c52 0 91.5 12.667 118.5 38s40.5 62.333 40.5 111v95
c-36 -49.333 -86.333 -74 -151 -74c-63.333 0 -113 23.667 -149 71s-54 113.333 -54 198c0 82 19 146 57 192s90.667 69 158 69c29.333 0 56.333 -6 81 -18s45.667 -29 63 -51v56h67zM350.002 102.501c21.333 10.333 41.666 26.834 60.999 49.501v267
c-18 20 -39 35.333 -63 46s-49.333 16 -76 16c-46 0 -80.833 -16.333 -104.5 -49s-35.5 -81.334 -35.5 -146.001c0 -65.333 12.333 -114.833 37 -148.5s61.334 -50.5 110.001 -50.5c26 0 49.667 5.16699 71 15.5z" />
    <glyph glyph-name="h" unicode="h" horiz-adv-x="582" 
d="M449 502.5c29.333 -29.667 44 -71.167 44 -124.5v-378h-72v373c0 69.333 -38 104 -114 104c-52.667 0 -99.667 -17.667 -141 -53v-424h-72v770h72v-288c44.667 43.333 98 65 160 65c52.667 0 93.667 -14.833 123 -44.5z" />
    <glyph glyph-name="i" unicode="i" horiz-adv-x="264" 
d="M96 534h72v-534h-72v534zM93.5 644c-9 9.33301 -13.5 22.333 -13.5 39c0 17.333 4.5 30.666 13.5 39.999s21.833 14 38.5 14s29.5 -4.66699 38.5 -14s13.5 -22.333 13.5 -39c0 -17.333 -4.5 -30.666 -13.5 -39.999s-21.833 -14 -38.5 -14s-29.5 4.66699 -38.5 14z" />
    <glyph glyph-name="j" unicode="j" horiz-adv-x="264" 
d="M-41 -159c36 12.667 63.668 26.499 83.001 41.499s33.166 33.667 41.499 56s12.5 51.5 12.5 87.5v508h72v-508c0 -48 -5.5 -86.667 -16.5 -116s-29.5 -54.166 -55.5 -74.499s-63.333 -38.833 -112 -55.5zM93.501 643.999c-9 9.33301 -13.5 22.333 -13.5 39
c0 17.333 4.5 30.666 13.5 39.999s21.833 14 38.5 14s29.5 -4.66699 38.5 -14s13.5 -22.333 13.5 -39c0 -17.333 -4.5 -30.666 -13.5 -39.999s-21.833 -14 -38.5 -14s-29.5 4.66699 -38.5 14z" />
    <glyph glyph-name="k" unicode="k" horiz-adv-x="535" 
d="M244 253l-78 -86v-167h-72v770h72v-514l241 278h89l-202 -225l213 -309h-89z" />
    <glyph glyph-name="l" unicode="l" horiz-adv-x="304" 
d="M92 109l0.000976562 661h72v-658c0 -18.667 4.33301 -32.167 13 -40.5s22.667 -12.5 42 -12.5c11.333 0 24.666 1.33301 39.999 4l7 -61c-20 -5.33301 -40.667 -8 -62 -8c-74.667 0 -112 38.333 -112 115z" />
    <glyph glyph-name="m" unicode="m" horiz-adv-x="883" 
d="M752 502.5c28 -29.667 42 -71.168 42 -124.501v-378h-72v373c0 34 -9 59.833 -27 77.5s-44.333 26.5 -79 26.5c-48.667 0 -95 -18.667 -139 -56c2.66699 -11.333 4 -25.666 4 -42.999v-378h-72v373c0 34 -9.16699 59.833 -27.5 77.5s-44.833 26.5 -79.5 26.5
c-25.333 0 -49 -4.33301 -71 -13s-43.667 -22 -65 -40v-424h-72v534h67v-57c44.667 46.667 98 70 160 70c34 0 63.333 -7.16699 88 -21.5s43 -34.5 55 -60.5c47.333 54.667 104.333 82 171 82c50 0 89 -14.833 117 -44.5z" />
    <glyph glyph-name="n" unicode="n" horiz-adv-x="580" 
d="M447 502c29.333 -30 44 -71.333 44 -124v-378h-72v373c0 34 -9.66699 59.833 -29 77.5s-47.333 26.5 -84 26.5c-26.667 0 -51.334 -4.16699 -74.001 -12.5s-44.667 -21.833 -66 -40.5v-424h-72v534h67v-57c44.667 46.667 99.334 70 164.001 70c52 0 92.667 -15 122 -45z
" />
    <glyph glyph-name="o" unicode="o" horiz-adv-x="555" 
d="M114 58.5c-38 47.667 -57 117.167 -57 208.5s19 160.833 57 208.5s92.667 71.5 164 71.5c70.667 0 125 -23.833 163 -71.5s57 -117.167 57 -208.5s-19 -160.833 -57 -208.5s-92.667 -71.5 -164 -71.5c-70.667 0 -125 23.833 -163 71.5zM386 106.5
c24.667 36.333 37 89.833 37 160.5s-12.333 124.167 -37 160.5s-60.667 54.5 -108 54.5c-48 0 -84.333 -18.167 -109 -54.5s-37 -89.833 -37 -160.5s12.333 -124.167 37 -160.5s60.667 -54.5 108 -54.5c48 0 84.333 18.167 109 54.5z" />
    <glyph glyph-name="p" unicode="p" horiz-adv-x="574" 
d="M464 472c35.333 -50 53.002 -119.667 53.002 -209c0 -86.667 -18.833 -154.334 -56.5 -203.001s-89.834 -73 -156.501 -73c-27.333 0 -52.833 5.33301 -76.5 16s-44.167 25.667 -61.5 45v-255h-72v700v41h67v-68c18 26.667 40.167 46.834 66.5 60.501
s55.833 20.5 88.5 20.5c63.333 0 112.666 -25 147.999 -75zM407.002 106c23.333 35.333 34.999 87.667 34.999 157c0 70.667 -12.167 124 -36.5 160s-60.166 54 -107.499 54c-26 0 -49.667 -5.16699 -71 -15.5s-41.666 -26.833 -60.999 -49.5v-297
c17.333 -19.333 38 -34.5 62 -45.5s49.333 -16.5 76 -16.5c45.333 0 79.666 17.667 102.999 53z" />
    <glyph glyph-name="q" unicode="q" horiz-adv-x="574" 
d="M480 534l-0.00292969 -493.001v-248h-72v268c-36 -49.333 -86 -74 -150 -74c-63.333 0 -112.666 25 -147.999 75s-53 119.667 -53 209c0 86.667 18.833 154.334 56.5 203.001s89.834 73 156.501 73c28.667 0 55.334 -5.83301 80.001 -17.5s45.667 -28.167 63 -49.5v54h67
zM346.997 72.499c21.333 10.333 41.667 26.832 61 49.499v297c-17.333 19.333 -38 34.5 -62 45.5s-49.333 16.5 -76 16.5c-45.333 0 -79.666 -17.667 -102.999 -53s-35 -87.666 -35 -156.999c0 -70.667 12.167 -124 36.5 -160s60.166 -54 107.499 -54
c26 0 49.667 5.16699 71 15.5z" />
    <glyph glyph-name="r" unicode="r" horiz-adv-x="398" 
d="M374 532l-17.001 -71.001c-25.333 7.33301 -48.666 11 -69.999 11c-26 0 -48.833 -5.66699 -68.5 -17s-37.167 -28.666 -52.5 -51.999v-403h-72v534h67v-74c38.667 56.667 87.334 85 146.001 85c23.333 0 45.666 -4.33301 66.999 -13z" />
    <glyph glyph-name="s" unicode="s" horiz-adv-x="463" 
d="M124 0.5c-31.333 8.33301 -58.667 19.833 -82 34.5l26 62c48 -29.333 98.667 -44 152 -44c40 0 70.167 7.5 90.5 22.5s30.5 37.167 30.5 66.5c0 22.667 -6.33301 40.667 -19 54s-32.667 23.333 -60 30l-71 17c-48.667 11.333 -84.5 29 -107.5 53s-34.5 55.667 -34.5 95
c0 48.667 16.167 86.667 48.5 114s77.5 41 135.5 41c29.333 0 58.333 -3.5 87 -10.5s54.334 -16.5 77.001 -28.5l-29 -62c-46.667 24 -92.334 36 -137.001 36c-36 0 -63.333 -7.16699 -82 -21.5s-28 -35.166 -28 -62.499c0 -21.333 6.33301 -38.5 19 -51.5
s32.667 -22.833 60 -29.5l71 -17c48.667 -11.333 84.5 -29.333 107.5 -54s34.5 -57.334 34.5 -98.001c0 -50 -17 -89 -51 -117s-81.333 -42 -142 -42c-32.667 0 -64.667 4.16699 -96 12.5z" />
    <glyph glyph-name="t" unicode="t" horiz-adv-x="382" 
d="M155 37.5c-27.333 29.667 -41.001 73.833 -41.001 132.5v303h-93v61h93v160h72v-160h161v-61h-161v-293c0 -42 8.16699 -72.833 24.5 -92.5s41.833 -29.5 76.5 -29.5c18 0 36.333 3 55 9l12 -62c-22.667 -8 -48.667 -12 -78 -12c-53.333 0 -93.666 14.833 -120.999 44.5z
" />
    <glyph glyph-name="u" unicode="u" horiz-adv-x="572" 
d="M478 534v-534h-67v64c-39.333 -51.333 -93 -77 -161 -77c-51.333 0 -91.333 15 -120 45s-43 71.333 -43 124v378h72v-373c0 -34 9.33301 -59.833 28 -77.5s46 -26.5 82 -26.5c28 0 53 5 75 15s42.667 26 62 48v414h72z" />
    <glyph glyph-name="v" unicode="v" horiz-adv-x="519" 
d="M487 534l-187 -534h-80l-188 534h79l150 -454l148 454h78z" />
    <glyph glyph-name="w" unicode="w" horiz-adv-x="779" 
d="M745 534l-159 -534h-80l-117 428l-117 -428h-80l-158 534h78l121 -454l119 454h76l120 -454l120 454h77z" />
    <glyph glyph-name="x" unicode="x" horiz-adv-x="506" 
d="M383 0l-132 213l-130 -213h-85l176 270l-169 264h87l124 -203l129 203h85l-174 -260l176 -274h-87z" />
    <glyph glyph-name="y" unicode="y" horiz-adv-x="515" 
d="M483 534l-190 -542c-17.333 -48 -45.5 -89.833 -84.5 -125.5s-88.167 -64.167 -147.5 -85.5l-26 64c48 16.667 87 37.167 117 61.5s53.333 53.833 70 88.5l-190 539h79l148 -447l146 447h78z" />
    <glyph glyph-name="z" unicode="z" horiz-adv-x="463" 
d="M418 61v-61h-374v61l287 412h-279v61h362v-61l-287 -412h291z" />
    <glyph glyph-name="braceleft" unicode="{" horiz-adv-x="373" 
d="M210 -67.5c-24.667 16.333 -42.5 38.498 -53.5 66.498s-16.5 64.333 -16.5 109v125c0 26.667 -9.16699 46.334 -27.5 59.001s-46.5 19.334 -84.5 20.001v60c38 0.666992 66.167 7.33398 84.5 20.001s27.5 32.334 27.5 59.001v126c0 44 5.5 80 16.5 108
s28.833 50.333 53.5 67s58.667 29.667 102 39l18 -63c-32 -7.33301 -56.667 -16.833 -74 -28.5s-29.666 -27 -36.999 -46s-11 -44.5 -11 -76.5v-126c0 -30 -6.16699 -53.833 -18.5 -71.5s-31.833 -29.834 -58.5 -36.501c26.667 -6.66699 46.167 -19 58.5 -37
s18.5 -42.333 18.5 -73v-125c0 -32.667 3.66699 -58.5 11 -77.5s19.666 -34.333 36.999 -46s42 -21.167 74 -28.5l-18 -62c-43.333 9.33301 -77.333 22.166 -102 38.499z" />
    <glyph glyph-name="bar" unicode="|" horiz-adv-x="253" 
d="M98 816h57v-1066h-57v1066z" />
    <glyph glyph-name="braceright" unicode="}" horiz-adv-x="373" 
d="M43 -44c32 7.33301 56.667 16.835 74 28.502s29.666 27 36.999 46s11 44.833 11 77.5v125c0 30.667 6.16699 55 18.5 73s31.833 30.333 58.5 37c-26.667 6.66699 -46.167 18.834 -58.5 36.501s-18.5 41.5 -18.5 71.5v126c0 32 -3.66699 57.5 -11 76.5
s-19.666 34.333 -36.999 46s-42 21.167 -74 28.5l18 63c43.333 -9.33301 77.333 -22.333 102 -39s42.5 -39 53.5 -67s16.5 -64 16.5 -108v-126c0 -26.667 9.16699 -46.334 27.5 -59.001s46.5 -19.334 84.5 -20.001v-60c-38 -0.666992 -66.167 -7.33398 -84.5 -20.001
s-27.5 -32.334 -27.5 -59.001v-125c0 -44.667 -5.5 -81 -16.5 -109s-28.833 -50.167 -53.5 -66.5s-58.667 -29.166 -102 -38.499z" />
    <glyph glyph-name="asciitilde" unicode="~" horiz-adv-x="571" 
d="M324 303.5c-13.333 5.66699 -29 14.167 -47 25.5c-16.667 10 -30.334 17.5 -41.001 22.5s-23 7.5 -37 7.5c-16.667 0 -32.834 -4.66699 -48.501 -14s-31.5 -23.666 -47.5 -42.999l-45 46c44.667 52.667 92 79 142 79c18 0 33.667 -2.83301 47 -8.5s29 -14.167 47 -25.5
c16.667 -10 30.334 -17.5 41.001 -22.5s23 -7.5 37 -7.5c16.667 0 32.834 4.66699 48.501 14s31.5 23.666 47.5 42.999l45 -46c-44.667 -52.667 -92 -79 -142 -79c-18 0 -33.667 2.83301 -47 8.5z" />
    <glyph glyph-name="uni00A0" unicode="&#xa0;" horiz-adv-x="231" 
 />
    <glyph glyph-name="exclamdown" unicode="&#xa1;" horiz-adv-x="346" 
d="M213.5 532c9.66699 -10 14.5 -23.667 14.5 -41s-4.83301 -31 -14.5 -41s-23.167 -15 -40.5 -15s-30.833 4.83301 -40.5 14.5s-14.5 23.167 -14.5 40.5c0 18 4.83301 32 14.5 42s23.167 15 40.5 15s30.833 -5 40.5 -15zM217 -190h-86l14 529h58z" />
    <glyph glyph-name="cent" unicode="&#xa2;" horiz-adv-x="473" 
d="M366.5 39.5c-23 -7.66699 -45.835 -12.166 -68.502 -13.499v-111h-62v115c-58 10 -103 36.833 -135 80.5s-48 100.834 -48 171.501c0 66 16.5 121.167 49.5 165.5s77.5 71.166 133.5 80.499v115h62v-112c22 -1.33301 44 -5 66 -11s41.333 -14.333 58 -25l-27 -56
c-29.333 15.333 -61.666 24.666 -96.999 27.999v-376c32.667 2 67.334 13 104.001 33l26 -55c-18 -12 -38.5 -21.833 -61.5 -29.5zM152.998 158.001c18 -31.333 45.667 -51.667 83 -61v367c-36 -7.33301 -63.333 -25.833 -82 -55.5s-28 -69.834 -28 -120.501
c0 -55.333 9 -98.666 27 -129.999z" />
    <glyph glyph-name="sterling" unicode="&#xa3;" horiz-adv-x="530" 
d="M145 66l321 0.000976562v-66h-395v66l34 41c43.333 52 65 118.333 65 199c0 12.667 -0.333008 21.667 -1 27h-107v63h96c-5.33301 16 -13 34.667 -23 56s-17.333 40 -22 56s-7 35 -7 57c0 54.667 16.667 97 50 127s80 45 140 45c72 0 129.333 -21 172 -63l-37 -61
c-35.333 35.333 -80.333 53 -135 53c-36.667 0 -64.5 -8.33301 -83.5 -25s-28.5 -41.334 -28.5 -74.001c0 -16 2 -30.5 6 -43.5s10.333 -29.5 19 -49.5c2 -4.66699 6 -14.667 12 -30s11 -31.333 15 -48h167v-63h-159v-15c0 -98.667 -33 -182.667 -99 -252z" />
    <glyph glyph-name="currency" unicode="&#xa4;" horiz-adv-x="590" 
d="M463 134l70 -88l-53 -42l-70 85c-32 -18 -70.333 -27 -115 -27s-83 9 -115 27l-70 -85l-53 42l70 88c-36 43.333 -54 103 -54 179c0 75.333 18 134.666 54 177.999l-70 88l53 42l70 -85c32 18 70.333 27 115 27s83 -9 115 -27l70 85l53 -42l-70 -88
c36 -43.333 54 -102.666 54 -177.999c0 -76 -18 -135.667 -54 -179zM402.5 175.5c24.333 31 36.5 76.833 36.5 137.5c0 60 -12.167 105.5 -36.5 136.5s-60.166 46.5 -107.499 46.5s-83.166 -15.5 -107.499 -46.5s-36.5 -76.5 -36.5 -136.5
c0 -60.667 12.167 -106.5 36.5 -137.5s60.166 -46.5 107.499 -46.5s83.166 15.5 107.499 46.5z" />
    <glyph glyph-name="yen" unicode="&#xa5;" horiz-adv-x="540" 
d="M333 332h116v-61h-144v-82h144v-62h-144v-127h-72v127h-144v62h144v82h-144v61h116l-177 392h81l161 -393l162 393h80z" />
    <glyph glyph-name="brokenbar" unicode="&#xa6;" horiz-adv-x="253" 
d="M98 816h57v-447h-57v447zM98 198h57v-448h-57v448z" />
    <glyph glyph-name="section" unicode="&#xa7;" horiz-adv-x="531" 
d="M461 -32c0 -56.667 -17.334 -101 -52.001 -133s-83 -48 -145 -48c-31.333 0 -64.166 4.33301 -98.499 13s-66.166 20.667 -95.499 36l28 65c60 -30.667 115.333 -46 166 -46c42 0 73 8.83301 93 26.5s30 45.167 30 82.5c0 30.667 -7.33301 54.667 -22 72
s-39 30.666 -73 39.999l-62 18c-54.667 15.333 -95 38 -121 68s-39 68.667 -39 116c0 58.667 18.667 107.334 56 146.001c-34.667 32 -52 75 -52 129c0 57.333 17.833 102.166 53.5 134.499s85.5 48.5 149.5 48.5c28.667 0 57.5 -3.16699 86.5 -9.5
s54.833 -15.166 77.5 -26.499l-26 -65c-46 22 -92.667 33 -140 33c-43.333 0 -75.333 -9 -96 -27s-31 -45.667 -31 -83c0 -30.667 7.33301 -54.834 22 -72.501s39 -31.167 73 -40.5l62 -18c53.333 -15.333 92.666 -37.833 117.999 -67.5s38 -68.167 38 -115.5
c0 -57.333 -18 -105.666 -54 -144.999c36 -31.333 54 -75 54 -131zM304.999 150c14 -4 30 -9.66602 48 -16.999c26 28 39 62 39 102c0 31.333 -7.83301 56.166 -23.5 74.499s-41.167 32.833 -76.5 43.5l-62 18c-14 4 -30.667 10.333 -50 19c-27.333 -28 -41 -62 -41 -102
c0 -31.333 8.16699 -56.5 24.5 -75.5s42.833 -33.833 79.5 -44.5z" />
    <glyph glyph-name="dieresis" unicode="&#xa8;" horiz-adv-x="500" 
d="M121 643.5c-8.66699 9 -13 21.5 -13 37.5s4.33301 28.667 13 38s20.667 14 36 14c16 0 28.333 -4.5 37 -13.5s13 -21.5 13 -37.5c0 -16.667 -4.33301 -29.5 -13 -38.5s-21 -13.5 -37 -13.5c-15.333 0 -27.333 4.5 -36 13.5zM306 643.5c-8.66699 9 -13 21.5 -13 37.5
s4.33301 28.667 13 38s20.667 14 36 14c16 0 28.333 -4.5 37 -13.5s13 -21.5 13 -37.5c0 -16.667 -4.33301 -29.5 -13 -38.5s-21 -13.5 -37 -13.5c-15.333 0 -27.333 4.5 -36 13.5z" />
    <glyph glyph-name="copyright" unicode="&#xa9;" horiz-adv-x="830" 
d="M242 31c-48.667 29.333 -85.834 72.166 -111.501 128.499s-38.5 123.833 -38.5 202.5s12.833 146.167 38.5 202.5s62.834 99.166 111.501 128.499s106.334 44 173.001 44s124.334 -14.667 173.001 -44s85.834 -72.166 111.501 -128.499s38.5 -123.833 38.5 -202.5
s-12.833 -146.167 -38.5 -202.5s-62.834 -99.166 -111.501 -128.499s-106.334 -44 -173.001 -44s-124.334 14.667 -173.001 44zM612 125c46.667 56 70 135 70 237s-23.333 181 -70 237s-112.334 84 -197.001 84s-150.334 -28 -197.001 -84s-70 -135 -70 -237
s23.333 -181 70 -237s112.334 -84 197.001 -84s150.334 28 197.001 84zM314 226.5c-27.333 32.333 -40.999 77.835 -40.999 136.502c0 57.333 13.333 102.166 40 134.499s64 48.5 112 48.5c18.667 0 37.167 -2.5 55.5 -7.5s34.5 -11.833 48.5 -20.5l-24 -49
c-28.667 15.333 -55.667 23 -81 23c-30 0 -52.833 -10.667 -68.5 -32s-23.5 -52.333 -23.5 -93c0 -44.667 8.5 -78.334 25.5 -101.001s41.833 -34 74.5 -34c27.333 0 53.666 7.66699 78.999 23l21 -48c-13.333 -9.33301 -29 -16.5 -47 -21.5s-37 -7.5 -57 -7.5
c-48.667 0 -86.667 16.167 -114 48.5z" />
    <glyph glyph-name="ordfeminine" unicode="&#xaa;" horiz-adv-x="518" 
d="M120 327c-30 22.667 -44.999 54.333 -44.999 95c0 50.667 20.667 87.167 62 109.5s109.666 33.5 204.999 33.5v27c0 24.667 -8.5 43.334 -25.5 56.001s-41.833 19 -74.5 19c-33.333 0 -69 -8.33301 -107 -25l-19 56c40 21.333 84.333 32 133 32
c50.667 0 90.167 -11.5 118.5 -34.5s42.5 -54.833 42.5 -95.5v-268c-24 -12.667 -50.333 -22.334 -79 -29.001s-57 -10 -85 -10c-54 0 -96 11.333 -126 34zM189.501 488.999c-31 -13.333 -46.5 -34.999 -46.5 -64.999c0 -22.667 8.66699 -39.834 26 -51.501
s43 -17.5 77 -17.5c38 0 70 5.33301 96 16v138c-70.667 0 -121.5 -6.66699 -152.5 -20zM411.001 187v-60h-315v60h315z" />
    <glyph glyph-name="guillemotleft" unicode="&#xab;" horiz-adv-x="579" 
d="M361 286l170 -195l-50 -47l-208 241l209 241l49 -47zM131 286l170 -195l-50 -47l-208 241l209 241l49 -47z" />
    <glyph glyph-name="logicalnot" unicode="&#xac;" horiz-adv-x="571" 
d="M499 486v-69v-168h-71v168h-356v69h427z" />
    <glyph glyph-name="uni00AD" unicode="&#xad;" horiz-adv-x="405" 
d="M57 328h291v-65h-291v65z" />
    <glyph glyph-name="registered" unicode="&#xae;" horiz-adv-x="830" 
d="M588 693c48.667 -29.333 85.834 -72.166 111.501 -128.499s38.5 -123.833 38.5 -202.5s-12.833 -146.167 -38.5 -202.5s-62.834 -99.166 -111.501 -128.499s-106.334 -44 -173.001 -44s-124.334 14.667 -173.001 44s-85.834 72.166 -111.501 128.499
s-38.5 123.833 -38.5 202.5s12.833 146.167 38.5 202.5s62.834 99.166 111.501 128.499s106.334 44 173.001 44s124.334 -14.667 173.001 -44zM612 125c46.667 56 70 135 70 237s-23.333 181 -70 237s-112.334 84 -197.001 84s-150.334 -28 -197.001 -84s-70 -135 -70 -237
s23.333 -181 70 -237s112.334 -84 197.001 -84s150.334 28 197.001 84zM519 352.5c-10.667 -19 -26.001 -32.833 -46.001 -41.5l77 -127h-69l-66 117h-52v-117h-57v356h118c34.667 0 61.834 -10.333 81.501 -31s29.5 -49.667 29.5 -87c0 -27.333 -5.33301 -50.5 -16 -69.5z
M362.999 353h61c33.333 0 50 21.667 50 65c0 44.667 -18.333 67 -55 67h-56v-132z" />
    <glyph glyph-name="macron" unicode="&#xaf;" horiz-adv-x="500" 
d="M108 699h284v-58h-284v58z" />
    <glyph glyph-name="degree" unicode="&#xb0;" horiz-adv-x="448" 
d="M103 443.5c-31.333 31.667 -47 72.5 -47 122.5s15.667 90.833 47 122.5s71.666 47.5 120.999 47.5s89.666 -15.833 120.999 -47.5s47 -72.5 47 -122.5s-15.667 -90.833 -47 -122.5s-71.666 -47.5 -120.999 -47.5s-89.666 15.833 -120.999 47.5zM293.5 492.5
c17.667 19 26.5 43.5 26.5 73.5s-8.83301 54.5 -26.5 73.5s-40.834 28.5 -69.501 28.5s-51.834 -9.5 -69.501 -28.5s-26.5 -43.5 -26.5 -73.5s8.83301 -54.5 26.5 -73.5s40.834 -28.5 69.501 -28.5s51.834 9.5 69.501 28.5z" />
    <glyph glyph-name="plusminus" unicode="&#xb1;" horiz-adv-x="571" 
d="M513 479v-69h-192v-183h-71v183h-192v69h192v183h71v-183h192zM58 158h455v-67h-455v67z" />
    <glyph glyph-name="uni00B2" unicode="&#xb2;" horiz-adv-x="375" 
d="M320 387l0.00195312 -56h-286v56l164 174c18 18.667 30.167 34.334 36.5 47.001s9.5 27 9.5 43c0 21.333 -5.83301 37.5 -17.5 48.5s-28.834 16.5 -51.501 16.5c-17.333 0 -35.833 -3.33301 -55.5 -10s-38.834 -16.334 -57.501 -29.001l-29 50
c21.333 15.333 44.833 27.5 70.5 36.5s51.167 13.5 76.5 13.5c41.333 0 73.5 -10.5 96.5 -31.5s34.5 -50.5 34.5 -88.5c0 -22 -5 -42.833 -15 -62.5s-28 -43.167 -54 -70.5l-132 -137h210z" />
    <glyph glyph-name="uni00B3" unicode="&#xb3;" horiz-adv-x="399" 
d="M296.5 562.5c24.333 -23 36.501 -54.835 36.501 -95.502c0 -45.333 -14.5 -80.5 -43.5 -105.5s-69.5 -37.5 -121.5 -37.5c-26 0 -50.833 3.33301 -74.5 10s-43.834 16.334 -60.501 29.001l25 55c32 -22 68.667 -33 110 -33c32 0 56.167 6.83301 72.5 20.5
s24.5 33.834 24.5 60.501c0 52 -30.333 78 -91 78c-18 0 -34 -2 -48 -6l-22 30l135 146h-197v56h270v-56l-117 -117h1c42.667 0 76.167 -11.5 100.5 -34.5z" />
    <glyph glyph-name="acute" unicode="&#xb4;" horiz-adv-x="500" 
d="M200 625l103 159h85v-10l-132 -159h-56v10z" />
    <glyph glyph-name="uni00B5" unicode="&#xb5;" horiz-adv-x="586" 
d="M492 534v-534h-66v65c-38.667 -52 -92.667 -78 -162 -78c-46 0 -78.667 14 -98 42v-236h-72v547v194h72v-363c0 -38 9.5 -66.667 28.5 -86s47.167 -29 84.5 -29c29.333 0 55.333 5.16699 78 15.5s43.667 26.5 63 48.5v414h72z" />
    <glyph glyph-name="paragraph" unicode="&#xb6;" horiz-adv-x="572" 
d="M474 0l-65.999 0.000976562v657h-80v-657h-65v324h-4c-70.667 0 -125.834 17.5 -165.501 52.5s-59.5 83.833 -59.5 146.5c0 63.333 20.167 112.666 60.5 147.999s96.5 53 168.5 53h145h66v-724z" />
    <glyph glyph-name="periodcentered" unicode="&#xb7;" horiz-adv-x="246" 
d="M82.5 292c-9.66699 10 -14.5 23.667 -14.5 41s4.83301 31 14.5 41s23.167 15 40.5 15s30.833 -4.83301 40.5 -14.5s14.5 -23.167 14.5 -40.5c0 -18 -4.83301 -32 -14.5 -42s-23.167 -15 -40.5 -15s-30.833 5 -40.5 15z" />
    <glyph glyph-name="cedilla" unicode="&#xb8;" horiz-adv-x="500" 
d="M333 -81c18 -14 27.001 -33.668 27.001 -59.001c0 -27.333 -10.167 -48.666 -30.5 -63.999s-48.5 -23 -84.5 -23c-36.667 0 -69.334 7.66699 -98.001 23l15 44c32 -12.667 59.667 -19 83 -19c36 0 54 13 54 39s-16.667 39 -50 39c-15.333 0 -30 -3 -44 -9l-21 24l46 106
l57 -6l-50 -76c9.33301 1.33301 16 2 20 2c32.667 0 58 -7 76 -21z" />
    <glyph glyph-name="uni00B9" unicode="&#xb9;" horiz-adv-x="330" 
d="M206 770v-439h-64v371l-96 -33l-18 52l129 49h49z" />
    <glyph glyph-name="ordmasculine" unicode="&#xba;" horiz-adv-x="524" 
d="M125 348c-32 37.333 -47.999 92 -47.999 164c0 71.333 16.167 125.666 48.5 162.999s78.166 56 137.499 56c58.667 0 104 -18.667 136 -56s48 -91.666 48 -162.999c0 -72 -16 -126.667 -48 -164s-77.667 -56 -137 -56s-105 18.667 -137 56zM348.001 393.5
c19.333 27 28.999 66.5 28.999 118.5s-9.66699 91.333 -29 118s-47.666 40 -84.999 40c-38 0 -66.833 -13.333 -86.5 -40s-29.5 -66 -29.5 -118s9.66699 -91.5 29 -118.5s48 -40.5 86 -40.5s66.667 13.5 86 40.5zM105 187h315v-60h-315v60z" />
    <glyph glyph-name="guillemotright" unicode="&#xbb;" horiz-adv-x="579" 
d="M306 285l-209 -241l-49 47l170 193l-170 195l50 47zM536 285l-209 -241l-49 47l170 193l-170 195l50 47z" />
    <glyph glyph-name="onequarter" unicode="&#xbc;" horiz-adv-x="877" 
d="M655 702l-427 -712l-54 32l427 712zM142 285v371l-96 -33l-18 52l129 49h49v-439h-64zM840 143v-55h-58v-88h-62v88h-206v55l176 296h92v-296h58zM720 143v241l-140 -241h140z" />
    <glyph glyph-name="onehalf" unicode="&#xbd;" horiz-adv-x="912" 
d="M655 702l-427 -712l-54 32l427 712zM142 285v371l-96 -33l-18 52l129 49h49v-439h-64zM859 56l0.00195312 -56h-286v56l164 174c18 18.667 30.167 34.334 36.5 47.001s9.5 27 9.5 43c0 21.333 -5.83301 37.5 -17.5 48.5s-28.834 16.5 -51.501 16.5
c-17.333 0 -35.833 -3.33301 -55.5 -10s-38.834 -16.334 -57.501 -29.001l-29 50c21.333 15.333 44.833 27.5 70.5 36.5s51.167 13.5 76.5 13.5c41.333 0 73.5 -10.5 96.5 -31.5s34.5 -50.5 34.5 -88.5c0 -22 -5 -42.833 -15 -62.5s-28 -43.167 -54 -70.5l-132 -137h210z
" />
    <glyph glyph-name="threequarters" unicode="&#xbe;" horiz-adv-x="964" 
d="M742 702l-427 -712l-54 32l427 712zM289.5 315.5c-29 -25 -69.499 -37.502 -121.499 -37.502c-26 0 -50.833 3.33301 -74.5 10s-43.834 16.334 -60.501 29.001l25 55c32 -22 68.667 -33 110 -33c32 0 56.167 6.83301 72.5 20.5s24.5 33.834 24.5 60.501
c0 52 -30.333 78 -91 78c-18 0 -34 -2 -48 -6l-22 30l135 146h-197v56h270v-56l-117 -117h1c42.667 0 76.167 -11.5 100.5 -34.5s36.5 -54.833 36.5 -95.5c0 -45.333 -14.5 -80.5 -43.5 -105.5zM927.001 142.998v-55h-58v-88h-62v88h-206v55l176 296h92v-296h58z
M807.001 142.998v241l-140 -241h140z" />
    <glyph glyph-name="questiondown" unicode="&#xbf;" horiz-adv-x="464" 
d="M326.5 532c9.66699 -10 14.5 -23.667 14.5 -41s-4.83301 -31 -14.5 -41s-23.167 -15 -40.5 -15s-30.833 4.83301 -40.5 14.5s-14.5 23.167 -14.5 40.5c0 18 4.83301 32 14.5 42s23.167 15 40.5 15s30.833 -5 40.5 -15zM326 278
c0 -36.667 -7.83105 -67.999 -23.498 -93.999s-45.167 -56 -88.5 -90c-26.667 -20.667 -44.834 -39 -54.501 -55s-14.5 -35.667 -14.5 -59c0 -74.667 40.333 -112 121 -112c26.667 0 53 4.33301 79 13s53 22 81 40l31 -64c-57.333 -40 -121 -60 -191 -60
c-62.667 0 -111.5 15.667 -146.5 47s-52.5 74.666 -52.5 129.999c0 33.333 7.5 62.5 22.5 87.5s41.5 51.833 79.5 80.5c33.333 25.333 55.666 47.333 66.999 66s17 43 17 73c0 16 -1 35.333 -3 58h73c2 -24.667 3 -45 3 -61z" />
    <glyph glyph-name="Agrave" unicode="&#xc0;" horiz-adv-x="666" 
d="M328 781l-173 133v12h95l144 -133v-12h-66zM485 198h-305l-68 -198h-80l259 724h84l259 -724h-81zM462 264l-130 378l-130 -378h260z" />
    <glyph glyph-name="Aacute" unicode="&#xc1;" horiz-adv-x="666" 
d="M337 781h-66v12l153 133h95v-12zM485 198h-305l-68 -198h-80l259 724h84l259 -724h-81zM462 264l-130 378l-130 -378h260z" />
    <glyph glyph-name="Acircumflex" unicode="&#xc2;" horiz-adv-x="666" 
d="M233 781h-58v12l117 133h82l117 -133v-12h-61l-98 94zM485 198h-305l-68 -198h-80l259 724h84l259 -724h-81zM462 264l-130 378l-130 -378h260z" />
    <glyph glyph-name="Atilde" unicode="&#xc3;" horiz-adv-x="666" 
d="M218 792h-48c1.33301 38.667 10 69.167 26 91.5s38.333 33.5 67 33.5c17.333 0 32.666 -3.5 45.999 -10.5s28 -16.833 44 -29.5c12 -9.33301 21.667 -16.166 29 -20.499s15 -6.5 23 -6.5c23.333 0 37.666 21.667 42.999 65h48c-1.33301 -38.667 -10 -69.167 -26 -91.5
s-38.333 -33.5 -67 -33.5c-17.333 0 -32.666 3.5 -45.999 10.5s-28 16.833 -44 29.5c-12 9.33301 -21.667 16.166 -29 20.499s-15 6.5 -23 6.5c-23.333 0 -37.666 -21.667 -42.999 -65zM485 198h-305l-68 -198h-80l259 724h84l259 -724h-81zM462 264l-130 378l-130 -378h260
z" />
    <glyph glyph-name="Adieresis" unicode="&#xc4;" horiz-adv-x="666" 
d="M200 813.5c-8.66699 9 -13 21.5 -13 37.5s4.33301 28.667 13 38s20.667 14 36 14c16 0 28.333 -4.5 37 -13.5s13 -21.5 13 -37.5c0 -16.667 -4.33301 -29.5 -13 -38.5s-21 -13.5 -37 -13.5c-15.333 0 -27.333 4.5 -36 13.5zM393 813.5c-8.66699 9 -13 21.5 -13 37.5
s4.33301 28.667 13 38s20.667 14 36 14c16 0 28.333 -4.5 37 -13.5s13 -21.5 13 -37.5c0 -16.667 -4.33301 -29.5 -13 -38.5s-21 -13.5 -37 -13.5c-15.333 0 -27.333 4.5 -36 13.5zM485 198h-305l-68 -198h-80l259 724h84l259 -724h-81zM462 264l-130 378l-130 -378h260z
" />
    <glyph glyph-name="Aring" unicode="&#xc5;" horiz-adv-x="666" 
d="M247.5 797c-20.333 18.667 -30.5 44.667 -30.5 78s10.167 59.333 30.5 78s48.833 28 85.5 28s65.167 -9.33301 85.5 -28s30.5 -44.667 30.5 -78s-10.167 -59.333 -30.5 -78s-48.833 -28 -85.5 -28s-65.167 9.33301 -85.5 28zM272 875c0 -40.667 20.333 -61 61 -61
s61 20.333 61 61s-20.333 61 -61 61s-61 -20.333 -61 -61zM485 198h-305l-68 -198h-80l259 724h84l259 -724h-81zM462 264l-130 378l-130 -378h260z" />
    <glyph glyph-name="AE" unicode="&#xc6;" horiz-adv-x="898" 
d="M852 67v-67h-414v190h-256l-102 -190h-82l393 724h76h373v-67h-330v-253h244v-68h-244v-269h342zM438 256v414l-221 -414h221z" />
    <glyph glyph-name="Ccedilla" unicode="&#xc7;" horiz-adv-x="599" 
d="M434 -81c18 -14 27.001 -33.6689 27.001 -59.002c0 -27.333 -10.167 -48.666 -30.5 -63.999s-48.5 -23 -84.5 -23c-36.667 0 -69.334 7.66699 -98.001 23l15 44c32 -12.667 59.667 -19 83 -19c36 0 54 13 54 39s-16.667 39 -50 39c-15.333 0 -30 -3 -44 -9l-21 24l34 78
c-84 11.333 -149.167 47.833 -195.5 109.5s-69.5 143.834 -69.5 246.501c0 77.333 13 145.5 39 204.5s62.667 104.5 110 136.5s102.333 48 165 48c32 0 63.833 -4 95.5 -12s60.834 -19.667 87.501 -35l-28 -61c-54.667 26 -107 39 -157 39
c-73.333 0 -130.666 -27.5 -171.999 -82.5s-62 -131.833 -62 -230.5c0 -97.333 20.833 -171.166 62.5 -221.499s103.167 -75.5 184.5 -75.5c59.333 0 109.333 11.667 150 35l28 -60c-20.667 -14.667 -47.334 -25.834 -80.001 -33.501s-67.334 -11.5 -104.001 -11.5h-2
l-33 -50c9.33301 1.33301 16 2 20 2c32.667 0 58 -7 76 -21z" />
    <glyph glyph-name="Egrave" unicode="&#xc8;" horiz-adv-x="574" 
d="M308 781l-173 133v12h95l144 -133v-12h-66zM528 67v-67h-430v724h418v-67h-344v-253h258v-68h-258v-269h356z" />
    <glyph glyph-name="Eacute" unicode="&#xc9;" horiz-adv-x="574" 
d="M317 781h-66v12l153 133h95v-12zM528 67v-67h-430v724h418v-67h-344v-253h258v-68h-258v-269h356z" />
    <glyph glyph-name="Ecircumflex" unicode="&#xca;" horiz-adv-x="574" 
d="M213 781h-58v12l117 133h82l117 -133v-12h-61l-98 94zM528 67v-67h-430v724h418v-67h-344v-253h258v-68h-258v-269h356z" />
    <glyph glyph-name="Edieresis" unicode="&#xcb;" horiz-adv-x="574" 
d="M180 813.5c-8.66699 9 -13 21.5 -13 37.5s4.33301 28.667 13 38s20.667 14 36 14c16 0 28.333 -4.5 37 -13.5s13 -21.5 13 -37.5c0 -16.667 -4.33301 -29.5 -13 -38.5s-21 -13.5 -37 -13.5c-15.333 0 -27.333 4.5 -36 13.5zM373 813.5c-8.66699 9 -13 21.5 -13 37.5
s4.33301 28.667 13 38s20.667 14 36 14c16 0 28.333 -4.5 37 -13.5s13 -21.5 13 -37.5c0 -16.667 -4.33301 -29.5 -13 -38.5s-21 -13.5 -37 -13.5c-15.333 0 -27.333 4.5 -36 13.5zM528 67v-67h-430v724h418v-67h-344v-253h258v-68h-258v-269h356z" />
    <glyph glyph-name="Igrave" unicode="&#xcc;" horiz-adv-x="274" 
d="M-41 914v12h95l144 -133v-12h-66zM100 724h74v-724h-74v724z" />
    <glyph glyph-name="Iacute" unicode="&#xcd;" horiz-adv-x="274" 
d="M75 793l153 133h95v-12l-182 -133h-66v12zM100 724h74v-724h-74v724z" />
    <glyph glyph-name="Icircumflex" unicode="&#xce;" horiz-adv-x="274" 
d="M295 793v-12h-61l-98 94l-99 -94h-58v12l117 133h82zM100 724h74v-724h-74v724z" />
    <glyph glyph-name="Idieresis" unicode="&#xcf;" horiz-adv-x="274" 
d="M4 813.5c-8.66699 9 -13 21.5 -13 37.5s4.33301 28.667 13 38s20.667 14 36 14c16 0 28.333 -4.5 37 -13.5s13 -21.5 13 -37.5c0 -16.667 -4.33301 -29.5 -13 -38.5s-21 -13.5 -37 -13.5c-15.333 0 -27.333 4.5 -36 13.5zM197 813.5c-8.66699 9 -13 21.5 -13 37.5
s4.33301 28.667 13 38s20.667 14 36 14c16 0 28.333 -4.5 37 -13.5s13 -21.5 13 -37.5c0 -16.667 -4.33301 -29.5 -13 -38.5s-21 -13.5 -37 -13.5c-15.333 0 -27.333 4.5 -36 13.5zM100 724h74v-724h-74v724z" />
    <glyph glyph-name="Eth" unicode="&#xd0;" horiz-adv-x="688" 
d="M538 632c57.333 -61.333 86 -151.333 86 -270s-29 -208.667 -87 -270s-141.667 -92 -251 -92h-189v334h-68v65h68v325h193c108 0 190.667 -30.667 248 -92zM481 142c43.333 50 65 123.333 65 220c0 97.333 -22 170.833 -66 220.5s-108.667 74.5 -194 74.5h-115v-258h191
v-65h-191v-267h119c84 0 147.667 25 191 75z" />
    <glyph glyph-name="Ntilde" unicode="&#xd1;" horiz-adv-x="722" 
d="M246 792h-48c1.33301 38.667 10 69.167 26 91.5s38.333 33.5 67 33.5c17.333 0 32.666 -3.5 45.999 -10.5s28 -16.833 44 -29.5c12 -9.33301 21.667 -16.166 29 -20.499s15 -6.5 23 -6.5c23.333 0 37.666 21.667 42.999 65h48c-1.33301 -38.667 -10 -69.167 -26 -91.5
s-38.333 -33.5 -67 -33.5c-17.333 0 -32.666 3.5 -45.999 10.5s-28 16.833 -44 29.5c-12 9.33301 -21.667 16.166 -29 20.499s-15 6.5 -23 6.5c-23.333 0 -37.666 -21.667 -42.999 -65zM624 724v-724h-69l-385 598v-598h-72v724h69l385 -597v597h72z" />
    <glyph glyph-name="Ograve" unicode="&#xd2;" horiz-adv-x="712" 
d="M178 914v12h95l144 -133v-12h-66zM139 82.5c-50 63.667 -75 156.834 -75 279.501s25 215.834 75 279.501s122.333 95.5 217 95.5s167 -31.833 217 -95.5s75 -156.834 75 -279.501s-25 -215.834 -75 -279.501s-122.333 -95.5 -217 -95.5s-167 31.833 -217 95.5zM516 132
c36 52 54 128.667 54 230s-18 178 -54 230s-89.333 78 -160 78s-124 -26 -160 -78s-54 -128.667 -54 -230s18 -178 54 -230s89.333 -78 160 -78s124 26 160 78z" />
    <glyph glyph-name="Oacute" unicode="&#xd3;" horiz-adv-x="712" 
d="M294 793l153 133h95v-12l-182 -133h-66v12zM139 82.5c-50 63.667 -75 156.834 -75 279.501s25 215.834 75 279.501s122.333 95.5 217 95.5s167 -31.833 217 -95.5s75 -156.834 75 -279.501s-25 -215.834 -75 -279.501s-122.333 -95.5 -217 -95.5s-167 31.833 -217 95.5z
M516 132c36 52 54 128.667 54 230s-18 178 -54 230s-89.333 78 -160 78s-124 -26 -160 -78s-54 -128.667 -54 -230s18 -178 54 -230s89.333 -78 160 -78s124 26 160 78z" />
    <glyph glyph-name="Ocircumflex" unicode="&#xd4;" horiz-adv-x="712" 
d="M256 781h-58v12l117 133h82l117 -133v-12h-61l-98 94zM573 641.5c50 -63.667 75 -156.834 75 -279.501s-25 -215.834 -75 -279.501s-122.333 -95.5 -217 -95.5s-167 31.833 -217 95.5s-75 156.834 -75 279.501s25 215.834 75 279.501s122.333 95.5 217 95.5
s167 -31.833 217 -95.5zM516 132c36 52 54 128.667 54 230s-18 178 -54 230s-89.333 78 -160 78s-124 -26 -160 -78s-54 -128.667 -54 -230s18 -178 54 -230s89.333 -78 160 -78s124 26 160 78z" />
    <glyph glyph-name="Otilde" unicode="&#xd5;" horiz-adv-x="712" 
d="M380 800.5c-13.333 7 -28 16.833 -44 29.5c-12 9.33301 -21.667 16.166 -29 20.499s-15 6.5 -23 6.5c-23.333 0 -37.666 -21.667 -42.999 -65h-48c1.33301 38.667 10 69.167 26 91.5s38.333 33.5 67 33.5c17.333 0 32.666 -3.5 45.999 -10.5s28 -16.833 44 -29.5
c12 -9.33301 21.667 -16.166 29 -20.499s15 -6.5 23 -6.5c23.333 0 37.666 21.667 42.999 65h48c-1.33301 -38.667 -10 -69.167 -26 -91.5s-38.333 -33.5 -67 -33.5c-17.333 0 -32.666 3.5 -45.999 10.5zM139 82.5c-50 63.667 -75 156.834 -75 279.501
s25 215.834 75 279.501s122.333 95.5 217 95.5s167 -31.833 217 -95.5s75 -156.834 75 -279.501s-25 -215.834 -75 -279.501s-122.333 -95.5 -217 -95.5s-167 31.833 -217 95.5zM516 132c36 52 54 128.667 54 230s-18 178 -54 230s-89.333 78 -160 78s-124 -26 -160 -78
s-54 -128.667 -54 -230s18 -178 54 -230s89.333 -78 160 -78s124 26 160 78z" />
    <glyph glyph-name="Odieresis" unicode="&#xd6;" horiz-adv-x="712" 
d="M223 813.5c-8.66699 9 -13 21.5 -13 37.5s4.33301 28.667 13 38s20.667 14 36 14c16 0 28.333 -4.5 37 -13.5s13 -21.5 13 -37.5c0 -16.667 -4.33301 -29.5 -13 -38.5s-21 -13.5 -37 -13.5c-15.333 0 -27.333 4.5 -36 13.5zM416 813.5c-8.66699 9 -13 21.5 -13 37.5
s4.33301 28.667 13 38s20.667 14 36 14c16 0 28.333 -4.5 37 -13.5s13 -21.5 13 -37.5c0 -16.667 -4.33301 -29.5 -13 -38.5s-21 -13.5 -37 -13.5c-15.333 0 -27.333 4.5 -36 13.5zM139 82.5c-50 63.667 -75 156.834 -75 279.501s25 215.834 75 279.501
s122.333 95.5 217 95.5s167 -31.833 217 -95.5s75 -156.834 75 -279.501s-25 -215.834 -75 -279.501s-122.333 -95.5 -217 -95.5s-167 31.833 -217 95.5zM516 132c36 52 54 128.667 54 230s-18 178 -54 230s-89.333 78 -160 78s-124 -26 -160 -78s-54 -128.667 -54 -230
s18 -178 54 -230s89.333 -78 160 -78s124 26 160 78z" />
    <glyph glyph-name="multiply" unicode="&#xd7;" horiz-adv-x="571" 
d="M332 368l161 -169l-47 -48l-160 168l-161 -168l-47 48l161 169l-161 169l47 48l161 -168l160 168l47 -48z" />
    <glyph glyph-name="Oslash" unicode="&#xd8;" horiz-adv-x="712" 
d="M678 722l-86 -108c37.333 -62.667 56 -146.667 56 -252c0 -122.667 -25 -215.834 -75 -279.501s-122.333 -95.5 -217 -95.5c-83.333 0 -149.666 25 -198.999 75l-55 -72h-68v12l86 108c-37.333 62.667 -56 146.667 -56 252c0 122.667 25 215.834 75 279.501
s122.333 95.5 217 95.5c83.333 0 149.666 -25 198.999 -75l55 72h68v-12zM194.5 593.5c-36.333 -52.333 -54.501 -129.499 -54.501 -231.499c0 -80.667 9.66699 -144.334 29 -191.001l343 436c-35.333 43.333 -87.333 65 -156 65c-71.333 0 -125.166 -26.167 -161.499 -78.5
zM517.499 130.501c36.333 52.333 54.501 129.499 54.501 231.499c0 80.667 -9.66699 144.334 -29 191.001l-343 -436c35.333 -43.333 87.333 -65 156 -65c71.333 0 125.166 26.167 161.499 78.5z" />
    <glyph glyph-name="Ugrave" unicode="&#xd9;" horiz-adv-x="684" 
d="M164 914v12h95l144 -133v-12h-66zM158.5 58.5c-43.667 47.667 -65.5 113.834 -65.5 198.501v467h74v-467c0 -66.667 14.833 -117.167 44.5 -151.5s73.167 -51.5 130.5 -51.5s100.833 17.167 130.5 51.5s44.5 84.833 44.5 151.5v467h74v-467
c0 -84.667 -22 -150.834 -66 -198.501s-105.333 -71.5 -184 -71.5c-78 0 -138.833 23.833 -182.5 71.5z" />
    <glyph glyph-name="Uacute" unicode="&#xda;" horiz-adv-x="684" 
d="M280 793l153 133h95v-12l-182 -133h-66v12zM158.5 58.5c-43.667 47.667 -65.5 113.834 -65.5 198.501v467h74v-467c0 -66.667 14.833 -117.167 44.5 -151.5s73.167 -51.5 130.5 -51.5s100.833 17.167 130.5 51.5s44.5 84.833 44.5 151.5v467h74v-467
c0 -84.667 -22 -150.834 -66 -198.501s-105.333 -71.5 -184 -71.5c-78 0 -138.833 23.833 -182.5 71.5z" />
    <glyph glyph-name="Ucircumflex" unicode="&#xdb;" horiz-adv-x="684" 
d="M242 781h-58v12l117 133h82l117 -133v-12h-61l-98 94zM591 724v-467c0 -84.667 -22 -150.834 -66 -198.501s-105.333 -71.5 -184 -71.5c-78 0 -138.833 23.833 -182.5 71.5s-65.5 113.834 -65.5 198.501v467h74v-467c0 -66.667 14.833 -117.167 44.5 -151.5
s73.167 -51.5 130.5 -51.5s100.833 17.167 130.5 51.5s44.5 84.833 44.5 151.5v467h74z" />
    <glyph glyph-name="Udieresis" unicode="&#xdc;" horiz-adv-x="684" 
d="M209 813.5c-8.66699 9 -13 21.5 -13 37.5s4.33301 28.667 13 38s20.667 14 36 14c16 0 28.333 -4.5 37 -13.5s13 -21.5 13 -37.5c0 -16.667 -4.33301 -29.5 -13 -38.5s-21 -13.5 -37 -13.5c-15.333 0 -27.333 4.5 -36 13.5zM402 813.5c-8.66699 9 -13 21.5 -13 37.5
s4.33301 28.667 13 38s20.667 14 36 14c16 0 28.333 -4.5 37 -13.5s13 -21.5 13 -37.5c0 -16.667 -4.33301 -29.5 -13 -38.5s-21 -13.5 -37 -13.5c-15.333 0 -27.333 4.5 -36 13.5zM158.5 58.5c-43.667 47.667 -65.5 113.834 -65.5 198.501v467h74v-467
c0 -66.667 14.833 -117.167 44.5 -151.5s73.167 -51.5 130.5 -51.5s100.833 17.167 130.5 51.5s44.5 84.833 44.5 151.5v467h74v-467c0 -84.667 -22 -150.834 -66 -198.501s-105.333 -71.5 -184 -71.5c-78 0 -138.833 23.833 -182.5 71.5z" />
    <glyph glyph-name="Yacute" unicode="&#xdd;" horiz-adv-x="586" 
d="M296 781h-66v12l153 133h95v-12zM558 724l-229 -464v-260h-74v260l-227 464h83l183 -377l182 377h82z" />
    <glyph glyph-name="Thorn" unicode="&#xde;" horiz-adv-x="613" 
d="M505 537.5c39.333 -39.667 59 -95.167 59 -166.5c0 -72 -19.833 -128 -59.5 -168s-95.167 -60 -166.5 -60h-166v-143h-74v724h74v-127h168c70.667 0 125.667 -19.833 165 -59.5zM449 251c24.667 27.333 37 67.333 37 120c0 52 -12.5 91.5 -37.5 118.5
s-61.833 40.5 -110.5 40.5h-166v-320h168c48 0 84.333 13.667 109 41z" />
    <glyph glyph-name="germandbls" unicode="&#xdf;" horiz-adv-x="596" 
d="M497 340.5c34.667 -39 52.002 -89.165 52.002 -150.498c0 -62 -18 -110.333 -54 -145s-86 -52 -150 -52c-40 0 -77.333 5 -112 15l19 65c29.333 -10 60.333 -15 93 -15c43.333 0 76.166 11 98.499 33s33.5 54.667 33.5 98c0 54 -17.833 96 -53.5 126
s-88.167 47 -157.5 51v62c47.333 20.667 82.166 45.167 104.499 73.5s33.5 61.833 33.5 100.5c0 35.333 -9.16699 62.166 -27.5 80.499s-45.5 27.5 -81.5 27.5c-42.667 0 -74.834 -12.5 -96.501 -37.5s-32.5 -61.833 -32.5 -110.5v-562h-72v562
c0 67.333 17.667 119.666 53 156.999s84.333 56 147 56c56.667 0 100.834 -15.167 132.501 -45.5s47.5 -72.5 47.5 -126.5c0 -43.333 -10.333 -80.833 -31 -112.5s-51.334 -56.5 -92.001 -74.5c62.667 -11.333 111.334 -36.5 146.001 -75.5z" />
    <glyph glyph-name="agrave" unicode="&#xe0;" horiz-adv-x="528" 
d="M388.5 504c35 -28.667 52.501 -70.666 52.501 -125.999v-378h-67v65c-34.667 -50.667 -88.334 -76 -161.001 -76c-52.667 0 -93.834 14 -123.501 42s-44.5 67 -44.5 117c0 63.333 26.333 110.166 79 140.499s134.334 45.833 245.001 46.5v37
c0 34.667 -10.833 61.167 -32.5 79.5s-53.167 27.5 -94.5 27.5c-43.333 0 -85.333 -9.66699 -126 -29l-19 61c47.333 24 98.333 36 153 36c57.333 0 103.5 -14.333 138.5 -43zM306.001 71.001c22.667 10.667 43.665 27.001 62.998 49.001v155
c-86 -0.666992 -149.333 -10.834 -190 -30.501s-61 -50.167 -61 -91.5c0 -32 9.33301 -56.333 28 -73s46.334 -25 83.001 -25c28.667 0 54.334 5.33301 77.001 16zM125.999 774.002v10h85l95 -159v-10h-56z" />
    <glyph glyph-name="aacute" unicode="&#xe1;" horiz-adv-x="528" 
d="M388.5 504c35 -28.667 52.501 -70.666 52.501 -125.999v-378h-67v65c-34.667 -50.667 -88.334 -76 -161.001 -76c-52.667 0 -93.834 14 -123.501 42s-44.5 67 -44.5 117c0 63.333 26.333 110.166 79 140.499s134.334 45.833 245.001 46.5v37
c0 34.667 -10.833 61.167 -32.5 79.5s-53.167 27.5 -94.5 27.5c-43.333 0 -85.333 -9.66699 -126 -29l-19 61c47.333 24 98.333 36 153 36c57.333 0 103.5 -14.333 138.5 -43zM306.001 71.001c22.667 10.667 43.665 27.001 62.998 49.001v155
c-86 -0.666992 -149.333 -10.834 -190 -30.501s-61 -50.167 -61 -91.5c0 -32 9.33301 -56.333 28 -73s46.334 -25 83.001 -25c28.667 0 54.334 5.33301 77.001 16zM201.999 625.002l103 159h85v-10l-132 -159h-56v10z" />
    <glyph glyph-name="acircumflex" unicode="&#xe2;" horiz-adv-x="528" 
d="M388.5 504c35 -28.667 52.501 -70.666 52.501 -125.999v-378h-67v65c-34.667 -50.667 -88.334 -76 -161.001 -76c-52.667 0 -93.834 14 -123.501 42s-44.5 67 -44.5 117c0 63.333 26.333 110.166 79 140.499s134.334 45.833 245.001 46.5v37
c0 34.667 -10.833 61.167 -32.5 79.5s-53.167 27.5 -94.5 27.5c-43.333 0 -85.333 -9.66699 -126 -29l-19 61c47.333 24 98.333 36 153 36c57.333 0 103.5 -14.333 138.5 -43zM306.001 71.001c22.667 10.667 43.665 27.001 62.998 49.001v155
c-86 -0.666992 -149.333 -10.834 -190 -30.501s-61 -50.167 -61 -91.5c0 -32 9.33301 -56.333 28 -73s46.334 -25 83.001 -25c28.667 0 54.334 5.33301 77.001 16zM391.999 625.002v-10h-55l-87 113l-86 -113h-52v10l102 159h76z" />
    <glyph glyph-name="atilde" unicode="&#xe3;" horiz-adv-x="528" 
d="M388.5 504c35 -28.667 52.501 -70.666 52.501 -125.999v-378h-67v65c-34.667 -50.667 -88.334 -76 -161.001 -76c-52.667 0 -93.834 14 -123.501 42s-44.5 67 -44.5 117c0 63.333 26.333 110.166 79 140.499s134.334 45.833 245.001 46.5v37
c0 34.667 -10.833 61.167 -32.5 79.5s-53.167 27.5 -94.5 27.5c-43.333 0 -85.333 -9.66699 -126 -29l-19 61c47.333 24 98.333 36 153 36c57.333 0 103.5 -14.333 138.5 -43zM306.001 71.001c22.667 10.667 43.665 27.001 62.998 49.001v155
c-86 -0.666992 -149.333 -10.834 -190 -30.501s-61 -50.167 -61 -91.5c0 -32 9.33301 -56.333 28 -73s46.334 -25 83.001 -25c28.667 0 54.334 5.33301 77.001 16zM275.999 630.502c-13.333 7 -28 16.833 -44 29.5c-12 9.33301 -21.667 16.166 -29 20.499s-15 6.5 -23 6.5
c-23.333 0 -37.666 -21.667 -42.999 -65h-48c1.33301 38.667 10 69.167 26 91.5s38.333 33.5 67 33.5c17.333 0 32.666 -3.5 45.999 -10.5s28 -16.833 44 -29.5c12 -9.33301 21.667 -16.166 29 -20.499s15 -6.5 23 -6.5c23.333 0 37.666 21.667 42.999 65h48
c-1.33301 -38.667 -10 -69.167 -26 -91.5s-38.333 -33.5 -67 -33.5c-17.333 0 -32.666 3.5 -45.999 10.5z" />
    <glyph glyph-name="adieresis" unicode="&#xe4;" horiz-adv-x="528" 
d="M123 643.5c-8.66699 9 -13 21.5 -13 37.5s4.33301 28.667 13 38s20.667 14 36 14c16 0 28.333 -4.5 37 -13.5s13 -21.5 13 -37.5c0 -16.667 -4.33301 -29.5 -13 -38.5s-21 -13.5 -37 -13.5c-15.333 0 -27.333 4.5 -36 13.5zM308 643.5c-8.66699 9 -13 21.5 -13 37.5
s4.33301 28.667 13 38s20.667 14 36 14c16 0 28.333 -4.5 37 -13.5s13 -21.5 13 -37.5c0 -16.667 -4.33301 -29.5 -13 -38.5s-21 -13.5 -37 -13.5c-15.333 0 -27.333 4.5 -36 13.5zM388.5 504c35 -28.667 52.501 -70.666 52.501 -125.999v-378h-67v65
c-34.667 -50.667 -88.334 -76 -161.001 -76c-52.667 0 -93.834 14 -123.501 42s-44.5 67 -44.5 117c0 63.333 26.333 110.166 79 140.499s134.334 45.833 245.001 46.5v37c0 34.667 -10.833 61.167 -32.5 79.5s-53.167 27.5 -94.5 27.5c-43.333 0 -85.333 -9.66699 -126 -29
l-19 61c47.333 24 98.333 36 153 36c57.333 0 103.5 -14.333 138.5 -43zM306.001 71.001c22.667 10.667 43.665 27.001 62.998 49.001v155c-86 -0.666992 -149.333 -10.834 -190 -30.501s-61 -50.167 -61 -91.5c0 -32 9.33301 -56.333 28 -73s46.334 -25 83.001 -25
c28.667 0 54.334 5.33301 77.001 16z" />
    <glyph glyph-name="aring" unicode="&#xe5;" horiz-adv-x="528" 
d="M388.5 504c35 -28.667 52.501 -70.666 52.501 -125.999v-378h-67v65c-34.667 -50.667 -88.334 -76 -161.001 -76c-52.667 0 -93.834 14 -123.501 42s-44.5 67 -44.5 117c0 63.333 26.333 110.166 79 140.499s134.334 45.833 245.001 46.5v37
c0 34.667 -10.833 61.167 -32.5 79.5s-53.167 27.5 -94.5 27.5c-43.333 0 -85.333 -9.66699 -126 -29l-19 61c47.333 24 98.333 36 153 36c57.333 0 103.5 -14.333 138.5 -43zM306.001 71.001c22.667 10.667 43.665 27.001 62.998 49.001v155
c-86 -0.666992 -149.333 -10.834 -190 -30.501s-61 -50.167 -61 -91.5c0 -32 9.33301 -56.333 28 -73s46.334 -25 83.001 -25c28.667 0 54.334 5.33301 77.001 16zM167.499 632.002c-20.333 18.667 -30.5 44.667 -30.5 78s10.167 59.333 30.5 78s48.5 28 84.5 28
s64.167 -9.33301 84.5 -28s30.5 -44.667 30.5 -78s-10.167 -59.333 -30.5 -78s-48.5 -28 -84.5 -28s-64.167 9.33301 -84.5 28zM312.999 710.002c0 41.333 -20.333 62 -61 62s-61 -20.667 -61 -62s20.333 -62 61 -62s61 20.667 61 62z" />
    <glyph glyph-name="ae" unicode="&#xe6;" horiz-adv-x="828" 
d="M774 248h-346.004c2.66699 -63.333 17.834 -111.166 45.501 -143.499s66.834 -48.5 117.501 -48.5c46.667 0 91 14 133 42l27 -58c-20 -16.667 -44.5 -29.5 -73.5 -38.5s-59.167 -13.5 -90.5 -13.5c-41.333 0 -77.833 8.33301 -109.5 25s-57.5 41 -77.5 73
c-27.333 -33.333 -56.666 -57.833 -87.999 -73.5s-66 -23.5 -104 -23.5c-51.333 0 -91.333 14 -120 42s-43 67 -43 117c0 61.333 25.5 106.5 76.5 135.5s130.167 43.833 237.5 44.5v44c0 35.333 -10.333 62 -31 80s-51 27 -91 27c-42 0 -82.333 -9.66699 -121 -29l-19 61
c26 13.333 52 22.666 78 27.999s49.333 8 70 8c39.333 0 72.833 -7.66699 100.5 -23s47.834 -37.333 60.501 -66c16.667 28 39 49.833 67 65.5s60 23.5 96 23.5c65.333 0 116.333 -22.667 153 -68s55 -108.333 55 -189c0 -16.667 -1 -30.667 -3 -42zM471.496 438
c-23 -29.333 -36.833 -72.333 -41.5 -129h274c-0.666992 54.667 -13 97.167 -37 127.5s-57.333 45.5 -100 45.5c-40.667 0 -72.5 -14.667 -95.5 -44zM304.996 76c24.667 14 48 35.6689 70 65.002c-12 36 -18 78 -18 126v1c-81.333 -0.666992 -141.5 -10.334 -180.5 -29.001
s-58.5 -47.334 -58.5 -86.001c0 -32 9 -56.333 27 -73s44.333 -25 79 -25c29.333 0 56.333 7 81 21z" />
    <glyph glyph-name="ccedilla" unicode="&#xe7;" horiz-adv-x="479" 
d="M348 -81c18 -14 27.0029 -33.6689 27.0029 -59.002c0 -27.333 -10.167 -48.666 -30.5 -63.999s-48.5 -23 -84.5 -23c-36.667 0 -69.334 7.66699 -98.001 23l15 44c32 -12.667 59.667 -19 83 -19c36 0 54 13 54 39s-16.667 39 -50 39c-15.333 0 -30 -3 -44 -9l-21 24
l35 80c-57.333 11.333 -101.833 40.833 -133.5 88.5s-47.5 109.834 -47.5 186.501c0 55.333 9.66699 104 29 146s46.5 74.5 81.5 97.5s75.5 34.5 121.5 34.5c25.333 0 51.333 -3.83301 78 -11.5s51 -18.167 73 -31.5l-28 -59c-43.333 23.333 -85 35 -125 35
c-48.667 0 -86.667 -18 -114 -54s-41 -86.333 -41 -151c0 -72 14.167 -126.5 42.5 -163.5s70.166 -55.5 125.499 -55.5c41.333 0 81 11.333 119 34l27 -58c-18.667 -14 -41.334 -24.833 -68.001 -32.5s-54.667 -11.5 -84 -11.5h-5l-33 -50c9.33301 1.33301 16 2 20 2
c32.667 0 58 -7 76 -21z" />
    <glyph glyph-name="egrave" unicode="&#xe8;" horiz-adv-x="538" 
d="M484 248h-355.998c2.66699 -63.333 18.167 -111.166 46.5 -143.499s68.833 -48.5 121.5 -48.5c50 0 96 14 138 42l28 -58c-20.667 -16.667 -45.834 -29.5 -75.501 -38.5s-61.167 -13.5 -94.5 -13.5c-74.667 0 -132.834 24.667 -174.501 74s-62.5 117.666 -62.5 204.999
c0 88 19.333 156.667 58 206s92.334 74 161.001 74c67.333 0 119.666 -22.667 156.999 -68s56 -108.333 56 -189c0 -16 -1 -30 -3 -42zM172.502 438.5c-23.667 -29 -37.832 -72.167 -42.499 -129.5h284c-0.666992 54.667 -13.5 97.167 -38.5 127.5s-59.5 45.5 -103.5 45.5
c-42.667 0 -75.834 -14.5 -99.501 -43.5zM148.004 774v10h85l95 -159v-10h-56z" />
    <glyph glyph-name="eacute" unicode="&#xe9;" horiz-adv-x="538" 
d="M484 248h-355.998c2.66699 -63.333 18.167 -111.166 46.5 -143.499s68.833 -48.5 121.5 -48.5c50 0 96 14 138 42l28 -58c-20.667 -16.667 -45.834 -29.5 -75.501 -38.5s-61.167 -13.5 -94.5 -13.5c-74.667 0 -132.834 24.667 -174.501 74s-62.5 117.666 -62.5 204.999
c0 88 19.333 156.667 58 206s92.334 74 161.001 74c67.333 0 119.666 -22.667 156.999 -68s56 -108.333 56 -189c0 -16 -1 -30 -3 -42zM172.502 438.5c-23.667 -29 -37.832 -72.167 -42.499 -129.5h284c-0.666992 54.667 -13.5 97.167 -38.5 127.5s-59.5 45.5 -103.5 45.5
c-42.667 0 -75.834 -14.5 -99.501 -43.5zM224.004 625l103 159h85v-10l-132 -159h-56v10z" />
    <glyph glyph-name="ecircumflex" unicode="&#xea;" horiz-adv-x="538" 
d="M484 248h-355.998c2.66699 -63.333 18.167 -111.166 46.5 -143.499s68.833 -48.5 121.5 -48.5c50 0 96 14 138 42l28 -58c-20.667 -16.667 -45.834 -29.5 -75.501 -38.5s-61.167 -13.5 -94.5 -13.5c-74.667 0 -132.834 24.667 -174.501 74s-62.5 117.666 -62.5 204.999
c0 88 19.333 156.667 58 206s92.334 74 161.001 74c67.333 0 119.666 -22.667 156.999 -68s56 -108.333 56 -189c0 -16 -1 -30 -3 -42zM172.502 438.5c-23.667 -29 -37.832 -72.167 -42.499 -129.5h284c-0.666992 54.667 -13.5 97.167 -38.5 127.5s-59.5 45.5 -103.5 45.5
c-42.667 0 -75.834 -14.5 -99.501 -43.5zM414.004 625v-10h-55l-87 113l-86 -113h-52v10l102 159h76z" />
    <glyph glyph-name="edieresis" unicode="&#xeb;" horiz-adv-x="538" 
d="M145 643.5c-8.66699 9 -13 21.5 -13 37.5s4.33301 28.667 13 38s20.667 14 36 14c16 0 28.333 -4.5 37 -13.5s13 -21.5 13 -37.5c0 -16.667 -4.33301 -29.5 -13 -38.5s-21 -13.5 -37 -13.5c-15.333 0 -27.333 4.5 -36 13.5zM330 643.5c-8.66699 9 -13 21.5 -13 37.5
s4.33301 28.667 13 38s20.667 14 36 14c16 0 28.333 -4.5 37 -13.5s13 -21.5 13 -37.5c0 -16.667 -4.33301 -29.5 -13 -38.5s-21 -13.5 -37 -13.5c-15.333 0 -27.333 4.5 -36 13.5zM484 248h-355.998c2.66699 -63.333 18.167 -111.166 46.5 -143.499
s68.833 -48.5 121.5 -48.5c50 0 96 14 138 42l28 -58c-20.667 -16.667 -45.834 -29.5 -75.501 -38.5s-61.167 -13.5 -94.5 -13.5c-74.667 0 -132.834 24.667 -174.501 74s-62.5 117.666 -62.5 204.999c0 88 19.333 156.667 58 206s92.334 74 161.001 74
c67.333 0 119.666 -22.667 156.999 -68s56 -108.333 56 -189c0 -16 -1 -30 -3 -42zM172.502 438.5c-23.667 -29 -37.832 -72.167 -42.499 -129.5h284c-0.666992 54.667 -13.5 97.167 -38.5 127.5s-59.5 45.5 -103.5 45.5c-42.667 0 -75.834 -14.5 -99.501 -43.5z" />
    <glyph glyph-name="igrave" unicode="&#xec;" horiz-adv-x="264" 
d="M96 534h72v-534h-72v534zM6 774v10h85l95 -159v-10h-56z" />
    <glyph glyph-name="iacute" unicode="&#xed;" horiz-adv-x="264" 
d="M96 534h72v-534h-72v534zM82 625l103 159h85v-10l-132 -159h-56v10z" />
    <glyph glyph-name="icircumflex" unicode="&#xee;" horiz-adv-x="264" 
d="M96 534h72v-534h-72v534zM272 625v-10h-55l-87 113l-86 -113h-52v10l102 159h76z" />
    <glyph glyph-name="idieresis" unicode="&#xef;" horiz-adv-x="264" 
d="M15 643.5c-8.66699 9 -13 21.499 -13 37.499s4.33301 28.667 13 38s20.667 14 36 14s27.333 -4.66699 36 -14s13 -21.666 13 -36.999c0 -16.667 -4.33301 -29.5 -13 -38.5s-20.667 -13.5 -36 -13.5s-27.333 4.5 -36 13.5zM177 643.499c-8.66699 9 -13 21.499 -13 37.499
s4.33301 28.667 13 38s20.667 14 36 14s27.333 -4.66699 36 -14s13 -21.666 13 -36.999c0 -16.667 -4.33301 -29.5 -13 -38.5s-20.667 -13.5 -36 -13.5s-27.333 4.5 -36 13.5zM96 533.998h72v-534h-72v534z" />
    <glyph glyph-name="eth" unicode="&#xf0;" horiz-adv-x="555" 
d="M458.5 517c26.333 -64.667 39.498 -141.669 39.498 -231.002c0 -98 -19.167 -172.333 -57.5 -223s-93.5 -76 -165.5 -76s-127.167 23 -165.5 69s-57.5 113.333 -57.5 202c0 88 18.5 154.833 55.5 200.5s89.833 68.5 158.5 68.5c32.667 0 61.834 -7.5 87.501 -22.5
s45.834 -36.167 60.501 -63.5c-22.667 84.667 -67 153.334 -133 206.001l-121 -77l-27 44l106 62c-27.333 16.667 -56.333 30.334 -87 41.001l-28 10l19 53l28 -10c48.667 -18 89.667 -37.667 123 -59l99 62l27 -44l-83 -49c54.667 -44 95.167 -98.333 121.5 -163z
M385.998 104.498c25.333 35 38 86.167 38 153.5c0 64.667 -13.167 115.167 -39.5 151.5s-62.833 54.5 -109.5 54.5c-48.667 0 -85.5 -17.5 -110.5 -52.5s-37.5 -86.167 -37.5 -153.5s12.5 -118.5 37.5 -153.5s61.833 -52.5 110.5 -52.5s85.667 17.5 111 52.5z" />
    <glyph glyph-name="ntilde" unicode="&#xf1;" horiz-adv-x="580" 
d="M447 502c29.333 -30 44 -71.333 44 -124v-378h-72v373c0 34 -9.66699 59.833 -29 77.5s-47.333 26.5 -84 26.5c-26.667 0 -51.334 -4.16699 -74.001 -12.5s-44.667 -21.833 -66 -40.5v-424h-72v534h67v-57c44.667 46.667 99.334 70 164.001 70c52 0 92.667 -15 122 -45z
M317 630.5c-13.333 7 -28 16.833 -44 29.5c-12 9.33301 -21.667 16.166 -29 20.499s-15 6.5 -23 6.5c-23.333 0 -37.666 -21.667 -42.999 -65h-48c1.33301 38.667 10 69.167 26 91.5s38.333 33.5 67 33.5c17.333 0 32.666 -3.5 45.999 -10.5s28 -16.833 44 -29.5
c12 -9.33301 21.667 -16.166 29 -20.499s15 -6.5 23 -6.5c23.333 0 37.666 21.667 42.999 65h48c-1.33301 -38.667 -10 -69.167 -26 -91.5s-38.333 -33.5 -67 -33.5c-17.333 0 -32.666 3.5 -45.999 10.5z" />
    <glyph glyph-name="ograve" unicode="&#xf2;" horiz-adv-x="555" 
d="M114 58.5c-38 47.667 -57 117.167 -57 208.5s19 160.833 57 208.5s92.667 71.5 164 71.5c70.667 0 125 -23.833 163 -71.5s57 -117.167 57 -208.5s-19 -160.833 -57 -208.5s-92.667 -71.5 -164 -71.5c-70.667 0 -125 23.833 -163 71.5zM386 106.5
c24.667 36.333 37 89.833 37 160.5s-12.333 124.167 -37 160.5s-60.667 54.5 -108 54.5c-48 0 -84.333 -18.167 -109 -54.5s-37 -89.833 -37 -160.5s12.333 -124.167 37 -160.5s60.667 -54.5 108 -54.5c48 0 84.333 18.167 109 54.5zM152 774v10h85l95 -159v-10h-56z" />
    <glyph glyph-name="oacute" unicode="&#xf3;" horiz-adv-x="555" 
d="M114 58.5c-38 47.667 -57 117.167 -57 208.5s19 160.833 57 208.5s92.667 71.5 164 71.5c70.667 0 125 -23.833 163 -71.5s57 -117.167 57 -208.5s-19 -160.833 -57 -208.5s-92.667 -71.5 -164 -71.5c-70.667 0 -125 23.833 -163 71.5zM386 106.5
c24.667 36.333 37 89.833 37 160.5s-12.333 124.167 -37 160.5s-60.667 54.5 -108 54.5c-48 0 -84.333 -18.167 -109 -54.5s-37 -89.833 -37 -160.5s12.333 -124.167 37 -160.5s60.667 -54.5 108 -54.5c48 0 84.333 18.167 109 54.5zM228 625l103 159h85v-10l-132 -159h-56
v10z" />
    <glyph glyph-name="ocircumflex" unicode="&#xf4;" horiz-adv-x="555" 
d="M114 58.5c-38 47.667 -57 117.167 -57 208.5s19 160.833 57 208.5s92.667 71.5 164 71.5c70.667 0 125 -23.833 163 -71.5s57 -117.167 57 -208.5s-19 -160.833 -57 -208.5s-92.667 -71.5 -164 -71.5c-70.667 0 -125 23.833 -163 71.5zM386 106.5
c24.667 36.333 37 89.833 37 160.5s-12.333 124.167 -37 160.5s-60.667 54.5 -108 54.5c-48 0 -84.333 -18.167 -109 -54.5s-37 -89.833 -37 -160.5s12.333 -124.167 37 -160.5s60.667 -54.5 108 -54.5c48 0 84.333 18.167 109 54.5zM418 625v-10h-55l-87 113l-86 -113h-52
v10l102 159h76z" />
    <glyph glyph-name="otilde" unicode="&#xf5;" horiz-adv-x="555" 
d="M114 58.5c-38 47.667 -57 117.167 -57 208.5s19 160.833 57 208.5s92.667 71.5 164 71.5c70.667 0 125 -23.833 163 -71.5s57 -117.167 57 -208.5s-19 -160.833 -57 -208.5s-92.667 -71.5 -164 -71.5c-70.667 0 -125 23.833 -163 71.5zM386 106.5
c24.667 36.333 37 89.833 37 160.5s-12.333 124.167 -37 160.5s-60.667 54.5 -108 54.5c-48 0 -84.333 -18.167 -109 -54.5s-37 -89.833 -37 -160.5s12.333 -124.167 37 -160.5s60.667 -54.5 108 -54.5c48 0 84.333 18.167 109 54.5zM302 630.5
c-13.333 7 -28 16.833 -44 29.5c-12 9.33301 -21.667 16.166 -29 20.499s-15 6.5 -23 6.5c-23.333 0 -37.666 -21.667 -42.999 -65h-48c1.33301 38.667 10 69.167 26 91.5s38.333 33.5 67 33.5c17.333 0 32.666 -3.5 45.999 -10.5s28 -16.833 44 -29.5
c12 -9.33301 21.667 -16.166 29 -20.499s15 -6.5 23 -6.5c23.333 0 37.666 21.667 42.999 65h48c-1.33301 -38.667 -10 -69.167 -26 -91.5s-38.333 -33.5 -67 -33.5c-17.333 0 -32.666 3.5 -45.999 10.5z" />
    <glyph glyph-name="odieresis" unicode="&#xf6;" horiz-adv-x="555" 
d="M149 643.5c-8.66699 9 -13 21.5 -13 37.5s4.33301 28.667 13 38s20.667 14 36 14c16 0 28.333 -4.5 37 -13.5s13 -21.5 13 -37.5c0 -16.667 -4.33301 -29.5 -13 -38.5s-21 -13.5 -37 -13.5c-15.333 0 -27.333 4.5 -36 13.5zM334 643.5c-8.66699 9 -13 21.5 -13 37.5
s4.33301 28.667 13 38s20.667 14 36 14c16 0 28.333 -4.5 37 -13.5s13 -21.5 13 -37.5c0 -16.667 -4.33301 -29.5 -13 -38.5s-21 -13.5 -37 -13.5c-15.333 0 -27.333 4.5 -36 13.5zM114 58.5c-38 47.667 -57 117.167 -57 208.5s19 160.833 57 208.5s92.667 71.5 164 71.5
c70.667 0 125 -23.833 163 -71.5s57 -117.167 57 -208.5s-19 -160.833 -57 -208.5s-92.667 -71.5 -164 -71.5c-70.667 0 -125 23.833 -163 71.5zM386 106.5c24.667 36.333 37 89.833 37 160.5s-12.333 124.167 -37 160.5s-60.667 54.5 -108 54.5
c-48 0 -84.333 -18.167 -109 -54.5s-37 -89.833 -37 -160.5s12.333 -124.167 37 -160.5s60.667 -54.5 108 -54.5c48 0 84.333 18.167 109 54.5z" />
    <glyph glyph-name="divide" unicode="&#xf7;" horiz-adv-x="571" 
d="M248.5 508.5c-9.66699 9.66699 -14.5 22.5 -14.5 38.5s4.83301 28.833 14.5 38.5s22.167 14.5 37.5 14.5s27.833 -4.83301 37.5 -14.5s14.5 -22.5 14.5 -38.5s-4.83301 -28.833 -14.5 -38.5s-22.167 -14.5 -37.5 -14.5s-27.833 4.83301 -37.5 14.5zM72 403h427v-69h-427
v69zM248.5 150.5c-9.66699 9.66699 -14.5 22.5 -14.5 38.5s4.83301 28.833 14.5 38.5s22.167 14.5 37.5 14.5s27.833 -4.83301 37.5 -14.5s14.5 -22.5 14.5 -38.5s-4.83301 -28.833 -14.5 -38.5s-22.167 -14.5 -37.5 -14.5s-27.833 4.83301 -37.5 14.5z" />
    <glyph glyph-name="oslash" unicode="&#xf8;" horiz-adv-x="555" 
d="M528 534l-70 -86c26.667 -46 40 -106.333 40 -181c0 -91.333 -19 -160.833 -57 -208.5s-92.333 -71.5 -163 -71.5c-60 0 -108.667 18 -146 54l-40 -51h-65v10l70 86c-26.667 46 -40 106 -40 180c0 92 19 161.833 57 209.5s92.667 71.5 164 71.5c60.667 0 109 -18 145 -54
l40 51h65v-10zM167.5 429c-25 -36.667 -37.5 -90.667 -37.5 -162c0 -48.667 5 -89 15 -121l237 295c-24 28.667 -58.667 43 -104 43c-48.667 0 -85.5 -18.333 -110.5 -55zM387.5 105c25 36.667 37.5 90.667 37.5 162c0 48.667 -5 89 -15 121l-237 -295
c24 -28.667 58.667 -43 104 -43c48.667 0 85.5 18.333 110.5 55z" />
    <glyph glyph-name="ugrave" unicode="&#xf9;" horiz-adv-x="572" 
d="M478 534v-534h-67v64c-39.333 -51.333 -93 -77 -161 -77c-51.333 0 -91.333 15 -120 45s-43 71.333 -43 124v378h72v-373c0 -34 9.33301 -59.833 28 -77.5s46 -26.5 82 -26.5c28 0 53 5 75 15s42.667 26 62 48v414h72zM157 774v10h85l95 -159v-10h-56z" />
    <glyph glyph-name="uacute" unicode="&#xfa;" horiz-adv-x="572" 
d="M478 534v-534h-67v64c-39.333 -51.333 -93 -77 -161 -77c-51.333 0 -91.333 15 -120 45s-43 71.333 -43 124v378h72v-373c0 -34 9.33301 -59.833 28 -77.5s46 -26.5 82 -26.5c28 0 53 5 75 15s42.667 26 62 48v414h72zM233 625l103 159h85v-10l-132 -159h-56v10z" />
    <glyph glyph-name="ucircumflex" unicode="&#xfb;" horiz-adv-x="572" 
d="M478 534v-534h-67v64c-39.333 -51.333 -93 -77 -161 -77c-51.333 0 -91.333 15 -120 45s-43 71.333 -43 124v378h72v-373c0 -34 9.33301 -59.833 28 -77.5s46 -26.5 82 -26.5c28 0 53 5 75 15s42.667 26 62 48v414h72zM423 625v-10h-55l-87 113l-86 -113h-52v10l102 159
h76z" />
    <glyph glyph-name="udieresis" unicode="&#xfc;" horiz-adv-x="572" 
d="M154 643.5c-8.66699 9 -13 21.5 -13 37.5s4.33301 28.667 13 38s20.667 14 36 14c16 0 28.333 -4.5 37 -13.5s13 -21.5 13 -37.5c0 -16.667 -4.33301 -29.5 -13 -38.5s-21 -13.5 -37 -13.5c-15.333 0 -27.333 4.5 -36 13.5zM339 643.5c-8.66699 9 -13 21.5 -13 37.5
s4.33301 28.667 13 38s20.667 14 36 14c16 0 28.333 -4.5 37 -13.5s13 -21.5 13 -37.5c0 -16.667 -4.33301 -29.5 -13 -38.5s-21 -13.5 -37 -13.5c-15.333 0 -27.333 4.5 -36 13.5zM478 534v-534h-67v64c-39.333 -51.333 -93 -77 -161 -77c-51.333 0 -91.333 15 -120 45
s-43 71.333 -43 124v378h72v-373c0 -34 9.33301 -59.833 28 -77.5s46 -26.5 82 -26.5c28 0 53 5 75 15s42.667 26 62 48v414h72z" />
    <glyph glyph-name="yacute" unicode="&#xfd;" horiz-adv-x="515" 
d="M483 534l-190 -542c-17.333 -48 -45.5 -89.833 -84.5 -125.5s-88.167 -64.167 -147.5 -85.5l-26 64c48 16.667 87 37.167 117 61.5s53.333 53.833 70 88.5l-190 539h79l148 -447l146 447h78zM209 625l103 159h85v-10l-132 -159h-56v10z" />
    <glyph glyph-name="thorn" unicode="&#xfe;" horiz-adv-x="574" 
d="M464 472c35.333 -50 53.002 -119.666 53.002 -208.999c0 -86.667 -18.833 -154.334 -56.5 -203.001s-89.834 -73 -156.501 -73c-27.333 0 -52.833 5.33301 -76.5 16s-44.167 25.667 -61.5 45v-255h-72v700v277h72v-297c36 49.333 86 74 150 74
c63.333 0 112.666 -25 147.999 -75zM407.002 106.001c23.333 35.333 34.999 87.667 34.999 157c0 70.667 -12.167 124 -36.5 160s-60.166 54 -107.499 54c-26 0 -49.667 -5.16699 -71 -15.5s-41.666 -26.833 -60.999 -49.5v-297c17.333 -19.333 38 -34.5 62 -45.5
s49.333 -16.5 76 -16.5c45.333 0 79.666 17.667 102.999 53z" />
    <glyph glyph-name="ydieresis" unicode="&#xff;" horiz-adv-x="515" 
d="M130 643.5c-8.66699 9 -13 21.5 -13 37.5s4.33301 28.667 13 38s20.667 14 36 14c16 0 28.333 -4.5 37 -13.5s13 -21.5 13 -37.5c0 -16.667 -4.33301 -29.5 -13 -38.5s-21 -13.5 -37 -13.5c-15.333 0 -27.333 4.5 -36 13.5zM315 643.5c-8.66699 9 -13 21.5 -13 37.5
s4.33301 28.667 13 38s20.667 14 36 14c16 0 28.333 -4.5 37 -13.5s13 -21.5 13 -37.5c0 -16.667 -4.33301 -29.5 -13 -38.5s-21 -13.5 -37 -13.5c-15.333 0 -27.333 4.5 -36 13.5zM483 534l-190 -542c-17.333 -48 -45.5 -89.833 -84.5 -125.5s-88.167 -64.167 -147.5 -85.5
l-26 64c48 16.667 87 37.167 117 61.5s53.333 53.833 70 88.5l-190 539h79l148 -447l146 447h78z" />
    <glyph glyph-name="Amacron" unicode="&#x100;" horiz-adv-x="666" 
d="M475 811h-284v58h284v-58zM485 198h-305l-68 -198h-80l259 724h84l259 -724h-81zM462 264l-130 378l-130 -378h260z" />
    <glyph glyph-name="amacron" unicode="&#x101;" horiz-adv-x="528" 
d="M388.5 504c35 -28.667 52.501 -70.666 52.501 -125.999v-378h-67v65c-34.667 -50.667 -88.334 -76 -161.001 -76c-52.667 0 -93.834 14 -123.501 42s-44.5 67 -44.5 117c0 63.333 26.333 110.166 79 140.499s134.334 45.833 245.001 46.5v37
c0 34.667 -10.833 61.167 -32.5 79.5s-53.167 27.5 -94.5 27.5c-43.333 0 -85.333 -9.66699 -126 -29l-19 61c47.333 24 98.333 36 153 36c57.333 0 103.5 -14.333 138.5 -43zM306.001 71.001c22.667 10.667 43.665 27.001 62.998 49.001v155
c-86 -0.666992 -149.333 -10.834 -190 -30.501s-61 -50.167 -61 -91.5c0 -32 9.33301 -56.333 28 -73s46.334 -25 83.001 -25c28.667 0 54.334 5.33301 77.001 16zM109.999 699.002h284v-58h-284v58z" />
    <glyph glyph-name="Abreve" unicode="&#x102;" horiz-adv-x="666" 
d="M233 823.5c-24.667 25.667 -38 61.167 -40 106.5h51c8 -55.333 38 -83 90 -83c52.667 0 83 27.667 91 83h48c-2 -45.333 -15.333 -80.833 -40 -106.5s-58 -38.5 -100 -38.5s-75.333 12.833 -100 38.5zM485 198h-305l-68 -198h-80l259 724h84l259 -724h-81zM462 264
l-130 378l-130 -378h260z" />
    <glyph glyph-name="abreve" unicode="&#x103;" horiz-adv-x="528" 
d="M388.5 504c35 -28.667 52.501 -70.666 52.501 -125.999v-378h-67v65c-34.667 -50.667 -88.334 -76 -161.001 -76c-52.667 0 -93.834 14 -123.501 42s-44.5 67 -44.5 117c0 63.333 26.333 110.166 79 140.499s134.334 45.833 245.001 46.5v37
c0 34.667 -10.833 61.167 -32.5 79.5s-53.167 27.5 -94.5 27.5c-43.333 0 -85.333 -9.66699 -126 -29l-19 61c47.333 24 98.333 36 153 36c57.333 0 103.5 -14.333 138.5 -43zM306.001 71.001c22.667 10.667 43.665 27.001 62.998 49.001v155
c-86 -0.666992 -149.333 -10.834 -190 -30.501s-61 -50.167 -61 -91.5c0 -32 9.33301 -56.333 28 -73s46.334 -25 83.001 -25c28.667 0 54.334 5.33301 77.001 16zM151.999 653.502c-24.667 25.667 -38 61.167 -40 106.5h51c8 -55.333 38 -83 90 -83
c52.667 0 83 27.667 91 83h48c-2 -45.333 -15.333 -80.833 -40 -106.5s-58 -38.5 -100 -38.5s-75.333 12.833 -100 38.5z" />
    <glyph glyph-name="Aogonek" unicode="&#x104;" horiz-adv-x="666" 
d="M680 -188c-13.333 -9.33301 -28.6689 -16.502 -46.002 -21.502s-35.333 -7.5 -54 -7.5c-31.333 0 -56 7.83301 -74 23.5s-27 37.5 -27 65.5c0 24.667 7.33301 48.334 22 71.001s35.334 41.667 62.001 57h-10l-68 198h-305l-68 -198h-80l259 724h84l259 -724
c-29.333 -16.667 -51.666 -34.667 -66.999 -54s-23 -39.666 -23 -60.999c0 -29.333 16 -44 48 -44c22 0 44.333 6 67 18zM461.997 263.998l-130 378l-130 -378h260z" />
    <glyph glyph-name="aogonek" unicode="&#x105;" horiz-adv-x="528" 
d="M487 -188c-13.333 -9.33301 -28.667 -16.499 -46 -21.499s-35.333 -7.5 -54 -7.5c-31.333 0 -56 7.83301 -74 23.5s-27 37.5 -27 65.5c0 25.333 7.83301 49.5 23.5 72.5s37.5 42.5 65.5 58.5v64c-20.667 -26.667 -44.334 -46.334 -71.001 -59.001s-57 -19 -91 -19
c-52.667 0 -93.834 14 -123.501 42s-44.5 67 -44.5 117c0 63.333 26.333 110.166 79 140.499s134.334 45.833 245.001 46.5v37c0 34.667 -10.833 61.167 -32.5 79.5s-53.167 27.5 -94.5 27.5c-43.333 0 -85.333 -9.66699 -126 -29l-19 61c47.333 24 98.333 36 153 36
c57.333 0 103.5 -14.333 138.5 -43s52.5 -70.667 52.5 -126v-378c-29.333 -16.667 -51.666 -34.667 -66.999 -54s-23 -39.666 -23 -60.999c0 -29.333 16 -44 48 -44c22 0 44.333 6 67 18zM305.999 71.001c22.667 10.667 43.665 27.001 62.998 49.001v155
c-86 -0.666992 -149.333 -10.834 -190 -30.501s-61 -50.167 -61 -91.5c0 -32 9.33301 -56.333 28 -73s46.334 -25 83.001 -25c28.667 0 54.334 5.33301 77.001 16z" />
    <glyph glyph-name="Cacute" unicode="&#x106;" horiz-adv-x="599" 
d="M289 793l153 133h95v-12l-182 -133h-66v12zM201.5 31c-47.667 28.667 -84.166 70 -109.499 124s-38 118.333 -38 193c0 77.333 13 145.5 39 204.5s62.667 104.5 110 136.5s102.333 48 165 48c32 0 63.833 -4 95.5 -12s60.834 -19.667 87.501 -35l-28 -61
c-54.667 26 -107 39 -157 39c-73.333 0 -130.666 -27.5 -171.999 -82.5s-62 -131.833 -62 -230.5c0 -97.333 20.833 -171.166 62.5 -221.499s103.167 -75.5 184.5 -75.5c59.333 0 109.333 11.667 150 35l28 -60c-20.667 -14.667 -47.334 -25.834 -80.001 -33.501
s-67.334 -11.5 -104.001 -11.5c-66.667 0 -123.834 14.333 -171.501 43z" />
    <glyph glyph-name="cacute" unicode="&#x107;" horiz-adv-x="479" 
d="M115.5 62c-41.667 49.333 -62.4971 118.333 -62.4971 207c0 55.333 9.66699 104 29 146s46.5 74.5 81.5 97.5s75.5 34.5 121.5 34.5c25.333 0 51.333 -3.83301 78 -11.5s51 -18.167 73 -31.5l-28 -59c-43.333 23.333 -85 35 -125 35c-48.667 0 -86.667 -18 -114 -54
s-41 -86.333 -41 -151c0 -72 14.167 -126.5 42.5 -163.5s70.166 -55.5 125.499 -55.5c41.333 0 81 11.333 119 34l27 -58c-18.667 -14 -41.334 -24.833 -68.001 -32.5s-54.667 -11.5 -84 -11.5c-74.667 0 -132.834 24.667 -174.501 74zM214.003 625l103 159h85v-10
l-132 -159h-56v10z" />
    <glyph glyph-name="Ccircumflex" unicode="&#x108;" horiz-adv-x="599" 
d="M251 781h-58v12l117 133h82l117 -133v-12h-61l-98 94zM557 33c-20.667 -14.667 -47.333 -25.834 -80 -33.501s-67.334 -11.5 -104.001 -11.5c-66.667 0 -123.834 14.333 -171.501 43s-84.167 70 -109.5 124s-38 118.333 -38 193c0 77.333 13 145.5 39 204.5
s62.667 104.5 110 136.5s102.333 48 165 48c32 0 63.833 -4 95.5 -12s60.834 -19.667 87.501 -35l-28 -61c-54.667 26 -107 39 -157 39c-73.333 0 -130.666 -27.5 -171.999 -82.5s-62 -131.833 -62 -230.5c0 -97.333 20.833 -171.166 62.5 -221.499
s103.167 -75.5 184.5 -75.5c59.333 0 109.333 11.667 150 35z" />
    <glyph glyph-name="ccircumflex" unicode="&#x109;" horiz-adv-x="479" 
d="M115.5 62c-41.667 49.333 -62.4971 118.333 -62.4971 207c0 55.333 9.66699 104 29 146s46.5 74.5 81.5 97.5s75.5 34.5 121.5 34.5c25.333 0 51.333 -3.83301 78 -11.5s51 -18.167 73 -31.5l-28 -59c-43.333 23.333 -85 35 -125 35c-48.667 0 -86.667 -18 -114 -54
s-41 -86.333 -41 -151c0 -72 14.167 -126.5 42.5 -163.5s70.166 -55.5 125.499 -55.5c41.333 0 81 11.333 119 34l27 -58c-18.667 -14 -41.334 -24.833 -68.001 -32.5s-54.667 -11.5 -84 -11.5c-74.667 0 -132.834 24.667 -174.501 74zM404.003 625v-10h-55l-87 113
l-86 -113h-52v10l102 159h76z" />
    <glyph glyph-name="Cdotaccent" unicode="&#x10a;" horiz-adv-x="599" 
d="M312.5 814c-9 9.33301 -13.5 22.333 -13.5 39c0 17.333 4.5 30.666 13.5 39.999s21.833 14 38.5 14s29.5 -4.66699 38.5 -14s13.5 -22.333 13.5 -39c0 -17.333 -4.5 -30.666 -13.5 -39.999s-21.833 -14 -38.5 -14s-29.5 4.66699 -38.5 14zM201.5 31
c-47.667 28.667 -84.166 70 -109.499 124s-38 118.333 -38 193c0 77.333 13 145.5 39 204.5s62.667 104.5 110 136.5s102.333 48 165 48c32 0 63.833 -4 95.5 -12s60.834 -19.667 87.501 -35l-28 -61c-54.667 26 -107 39 -157 39c-73.333 0 -130.666 -27.5 -171.999 -82.5
s-62 -131.833 -62 -230.5c0 -97.333 20.833 -171.166 62.5 -221.499s103.167 -75.5 184.5 -75.5c59.333 0 109.333 11.667 150 35l28 -60c-20.667 -14.667 -47.334 -25.834 -80.001 -33.501s-67.334 -11.5 -104.001 -11.5c-66.667 0 -123.834 14.333 -171.501 43z" />
    <glyph glyph-name="cdotaccent" unicode="&#x10b;" horiz-adv-x="479" 
d="M115.5 62c-41.667 49.333 -62.4971 118.333 -62.4971 207c0 55.333 9.66699 104 29 146s46.5 74.5 81.5 97.5s75.5 34.5 121.5 34.5c25.333 0 51.333 -3.83301 78 -11.5s51 -18.167 73 -31.5l-28 -59c-43.333 23.333 -85 35 -125 35c-48.667 0 -86.667 -18 -114 -54
s-41 -86.333 -41 -151c0 -72 14.167 -126.5 42.5 -163.5s70.166 -55.5 125.499 -55.5c41.333 0 81 11.333 119 34l27 -58c-18.667 -14 -41.334 -24.833 -68.001 -32.5s-54.667 -11.5 -84 -11.5c-74.667 0 -132.834 24.667 -174.501 74zM225.503 644
c-9 9.33301 -13.5 22.333 -13.5 39c0 17.333 4.5 30.666 13.5 39.999s21.833 14 38.5 14s29.5 -4.66699 38.5 -14s13.5 -22.333 13.5 -39c0 -17.333 -4.5 -30.666 -13.5 -39.999s-21.833 -14 -38.5 -14s-29.5 4.66699 -38.5 14z" />
    <glyph glyph-name="Ccaron" unicode="&#x10c;" horiz-adv-x="599" 
d="M310 781l-117 133v12h61l99 -94l98 94h58v-12l-117 -133h-82zM557 33c-20.667 -14.667 -47.333 -25.834 -80 -33.501s-67.334 -11.5 -104.001 -11.5c-66.667 0 -123.834 14.333 -171.501 43s-84.167 70 -109.5 124s-38 118.333 -38 193c0 77.333 13 145.5 39 204.5
s62.667 104.5 110 136.5s102.333 48 165 48c32 0 63.833 -4 95.5 -12s60.834 -19.667 87.501 -35l-28 -61c-54.667 26 -107 39 -157 39c-73.333 0 -130.666 -27.5 -171.999 -82.5s-62 -131.833 -62 -230.5c0 -97.333 20.833 -171.166 62.5 -221.499
s103.167 -75.5 184.5 -75.5c59.333 0 109.333 11.667 150 35z" />
    <glyph glyph-name="ccaron" unicode="&#x10d;" horiz-adv-x="479" 
d="M115.5 62c-41.667 49.333 -62.4971 118.333 -62.4971 207c0 55.333 9.66699 104 29 146s46.5 74.5 81.5 97.5s75.5 34.5 121.5 34.5c25.333 0 51.333 -3.83301 78 -11.5s51 -18.167 73 -31.5l-28 -59c-43.333 23.333 -85 35 -125 35c-48.667 0 -86.667 -18 -114 -54
s-41 -86.333 -41 -151c0 -72 14.167 -126.5 42.5 -163.5s70.166 -55.5 125.499 -55.5c41.333 0 81 11.333 119 34l27 -58c-18.667 -14 -41.334 -24.833 -68.001 -32.5s-54.667 -11.5 -84 -11.5c-74.667 0 -132.834 24.667 -174.501 74zM404.003 784v-10l-102 -159h-76
l-102 159v10h55l86 -113l87 113h52z" />
    <glyph glyph-name="Dcaron" unicode="&#x10e;" horiz-adv-x="689" 
d="M297 781l-117 133v12h61l99 -94l98 94h58v-12l-117 -133h-82zM539 632c57.333 -61.333 86 -151.333 86 -270s-29 -208.667 -87 -270s-141.667 -92 -251 -92h-189v724h193c108 0 190.667 -30.667 248 -92zM482 142c43.333 50 65 123.333 65 220
c0 97.333 -22 170.833 -66 220.5s-108.667 74.5 -194 74.5h-115v-590h119c84 0 147.667 25 191 75z" />
    <glyph glyph-name="dcaron" unicode="&#x10f;" horiz-adv-x="574" 
d="M408 770h71.998v-729v-41h-67v68c-18 -26.667 -40.167 -46.834 -66.5 -60.501s-55.833 -20.5 -88.5 -20.5c-63.333 0 -112.666 25 -147.999 75s-53 119.667 -53 209c0 86.667 18.833 154.334 56.5 203.001s89.834 73 156.501 73c27.333 0 52.833 -5.33301 76.5 -16
s44.167 -25.667 61.5 -45v284zM629.998 770v-10l-27 -200h-45v210h72zM346.998 72.5c21.333 10.333 41.667 26.832 61 49.499v297c-17.333 19.333 -38 34.5 -62 45.5s-49.333 16.5 -76 16.5c-45.333 0 -79.666 -17.667 -102.999 -53s-35 -87.666 -35 -156.999
c0 -70.667 12.167 -124 36.5 -160s60.166 -54 107.499 -54c26 0 49.667 5.16699 71 15.5z" />
    <glyph glyph-name="Dcroat" unicode="&#x110;" horiz-adv-x="688" 
d="M538 632c57.333 -61.333 86 -151.333 86 -270s-29 -208.667 -87 -270s-141.667 -92 -251 -92h-189v334h-68v65h68v325h193c108 0 190.667 -30.667 248 -92zM481 142c43.333 50 65 123.333 65 220c0 97.333 -22 170.833 -66 220.5s-108.667 74.5 -194 74.5h-115v-258h191
v-65h-191v-267h119c84 0 147.667 25 191 75z" />
    <glyph glyph-name="dcroat" unicode="&#x111;" horiz-adv-x="576" 
d="M550 622l-68 0.000976562v-622h-67v68c-18 -26.667 -40.167 -46.834 -66.5 -60.501s-55.833 -20.5 -88.5 -20.5c-64 0 -113.833 24.167 -149.5 72.5s-53.5 115.833 -53.5 202.5c0 84 19 149.5 57 196.5s90.667 70.5 158 70.5c27.333 0 52.833 -5.33301 76.5 -16
s44.167 -25.667 61.5 -45v154h-230v53h230v95h72v-95h68v-53zM349 72.501c21.333 10.333 41.668 26.833 61.001 49.5v279c-16.667 19.333 -37.334 34.5 -62.001 45.5s-50 16.5 -76 16.5c-46 0 -80.833 -17 -104.5 -51s-35.5 -84 -35.5 -150
c0 -67.333 12.333 -118.333 37 -153s61 -52 109 -52c26 0 49.667 5.16699 71 15.5z" />
    <glyph glyph-name="Emacron" unicode="&#x112;" horiz-adv-x="574" 
d="M455 811h-284v58h284v-58zM528 67v-67h-430v724h418v-67h-344v-253h258v-68h-258v-269h356z" />
    <glyph glyph-name="emacron" unicode="&#x113;" horiz-adv-x="538" 
d="M484 248h-355.998c2.66699 -63.333 18.167 -111.166 46.5 -143.499s68.833 -48.5 121.5 -48.5c50 0 96 14 138 42l28 -58c-20.667 -16.667 -45.834 -29.5 -75.501 -38.5s-61.167 -13.5 -94.5 -13.5c-74.667 0 -132.834 24.667 -174.501 74s-62.5 117.666 -62.5 204.999
c0 88 19.333 156.667 58 206s92.334 74 161.001 74c67.333 0 119.666 -22.667 156.999 -68s56 -108.333 56 -189c0 -16 -1 -30 -3 -42zM172.502 438.5c-23.667 -29 -37.832 -72.167 -42.499 -129.5h284c-0.666992 54.667 -13.5 97.167 -38.5 127.5s-59.5 45.5 -103.5 45.5
c-42.667 0 -75.834 -14.5 -99.501 -43.5zM132.004 699h284v-58h-284v58z" />
    <glyph glyph-name="Ebreve" unicode="&#x114;" horiz-adv-x="574" 
d="M213 823.5c-24.667 25.667 -38 61.167 -40 106.5h51c8 -55.333 38 -83 90 -83c52.667 0 83 27.667 91 83h48c-2 -45.333 -15.333 -80.833 -40 -106.5s-58 -38.5 -100 -38.5s-75.333 12.833 -100 38.5zM528 67v-67h-430v724h418v-67h-344v-253h258v-68h-258v-269h356z" />
    <glyph glyph-name="ebreve" unicode="&#x115;" horiz-adv-x="538" 
d="M484 248h-355.998c2.66699 -63.333 18.167 -111.166 46.5 -143.499s68.833 -48.5 121.5 -48.5c50 0 96 14 138 42l28 -58c-20.667 -16.667 -45.834 -29.5 -75.501 -38.5s-61.167 -13.5 -94.5 -13.5c-74.667 0 -132.834 24.667 -174.501 74s-62.5 117.666 -62.5 204.999
c0 88 19.333 156.667 58 206s92.334 74 161.001 74c67.333 0 119.666 -22.667 156.999 -68s56 -108.333 56 -189c0 -16 -1 -30 -3 -42zM172.502 438.5c-23.667 -29 -37.832 -72.167 -42.499 -129.5h284c-0.666992 54.667 -13.5 97.167 -38.5 127.5s-59.5 45.5 -103.5 45.5
c-42.667 0 -75.834 -14.5 -99.501 -43.5zM174.004 653.5c-24.667 25.667 -38 61.167 -40 106.5h51c8 -55.333 38 -83 90 -83c52.667 0 83 27.667 91 83h48c-2 -45.333 -15.333 -80.833 -40 -106.5s-58 -38.5 -100 -38.5s-75.333 12.833 -100 38.5z" />
    <glyph glyph-name="Edotaccent" unicode="&#x116;" horiz-adv-x="574" 
d="M274.5 814c-9 9.33301 -13.5 22.333 -13.5 39c0 17.333 4.5 30.666 13.5 39.999s21.833 14 38.5 14s29.5 -4.66699 38.5 -14s13.5 -22.333 13.5 -39c0 -17.333 -4.5 -30.666 -13.5 -39.999s-21.833 -14 -38.5 -14s-29.5 4.66699 -38.5 14zM528 67v-67h-430v724h418v-67
h-344v-253h258v-68h-258v-269h356z" />
    <glyph glyph-name="edotaccent" unicode="&#x117;" horiz-adv-x="538" 
d="M484 248h-355.998c2.66699 -63.333 18.167 -111.166 46.5 -143.499s68.833 -48.5 121.5 -48.5c50 0 96 14 138 42l28 -58c-20.667 -16.667 -45.834 -29.5 -75.501 -38.5s-61.167 -13.5 -94.5 -13.5c-74.667 0 -132.834 24.667 -174.501 74s-62.5 117.666 -62.5 204.999
c0 88 19.333 156.667 58 206s92.334 74 161.001 74c67.333 0 119.666 -22.667 156.999 -68s56 -108.333 56 -189c0 -16 -1 -30 -3 -42zM172.502 438.5c-23.667 -29 -37.832 -72.167 -42.499 -129.5h284c-0.666992 54.667 -13.5 97.167 -38.5 127.5s-59.5 45.5 -103.5 45.5
c-42.667 0 -75.834 -14.5 -99.501 -43.5zM235.504 644c-9 9.33301 -13.5 22.333 -13.5 39c0 17.333 4.5 30.666 13.5 39.999s21.833 14 38.5 14s29.5 -4.66699 38.5 -14s13.5 -22.333 13.5 -39c0 -17.333 -4.5 -30.666 -13.5 -39.999s-21.833 -14 -38.5 -14
s-29.5 4.66699 -38.5 14z" />
    <glyph glyph-name="Eogonek" unicode="&#x118;" horiz-adv-x="574" 
d="M574 -188c-13.333 -9.33301 -28.6689 -16.502 -46.002 -21.502s-35.333 -7.5 -54 -7.5c-31.333 0 -56 7.83301 -74 23.5s-27 37.5 -27 65.5c0 24.667 7.33301 48.334 22 71.001s35.334 41.667 62.001 57h-359v724h418v-67h-344v-253h258v-68h-258v-269h356v-67
c-29.333 -16.667 -51.666 -34.667 -66.999 -54s-23 -39.666 -23 -60.999c0 -29.333 16 -44 48 -44c22 0 44.333 6 67 18z" />
    <glyph glyph-name="eogonek" unicode="&#x119;" horiz-adv-x="538" 
d="M484 248l-356 -0.00195312c2.66699 -63.333 18.167 -111.166 46.5 -143.499s68.833 -48.5 121.5 -48.5c50 0 96 14 138 42l28 -58c-6.66699 -5.33301 -18.667 -12.666 -36 -21.999c-32.667 -18.667 -58.167 -39.667 -76.5 -63s-27.5 -46.666 -27.5 -69.999
c0 -29.333 16 -44 48 -44c22 0 44.333 6 67 18l21 -47c-13.333 -9.33301 -28.666 -16.5 -45.999 -21.5s-35.333 -7.5 -54 -7.5c-31.333 0 -56 7.83301 -74 23.5s-27 37.5 -27 65.5c0 21.333 5.66699 42.166 17 62.499s27.333 38.833 48 55.5
c-14.667 -1.33301 -24.667 -2 -30 -2c-74.667 0 -132.834 24.5 -174.501 73.5s-62.5 117.5 -62.5 205.5s19.333 156.667 58 206s92.334 74 161.001 74c67.333 0 119.666 -22.667 156.999 -68s56 -108.333 56 -189c0 -16 -1 -30 -3 -42zM172.5 438.498
c-23.667 -29 -37.832 -72.167 -42.499 -129.5h284c-0.666992 54.667 -13.5 97.167 -38.5 127.5s-59.5 45.5 -103.5 45.5c-42.667 0 -75.834 -14.5 -99.501 -43.5z" />
    <glyph glyph-name="Ecaron" unicode="&#x11a;" horiz-adv-x="574" 
d="M272 781l-117 133v12h61l99 -94l98 94h58v-12l-117 -133h-82zM528 67v-67h-430v724h418v-67h-344v-253h258v-68h-258v-269h356z" />
    <glyph glyph-name="ecaron" unicode="&#x11b;" horiz-adv-x="538" 
d="M484 248h-355.998c2.66699 -63.333 18.167 -111.166 46.5 -143.499s68.833 -48.5 121.5 -48.5c50 0 96 14 138 42l28 -58c-20.667 -16.667 -45.834 -29.5 -75.501 -38.5s-61.167 -13.5 -94.5 -13.5c-74.667 0 -132.834 24.667 -174.501 74s-62.5 117.666 -62.5 204.999
c0 88 19.333 156.667 58 206s92.334 74 161.001 74c67.333 0 119.666 -22.667 156.999 -68s56 -108.333 56 -189c0 -16 -1 -30 -3 -42zM172.502 438.5c-23.667 -29 -37.832 -72.167 -42.499 -129.5h284c-0.666992 54.667 -13.5 97.167 -38.5 127.5s-59.5 45.5 -103.5 45.5
c-42.667 0 -75.834 -14.5 -99.501 -43.5zM414.004 784v-10l-102 -159h-76l-102 159v10h55l86 -113l87 113h52z" />
    <glyph glyph-name="Gcircumflex" unicode="&#x11c;" horiz-adv-x="668" 
d="M259 781h-58v12l117 133h82l117 -133v-12h-61l-98 94zM590 378l0.000976562 -342c-24.667 -15.333 -54.834 -27.333 -90.501 -36s-73.167 -13 -112.5 -13c-67.333 0 -125.166 14.833 -173.499 44.5s-85.333 72.667 -111 129s-38.5 123.5 -38.5 201.5
s12.833 145.167 38.5 201.5s62.667 99.333 111 129s106.166 44.5 173.499 44.5c34.667 0 68.5 -4 101.5 -12s61.167 -19 84.5 -33l-23 -63c-56.667 26.667 -111.667 40 -165 40c-80 0 -140.5 -25.833 -181.5 -77.5s-61.5 -128.167 -61.5 -229.5s20.667 -178 62 -230
s102.333 -78 183 -78c44 0 87 6.66699 129 20v237h-134v67h208z" />
    <glyph glyph-name="gcircumflex" unicode="&#x11d;" horiz-adv-x="577" 
d="M483 534l0.00195312 -537.999c0 -68 -20.333 -121 -61 -159s-97.334 -57 -170.001 -57c-26.667 0 -52.834 2.66699 -78.501 8s-47.5 12.666 -65.5 21.999l22 65c37.333 -18.667 78 -28 122 -28c52 0 91.5 12.667 118.5 38s40.5 62.333 40.5 111v95
c-36 -49.333 -86.333 -74 -151 -74c-63.333 0 -113 23.667 -149 71s-54 113.333 -54 198c0 82 19 146 57 192s90.667 69 158 69c29.333 0 56.333 -6 81 -18s45.667 -29 63 -51v56h67zM350.002 102.501c21.333 10.333 41.666 26.834 60.999 49.501v267
c-18 20 -39 35.333 -63 46s-49.333 16 -76 16c-46 0 -80.833 -16.333 -104.5 -49s-35.5 -81.334 -35.5 -146.001c0 -65.333 12.333 -114.833 37 -148.5s61.334 -50.5 110.001 -50.5c26 0 49.667 5.16699 71 15.5zM425.002 625.002v-10h-55l-87 113l-86 -113h-52v10l102 159
h76z" />
    <glyph glyph-name="Gbreve" unicode="&#x11e;" horiz-adv-x="668" 
d="M259 823.5c-24.667 25.667 -38 61.167 -40 106.5h51c8 -55.333 38 -83 90 -83c52.667 0 83 27.667 91 83h48c-2 -45.333 -15.333 -80.833 -40 -106.5s-58 -38.5 -100 -38.5s-75.333 12.833 -100 38.5zM590 378l0.000976562 -342
c-24.667 -15.333 -54.834 -27.333 -90.501 -36s-73.167 -13 -112.5 -13c-67.333 0 -125.166 14.833 -173.499 44.5s-85.333 72.667 -111 129s-38.5 123.5 -38.5 201.5s12.833 145.167 38.5 201.5s62.667 99.333 111 129s106.166 44.5 173.499 44.5
c34.667 0 68.5 -4 101.5 -12s61.167 -19 84.5 -33l-23 -63c-56.667 26.667 -111.667 40 -165 40c-80 0 -140.5 -25.833 -181.5 -77.5s-61.5 -128.167 -61.5 -229.5s20.667 -178 62 -230s102.333 -78 183 -78c44 0 87 6.66699 129 20v237h-134v67h208z" />
    <glyph glyph-name="gbreve" unicode="&#x11f;" horiz-adv-x="577" 
d="M483 534l0.00195312 -537.999c0 -68 -20.333 -121 -61 -159s-97.334 -57 -170.001 -57c-26.667 0 -52.834 2.66699 -78.501 8s-47.5 12.666 -65.5 21.999l22 65c37.333 -18.667 78 -28 122 -28c52 0 91.5 12.667 118.5 38s40.5 62.333 40.5 111v95
c-36 -49.333 -86.333 -74 -151 -74c-63.333 0 -113 23.667 -149 71s-54 113.333 -54 198c0 82 19 146 57 192s90.667 69 158 69c29.333 0 56.333 -6 81 -18s45.667 -29 63 -51v56h67zM350.002 102.501c21.333 10.333 41.666 26.834 60.999 49.501v267
c-18 20 -39 35.333 -63 46s-49.333 16 -76 16c-46 0 -80.833 -16.333 -104.5 -49s-35.5 -81.334 -35.5 -146.001c0 -65.333 12.333 -114.833 37 -148.5s61.334 -50.5 110.001 -50.5c26 0 49.667 5.16699 71 15.5zM185.002 653.502c-24.667 25.667 -38 61.167 -40 106.5h51
c8 -55.333 38 -83 90 -83c52.667 0 83 27.667 91 83h48c-2 -45.333 -15.333 -80.833 -40 -106.5s-58 -38.5 -100 -38.5s-75.333 12.833 -100 38.5z" />
    <glyph glyph-name="Gdotaccent" unicode="&#x120;" horiz-adv-x="668" 
d="M320.5 814c-9 9.33301 -13.5 22.333 -13.5 39c0 17.333 4.5 30.666 13.5 39.999s21.833 14 38.5 14s29.5 -4.66699 38.5 -14s13.5 -22.333 13.5 -39c0 -17.333 -4.5 -30.666 -13.5 -39.999s-21.833 -14 -38.5 -14s-29.5 4.66699 -38.5 14zM590 378l0.000976562 -342
c-24.667 -15.333 -54.834 -27.333 -90.501 -36s-73.167 -13 -112.5 -13c-67.333 0 -125.166 14.833 -173.499 44.5s-85.333 72.667 -111 129s-38.5 123.5 -38.5 201.5s12.833 145.167 38.5 201.5s62.667 99.333 111 129s106.166 44.5 173.499 44.5
c34.667 0 68.5 -4 101.5 -12s61.167 -19 84.5 -33l-23 -63c-56.667 26.667 -111.667 40 -165 40c-80 0 -140.5 -25.833 -181.5 -77.5s-61.5 -128.167 -61.5 -229.5s20.667 -178 62 -230s102.333 -78 183 -78c44 0 87 6.66699 129 20v237h-134v67h208z" />
    <glyph glyph-name="gdotaccent" unicode="&#x121;" horiz-adv-x="577" 
d="M483 534l0.00195312 -537.999c0 -68 -20.333 -121 -61 -159s-97.334 -57 -170.001 -57c-26.667 0 -52.834 2.66699 -78.501 8s-47.5 12.666 -65.5 21.999l22 65c37.333 -18.667 78 -28 122 -28c52 0 91.5 12.667 118.5 38s40.5 62.333 40.5 111v95
c-36 -49.333 -86.333 -74 -151 -74c-63.333 0 -113 23.667 -149 71s-54 113.333 -54 198c0 82 19 146 57 192s90.667 69 158 69c29.333 0 56.333 -6 81 -18s45.667 -29 63 -51v56h67zM350.002 102.501c21.333 10.333 41.666 26.834 60.999 49.501v267
c-18 20 -39 35.333 -63 46s-49.333 16 -76 16c-46 0 -80.833 -16.333 -104.5 -49s-35.5 -81.334 -35.5 -146.001c0 -65.333 12.333 -114.833 37 -148.5s61.334 -50.5 110.001 -50.5c26 0 49.667 5.16699 71 15.5zM246.502 644.002c-9 9.33301 -13.5 22.333 -13.5 39
c0 17.333 4.5 30.666 13.5 39.999s21.833 14 38.5 14s29.5 -4.66699 38.5 -14s13.5 -22.333 13.5 -39c0 -17.333 -4.5 -30.666 -13.5 -39.999s-21.833 -14 -38.5 -14s-29.5 4.66699 -38.5 14z" />
    <glyph glyph-name="Gcommaaccent" unicode="&#x122;" horiz-adv-x="668" 
d="M590 378l0.000976562 -342c-24.667 -15.333 -54.834 -27.333 -90.501 -36s-73.167 -13 -112.5 -13c-67.333 0 -125.166 14.833 -173.499 44.5s-85.333 72.667 -111 129s-38.5 123.5 -38.5 201.5s12.833 145.167 38.5 201.5s62.667 99.333 111 129
s106.166 44.5 173.499 44.5c34.667 0 68.5 -4 101.5 -12s61.167 -19 84.5 -33l-23 -63c-56.667 26.667 -111.667 40 -165 40c-80 0 -140.5 -25.833 -181.5 -77.5s-61.5 -128.167 -61.5 -229.5s20.667 -178 62 -230s102.333 -78 183 -78c44 0 87 6.66699 129 20v237h-134v67
h208zM278.001 -238c17.333 19.333 29.5 37.832 36.5 55.499s10.5 39.834 10.5 66.501c0 10 -0.666992 21 -2 33h72c1.33301 -12 2 -22.667 2 -32c0 -30 -7 -56.833 -21 -80.5s-37 -48.167 -69 -73.5z" />
    <glyph glyph-name="gcommaaccent" unicode="&#x123;" horiz-adv-x="577" 
d="M483 534l0.00195312 -537.999c0 -68 -20.333 -121 -61 -159s-97.334 -57 -170.001 -57c-26.667 0 -52.834 2.66699 -78.501 8s-47.5 12.666 -65.5 21.999l22 65c37.333 -18.667 78 -28 122 -28c52 0 91.5 12.667 118.5 38s40.5 62.333 40.5 111v95
c-36 -49.333 -86.333 -74 -151 -74c-63.333 0 -113 23.667 -149 71s-54 113.333 -54 198c0 82 19 146 57 192s90.667 69 158 69c29.333 0 56.333 -6 81 -18s45.667 -29 63 -51v56h67zM350.002 102.501c21.333 10.333 41.666 26.834 60.999 49.501v267
c-18 20 -39 35.333 -63 46s-49.333 16 -76 16c-46 0 -80.833 -16.333 -104.5 -49s-35.5 -81.334 -35.5 -146.001c0 -65.333 12.333 -114.833 37 -148.5s61.334 -50.5 110.001 -50.5c26 0 49.667 5.16699 71 15.5zM364.002 772.002
c-17.333 -19.333 -29.5 -37.832 -36.5 -55.499s-10.5 -39.834 -10.5 -66.501c0 -10 0.666992 -21 2 -33h-72c-1.33301 12 -2 22.667 -2 32c0 30 7 56.833 21 80.5s37 48.167 69 73.5z" />
    <glyph glyph-name="Hcircumflex" unicode="&#x124;" horiz-adv-x="700" 
d="M250 781h-58v12l117 133h82l117 -133v-12h-61l-98 94zM602 724v-724h-74v334h-356v-334h-74v724h74v-323h356v323h74z" />
    <glyph glyph-name="hcircumflex" unicode="&#x125;" horiz-adv-x="582" 
d="M129 921l-99 -94h-58v12l117 133h82l117 -133v-12h-61zM449 502.5c29.333 -29.667 44 -71.167 44 -124.5v-378h-72v373c0 69.333 -38 104 -114 104c-52.667 0 -99.667 -17.667 -141 -53v-424h-72v770h72v-288c44.667 43.333 98 65 160 65
c52.667 0 93.667 -14.833 123 -44.5z" />
    <glyph glyph-name="Hbar" unicode="&#x126;" horiz-adv-x="700" 
d="M671 530h-69v-530h-74v334h-356v-334h-74v530h-69v62h69v132h74v-132h356v132h74v-132h69v-62zM528 530h-356v-129h356v129z" />
    <glyph glyph-name="hbar" unicode="&#x127;" horiz-adv-x="584" 
d="M450.5 484.5c29.667 -29.667 44.498 -71.167 44.498 -124.5v-360h-72v355c0 69.333 -38.333 104 -115 104c-27.333 0 -52.5 -4.33301 -75.5 -13s-45.167 -22 -66.5 -40v-406h-72v622h-68v53h68v95h72v-95h230v-53h-230v-158c44.667 43.333 98.334 65 161.001 65
c52.667 0 93.834 -14.833 123.501 -44.5z" />
    <glyph glyph-name="Itilde" unicode="&#x128;" horiz-adv-x="274" 
d="M155.5 800c-10.333 6.66699 -21.833 16.667 -34.5 30c-9.33301 10 -17 17.167 -23 21.5s-13.333 6.5 -22 6.5c-11.333 0 -20.166 -5.33301 -26.499 -16s-10.166 -27.334 -11.499 -50.001h-47c0 39.333 7.66699 70 23 92s37 33 65 33c16 0 29.167 -3.33301 39.5 -10
s21.833 -16.667 34.5 -30c9.33301 -10 17 -17.167 23 -21.5s13.333 -6.5 22 -6.5c11.333 0 20.166 5.33301 26.499 16s10.166 27.334 11.499 50.001h47c0 -39.333 -7.66699 -70 -23 -92s-37 -33 -65 -33c-16 0 -29.167 3.33301 -39.5 10zM100 724h74v-724h-74v724z" />
    <glyph glyph-name="itilde" unicode="&#x129;" horiz-adv-x="264" 
d="M150.5 630c-10.333 6.66699 -21.833 16.667 -34.5 30c-9.33301 10 -17 17.167 -23 21.5s-13.333 6.5 -22 6.5c-11.333 0 -20.166 -5.33301 -26.499 -16s-10.166 -27.334 -11.499 -50.001h-47c0 39.333 7.66699 70 23 92s37 33 65 33c16 0 29.167 -3.33301 39.5 -10
s21.833 -16.667 34.5 -30c9.33301 -10 17 -17.167 23 -21.5s13.333 -6.5 22 -6.5c11.333 0 20.166 5.33301 26.499 16s10.166 27.334 11.499 50.001h47c0 -39.333 -7.66699 -70 -23 -92s-37 -33 -65 -33c-16 0 -29.167 3.33301 -39.5 10zM96 534h72v-534h-72v534z" />
    <glyph glyph-name="Imacron" unicode="&#x12a;" horiz-adv-x="274" 
d="M-5 869h284v-58h-284v58zM100 724h74v-724h-74v724z" />
    <glyph glyph-name="imacron" unicode="&#x12b;" horiz-adv-x="264" 
d="M20 699h224v-58h-224v58zM96 534h72v-534h-72v534z" />
    <glyph glyph-name="Ibreve" unicode="&#x12c;" horiz-adv-x="274" 
d="M37 823.5c-24.667 25.667 -38 61.167 -40 106.5h51c8 -55.333 38 -83 90 -83c52.667 0 83 27.667 91 83h48c-2 -45.333 -15.333 -80.833 -40 -106.5s-58 -38.5 -100 -38.5s-75.333 12.833 -100 38.5zM100 724h74v-724h-74v724z" />
    <glyph glyph-name="ibreve" unicode="&#x12d;" horiz-adv-x="264" 
d="M96 534h72v-534h-72v534zM32 653.5c-24.667 25.667 -38 61.167 -40 106.5h51c8 -55.333 38 -83 90 -83c52.667 0 83 27.667 91 83h48c-2 -45.333 -15.333 -80.833 -40 -106.5s-58 -38.5 -100 -38.5s-75.333 12.833 -100 38.5z" />
    <glyph glyph-name="Iogonek" unicode="&#x12e;" horiz-adv-x="274" 
d="M241 -188c-13.333 -9.33301 -28.667 -16.501 -46 -21.501s-35.333 -7.5 -54 -7.5c-31.333 0 -56 8 -74 24s-27 37.667 -27 65c0 22.667 6 45.334 18 68.001s28.667 42.667 50 60h-8v724h74v-724c-46 -38.667 -69 -77 -69 -115c0 -29.333 16 -44 48 -44
c22 0 44.333 6 67 18z" />
    <glyph glyph-name="iogonek" unicode="&#x12f;" horiz-adv-x="264" 
d="M93.5 644c-9 9.33301 -13.5 22.333 -13.5 39c0 17.333 4.5 30.666 13.5 39.999s21.833 14 38.5 14s29.5 -4.66699 38.5 -14s13.5 -22.333 13.5 -39c0 -17.333 -4.5 -30.666 -13.5 -39.999s-21.833 -14 -38.5 -14s-29.5 4.66699 -38.5 14zM235 -188
c-13.333 -9.33301 -28.667 -16.501 -46 -21.501s-35.333 -7.5 -54 -7.5c-31.333 0 -56 8 -74 24s-27 37.667 -27 65c0 22.667 6 45.334 18 68.001s28.667 42.667 50 60h-6v534h72v-534c-46 -38.667 -69 -77 -69 -115c0 -29.333 16 -44 48 -44c22 0 44.333 6 67 18z" />
    <glyph glyph-name="Idotaccent" unicode="&#x130;" horiz-adv-x="274" 
d="M98.5 814c-9 9.33301 -13.5 22.333 -13.5 39c0 17.333 4.5 30.666 13.5 39.999s21.833 14 38.5 14s29.5 -4.66699 38.5 -14s13.5 -22.333 13.5 -39c0 -17.333 -4.5 -30.666 -13.5 -39.999s-21.833 -14 -38.5 -14s-29.5 4.66699 -38.5 14zM100 724h74v-724h-74v724z" />
    <glyph glyph-name="dotlessi" unicode="&#x131;" horiz-adv-x="264" 
d="M96 534h72v-534h-72v534z" />
    <glyph glyph-name="IJ" unicode="&#x132;" horiz-adv-x="641" 
d="M98 724h74v-724h-74v724zM312.5 -5c-23.667 5.33301 -44.832 12.667 -63.499 22l25 64c40 -17.333 75.667 -26 107 -26c34.667 0 61 10.5 79 31.5s27 52.167 27 93.5v544h74v-544c0 -60.667 -15.833 -108 -47.5 -142s-75.834 -51 -132.501 -51
c-22 0 -44.833 2.66699 -68.5 8z" />
    <glyph glyph-name="ij" unicode="&#x133;" horiz-adv-x="528" 
d="M96 534h72v-534h-72v534zM93.5 644c-9 9.33301 -13.5 22.333 -13.5 39c0 17.333 4.5 30.666 13.5 39.999s21.833 14 38.5 14s29.5 -4.66699 38.5 -14s13.5 -22.333 13.5 -39c0 -17.333 -4.5 -30.666 -13.5 -39.999s-21.833 -14 -38.5 -14s-29.5 4.66699 -38.5 14z
M223 -159c36 12.667 63.668 26.499 83.001 41.499s33.166 33.667 41.499 56s12.5 51.5 12.5 87.5v508h72v-508c0 -48 -5.5 -86.667 -16.5 -116s-29.5 -54.166 -55.5 -74.499s-63.333 -38.833 -112 -55.5zM357.501 643.999c-9 9.33301 -13.5 22.333 -13.5 39
c0 17.333 4.5 30.666 13.5 39.999s21.833 14 38.5 14s29.5 -4.66699 38.5 -14s13.5 -22.333 13.5 -39c0 -17.333 -4.5 -30.666 -13.5 -39.999s-21.833 -14 -38.5 -14s-29.5 4.66699 -38.5 14z" />
    <glyph glyph-name="Jcircumflex" unicode="&#x134;" horiz-adv-x="452" 
d="M480 793v-12h-61l-98 94l-99 -94h-58v12l117 133h82zM285 724h74.002v-544c0 -61.333 -17.167 -108.833 -51.5 -142.5s-82.5 -50.5 -144.5 -50.5c-30.667 0 -59.334 3.83301 -86.001 11.5s-49 18.5 -67 32.5l29 61c39.333 -24.667 80.666 -37 123.999 -37
c40.667 0 71.167 10.5 91.5 31.5s30.5 52.167 30.5 93.5v544z" />
    <glyph glyph-name="jcircumflex" unicode="&#x135;" horiz-adv-x="264" 
d="M-41 -159c36 12.667 63.668 26.499 83.001 41.499s33.166 33.667 41.499 56s12.5 51.5 12.5 87.5v508h72v-508c0 -48 -5.5 -86.667 -16.5 -116s-29.5 -54.166 -55.5 -74.499s-63.333 -38.833 -112 -55.5zM272.001 624.999v-10h-55l-87 113l-86 -113h-52v10l102 159h76z
" />
    <glyph glyph-name="Kcommaaccent" unicode="&#x136;" horiz-adv-x="616" 
d="M267 334l-95 -113v-221h-74v724h74v-407l332 407h91l-279 -331l294 -393h-91zM255 -238c17.333 19.333 29.5 37.832 36.5 55.499s10.5 39.834 10.5 66.501c0 10 -0.666992 21 -2 33h72c1.33301 -12 2 -22.667 2 -32c0 -30 -7 -56.833 -21 -80.5s-37 -48.167 -69 -73.5z
" />
    <glyph glyph-name="kcommaaccent" unicode="&#x137;" horiz-adv-x="535" 
d="M244 253l-78 -86v-167h-72v770h72v-514l241 278h89l-202 -225l213 -309h-89zM206 -238c17.333 19.333 29.5 37.832 36.5 55.499s10.5 39.834 10.5 66.501c0 10 -0.666992 21 -2 33h72c1.33301 -12 2 -22.667 2 -32c0 -30 -7 -56.833 -21 -80.5s-37 -48.167 -69 -73.5z
" />
    <glyph glyph-name="kgreenlandic" unicode="&#x138;" horiz-adv-x="535" 
d="M244 253l-78 -86v-167h-72v534h72v-278l241 278h89l-202 -225l213 -309h-89z" />
    <glyph glyph-name="Lacute" unicode="&#x139;" horiz-adv-x="527" 
d="M158 781h-66v12l153 133h95v-12zM497 68v-68h-399v724h74v-656h325z" />
    <glyph glyph-name="lacute" unicode="&#x13a;" horiz-adv-x="304" 
d="M66 839l153 133h95v-12l-182 -133h-66v12zM92 109l0.000976562 661h72v-658c0 -18.667 4.33301 -32.167 13 -40.5s22.667 -12.5 42 -12.5c11.333 0 24.666 1.33301 39.999 4l7 -61c-20 -5.33301 -40.667 -8 -62 -8c-74.667 0 -112 38.333 -112 115z" />
    <glyph glyph-name="Lcommaaccent" unicode="&#x13b;" horiz-adv-x="527" 
d="M497 68v-68h-399v724h74v-656h325zM219 -238c17.333 19.333 29.5 37.832 36.5 55.499s10.5 39.834 10.5 66.501c0 10 -0.666992 21 -2 33h72c1.33301 -12 2 -22.667 2 -32c0 -30 -7 -56.833 -21 -80.5s-37 -48.167 -69 -73.5z" />
    <glyph glyph-name="lcommaaccent" unicode="&#x13c;" horiz-adv-x="304" 
d="M92 109l0.000976562 661h72v-658c0 -18.667 4.33301 -32.167 13 -40.5s22.667 -12.5 42 -12.5c11.333 0 24.666 1.33301 39.999 4l7 -61c-20 -5.33301 -40.667 -8 -62 -8c-74.667 0 -112 38.333 -112 115zM93.001 -238c17.333 19.333 29.5 37.832 36.5 55.499
s10.5 39.834 10.5 66.501c0 10 -0.666992 21 -2 33h72c1.33301 -12 2 -22.667 2 -32c0 -30 -7 -56.833 -21 -80.5s-37 -48.167 -69 -73.5z" />
    <glyph glyph-name="Lcaron" unicode="&#x13d;" horiz-adv-x="527" 
d="M342 560h-45v210h72v-10zM497 68v-68h-399v724h74v-656h325z" />
    <glyph glyph-name="lcaron" unicode="&#x13e;" horiz-adv-x="306" 
d="M92 109l0.000976562 661h72v-658c0 -18.667 4.33301 -32.167 13 -40.5s22.667 -12.5 42 -12.5c11.333 0 24.666 1.33301 39.999 4l7 -61c-20 -5.33301 -40.667 -8 -62 -8c-74.667 0 -112 38.333 -112 115zM251.001 770h72v-10l-27 -200h-45v210z" />
    <glyph glyph-name="Ldot" unicode="&#x13f;" horiz-adv-x="527" 
d="M497 68v-68h-399v724h74v-656h325zM353.5 351c-9 9.33301 -13.5 22.333 -13.5 39c0 17.333 4.5 30.666 13.5 39.999s21.833 14 38.5 14s29.5 -4.66699 38.5 -14s13.5 -22.333 13.5 -39c0 -17.333 -4.5 -30.666 -13.5 -39.999s-21.833 -14 -38.5 -14
s-29.5 4.66699 -38.5 14z" />
    <glyph glyph-name="ldot" unicode="&#x140;" horiz-adv-x="373" 
d="M92 109l0.000976562 661h72v-658c0 -18.667 4.33301 -32.167 13 -40.5s22.667 -12.5 42 -12.5c11.333 0 24.666 1.33301 39.999 4l7 -61c-20 -5.33301 -40.667 -8 -62 -8c-74.667 0 -112 38.333 -112 115zM275.501 349c-9 9.33301 -13.5 22.333 -13.5 39
c0 17.333 4.5 30.666 13.5 39.999s21.833 14 38.5 14s29.5 -4.66699 38.5 -14s13.5 -22.333 13.5 -39c0 -17.333 -4.5 -30.666 -13.5 -39.999s-21.833 -14 -38.5 -14s-29.5 4.66699 -38.5 14z" />
    <glyph glyph-name="Lslash" unicode="&#x141;" horiz-adv-x="531" 
d="M501 68v-68h-399v267l-54 -34h-10v66l64 37v388h74v-345l222 135h10v-66l-232 -136v-244h325z" />
    <glyph glyph-name="lslash" unicode="&#x142;" horiz-adv-x="342" 
d="M188 396l0.000976562 -284c0 -18.667 4.33301 -32.167 13 -40.5s22.667 -12.5 42 -12.5c11.333 0 24.666 1.33301 39.999 4l7 -61c-20 -5.33301 -40.667 -8 -62 -8c-74.667 0 -112 38.333 -112 115v237l-76 -55h-10v64l86 59v356h72v-306l97 70h10v-64z" />
    <glyph glyph-name="Nacute" unicode="&#x143;" horiz-adv-x="722" 
d="M365 781h-66v12l153 133h95v-12zM624 724v-724h-69l-385 598v-598h-72v724h69l385 -597v597h72z" />
    <glyph glyph-name="nacute" unicode="&#x144;" horiz-adv-x="580" 
d="M447 502c29.333 -30 44 -71.333 44 -124v-378h-72v373c0 34 -9.66699 59.833 -29 77.5s-47.333 26.5 -84 26.5c-26.667 0 -51.334 -4.16699 -74.001 -12.5s-44.667 -21.833 -66 -40.5v-424h-72v534h67v-57c44.667 46.667 99.334 70 164.001 70c52 0 92.667 -15 122 -45z
M243 625l103 159h85v-10l-132 -159h-56v10z" />
    <glyph glyph-name="Ncommaaccent" unicode="&#x145;" horiz-adv-x="722" 
d="M624 724v-724h-69l-385 598v-598h-72v724h69l385 -597v597h72zM280 -238c17.333 19.333 29.5 37.832 36.5 55.499s10.5 39.834 10.5 66.501c0 10 -0.666992 21 -2 33h72c1.33301 -12 2 -22.667 2 -32c0 -30 -7 -56.833 -21 -80.5s-37 -48.167 -69 -73.5z" />
    <glyph glyph-name="ncommaaccent" unicode="&#x146;" horiz-adv-x="580" 
d="M447 502c29.333 -30 44 -71.333 44 -124v-378h-72v373c0 34 -9.66699 59.833 -29 77.5s-47.333 26.5 -84 26.5c-26.667 0 -51.334 -4.16699 -74.001 -12.5s-44.667 -21.833 -66 -40.5v-424h-72v534h67v-57c44.667 46.667 99.334 70 164.001 70c52 0 92.667 -15 122 -45z
M213 -238c17.333 19.333 29.5 37.832 36.5 55.499s10.5 39.834 10.5 66.501c0 10 -0.666992 21 -2 33h72c1.33301 -12 2 -22.667 2 -32c0 -30 -7 -56.833 -21 -80.5s-37 -48.167 -69 -73.5z" />
    <glyph glyph-name="Ncaron" unicode="&#x147;" horiz-adv-x="722" 
d="M320 781l-117 133v12h61l99 -94l98 94h58v-12l-117 -133h-82zM624 724v-724h-69l-385 598v-598h-72v724h69l385 -597v597h72z" />
    <glyph glyph-name="ncaron" unicode="&#x148;" horiz-adv-x="580" 
d="M447 502c29.333 -30 44 -71.333 44 -124v-378h-72v373c0 34 -9.66699 59.833 -29 77.5s-47.333 26.5 -84 26.5c-26.667 0 -51.334 -4.16699 -74.001 -12.5s-44.667 -21.833 -66 -40.5v-424h-72v534h67v-57c44.667 46.667 99.334 70 164.001 70c52 0 92.667 -15 122 -45z
M433 784v-10l-102 -159h-76l-102 159v10h55l86 -113l87 113h52z" />
    <glyph glyph-name="napostrophe" unicode="&#x149;" horiz-adv-x="580" 
d="M447 502c29.333 -30 44 -71.333 44 -124v-378h-72v373c0 34 -9.66699 59.833 -29 77.5s-47.333 26.5 -84 26.5c-26.667 0 -51.334 -4.16699 -74.001 -12.5s-44.667 -21.833 -66 -40.5v-424h-72v534h67v-57c44.667 46.667 99.334 70 164.001 70c52 0 92.667 -15 122 -45z
M-54 581c21.333 22.667 36.666 45.499 45.999 68.499s14 49.5 14 79.5c0 12.667 -0.666992 26.334 -2 41.001h70c1.33301 -14.667 2 -28 2 -40c0 -34 -8.16699 -65.5 -24.5 -94.5s-42.166 -57.167 -77.499 -84.5z" />
    <glyph glyph-name="Eng" unicode="&#x14a;" horiz-adv-x="722" 
d="M624 724v-724.002v-37c0 -57.333 -15.5 -102.166 -46.5 -134.499s-74.167 -48.5 -129.5 -48.5c-25.333 0 -49.833 3.5 -73.5 10.5s-43.5 16.833 -59.5 29.5l28 59c34 -22 69 -33 105 -33c34 0 59.833 9.83301 77.5 29.5s26.5 48.834 26.5 87.501v42l-382 593v-598h-72
v724h69l385 -597v597h72z" />
    <glyph glyph-name="eng" unicode="&#x14b;" horiz-adv-x="580" 
d="M447 502c29.333 -30 43.999 -71.334 43.999 -124.001v-378v-57c0 -51.333 -13 -91.333 -39 -120s-62 -43 -108 -43c-21.333 0 -42 3 -62 9s-36.667 14.333 -50 25l25 57c31.333 -18 60.333 -27 87 -27c24.667 0 43.334 8.33301 56.001 25s19 41.334 19 74.001v174v256
c0 34 -9.66699 59.833 -29 77.5s-47.333 26.5 -84 26.5c-26.667 0 -51.334 -4.16699 -74.001 -12.5s-44.667 -21.833 -66 -40.5v-424h-72v534h67v-57c44.667 46.667 99.334 70 164.001 70c52 0 92.667 -15 122 -45z" />
    <glyph glyph-name="Omacron" unicode="&#x14c;" horiz-adv-x="712" 
d="M214 869h284v-58h-284v58zM139 82.5c-50 63.667 -75 156.834 -75 279.501s25 215.834 75 279.501s122.333 95.5 217 95.5s167 -31.833 217 -95.5s75 -156.834 75 -279.501s-25 -215.834 -75 -279.501s-122.333 -95.5 -217 -95.5s-167 31.833 -217 95.5zM516 132
c36 52 54 128.667 54 230s-18 178 -54 230s-89.333 78 -160 78s-124 -26 -160 -78s-54 -128.667 -54 -230s18 -178 54 -230s89.333 -78 160 -78s124 26 160 78z" />
    <glyph glyph-name="omacron" unicode="&#x14d;" horiz-adv-x="555" 
d="M114 58.5c-38 47.667 -57 117.167 -57 208.5s19 160.833 57 208.5s92.667 71.5 164 71.5c70.667 0 125 -23.833 163 -71.5s57 -117.167 57 -208.5s-19 -160.833 -57 -208.5s-92.667 -71.5 -164 -71.5c-70.667 0 -125 23.833 -163 71.5zM386 106.5
c24.667 36.333 37 89.833 37 160.5s-12.333 124.167 -37 160.5s-60.667 54.5 -108 54.5c-48 0 -84.333 -18.167 -109 -54.5s-37 -89.833 -37 -160.5s12.333 -124.167 37 -160.5s60.667 -54.5 108 -54.5c48 0 84.333 18.167 109 54.5zM136 699h284v-58h-284v58z" />
    <glyph glyph-name="Obreve" unicode="&#x14e;" horiz-adv-x="712" 
d="M256 823.5c-24.667 25.667 -38 61.167 -40 106.5h51c8 -55.333 38 -83 90 -83c52.667 0 83 27.667 91 83h48c-2 -45.333 -15.333 -80.833 -40 -106.5s-58 -38.5 -100 -38.5s-75.333 12.833 -100 38.5zM139 82.5c-50 63.667 -75 156.834 -75 279.501
s25 215.834 75 279.501s122.333 95.5 217 95.5s167 -31.833 217 -95.5s75 -156.834 75 -279.501s-25 -215.834 -75 -279.501s-122.333 -95.5 -217 -95.5s-167 31.833 -217 95.5zM516 132c36 52 54 128.667 54 230s-18 178 -54 230s-89.333 78 -160 78s-124 -26 -160 -78
s-54 -128.667 -54 -230s18 -178 54 -230s89.333 -78 160 -78s124 26 160 78z" />
    <glyph glyph-name="obreve" unicode="&#x14f;" horiz-adv-x="555" 
d="M114 58.5c-38 47.667 -57 117.167 -57 208.5s19 160.833 57 208.5s92.667 71.5 164 71.5c70.667 0 125 -23.833 163 -71.5s57 -117.167 57 -208.5s-19 -160.833 -57 -208.5s-92.667 -71.5 -164 -71.5c-70.667 0 -125 23.833 -163 71.5zM386 106.5
c24.667 36.333 37 89.833 37 160.5s-12.333 124.167 -37 160.5s-60.667 54.5 -108 54.5c-48 0 -84.333 -18.167 -109 -54.5s-37 -89.833 -37 -160.5s12.333 -124.167 37 -160.5s60.667 -54.5 108 -54.5c48 0 84.333 18.167 109 54.5zM178 653.5
c-24.667 25.667 -38 61.167 -40 106.5h51c8 -55.333 38 -83 90 -83c52.667 0 83 27.667 91 83h48c-2 -45.333 -15.333 -80.833 -40 -106.5s-58 -38.5 -100 -38.5s-75.333 12.833 -100 38.5z" />
    <glyph glyph-name="Ohungarumlaut" unicode="&#x150;" horiz-adv-x="712" 
d="M230 793l101 133h83v-12l-130 -133h-54v12zM386 793l100 133h83v-12l-129 -133h-54v12zM139 82.5c-50 63.667 -75 156.834 -75 279.501s25 215.834 75 279.501s122.333 95.5 217 95.5s167 -31.833 217 -95.5s75 -156.834 75 -279.501s-25 -215.834 -75 -279.501
s-122.333 -95.5 -217 -95.5s-167 31.833 -217 95.5zM516 132c36 52 54 128.667 54 230s-18 178 -54 230s-89.333 78 -160 78s-124 -26 -160 -78s-54 -128.667 -54 -230s18 -178 54 -230s89.333 -78 160 -78s124 26 160 78z" />
    <glyph glyph-name="ohungarumlaut" unicode="&#x151;" horiz-adv-x="555" 
d="M114 58.5c-38 47.667 -57 117.167 -57 208.5s19 160.833 57 208.5s92.667 71.5 164 71.5c70.667 0 125 -23.833 163 -71.5s57 -117.167 57 -208.5s-19 -160.833 -57 -208.5s-92.667 -71.5 -164 -71.5c-70.667 0 -125 23.833 -163 71.5zM386 106.5
c24.667 36.333 37 89.833 37 160.5s-12.333 124.167 -37 160.5s-60.667 54.5 -108 54.5c-48 0 -84.333 -18.167 -109 -54.5s-37 -89.833 -37 -160.5s12.333 -124.167 37 -160.5s60.667 -54.5 108 -54.5c48 0 84.333 18.167 109 54.5zM171 625l62 159h77v-10l-91 -159h-48v10
zM312 625l62 159h77v-10l-91 -159h-48v10z" />
    <glyph glyph-name="OE" unicode="&#x152;" horiz-adv-x="960" 
d="M914 67v-67h-414h-144c-94 -0 -166.167 30.833 -216.5 92.5s-75.5 151.5 -75.5 269.5s25.167 207.833 75.5 269.5s122.5 92.5 216.5 92.5h181h365v-67h-330v-253h244v-68h-244v-269h342zM500 67v590h-144c-70 0 -123.167 -25 -159.5 -75s-54.5 -123.333 -54.5 -220
s18.167 -170 54.5 -220s89.5 -75 159.5 -75h144z" />
    <glyph glyph-name="oe" unicode="&#x153;" horiz-adv-x="881" 
d="M482 248l-0.00195312 -4c3.33301 -61.333 18.5 -108 45.5 -140s65.833 -48 116.5 -48c46.667 0 91 14 133 42l27 -58c-20 -16.667 -44.5 -29.5 -73.5 -38.5s-59.167 -13.5 -90.5 -13.5c-43.333 0 -81.166 9.33301 -113.499 28s-58.166 46 -77.499 82
c-17.333 -36 -41.166 -63.5 -71.499 -82.5s-65.5 -28.5 -105.5 -28.5c-68.667 0 -121.667 23.833 -159 71.5s-56 116.834 -56 207.501c0 92 18.333 161.833 55 209.5s90 71.5 160 71.5c40 0 75.167 -9.5 105.5 -28.5s54.166 -46.5 71.499 -82.5
c14.667 35.333 37 62.666 67 81.999s65.333 29 106 29c65.333 0 116.333 -22.667 153 -68s55 -108.333 55 -189c0 -16.667 -1 -30.667 -3 -42h-345zM377.498 106.5c23.667 36.333 35.5 89.834 35.5 160.501s-11.833 124.167 -35.5 160.5s-58.834 54.5 -105.501 54.5
c-46 0 -80.833 -18.333 -104.5 -55s-35.5 -90.334 -35.5 -161.001c0 -70 11.833 -123.167 35.5 -159.5s58.5 -54.5 104.5 -54.5c46.667 0 81.834 18.167 105.501 54.5zM524.498 438.001c-23 -29.333 -36.833 -72.333 -41.5 -129h274c-0.666992 54.667 -13 97.167 -37 127.5
s-57.333 45.5 -100 45.5c-40.667 0 -72.5 -14.667 -95.5 -44z" />
    <glyph glyph-name="Racute" unicode="&#x154;" horiz-adv-x="631" 
d="M320 781h-66v12l153 133h95v-12zM319 281l-146.999 -0.00195312v-281h-74v724h74h164c69.333 0 123.666 -19.5 162.999 -58.5s59 -93.167 59 -162.5c0 -57.333 -13.833 -104.666 -41.5 -141.999s-66.5 -61.666 -116.5 -72.999l191 -288h-91zM172.001 347.998h164.001
c47.333 0 83.166 13 107.499 39s36.5 64.667 36.5 116c0 50.667 -12.5 89 -37.5 115s-61.833 39 -110.5 39h-160v-309z" />
    <glyph glyph-name="racute" unicode="&#x155;" horiz-adv-x="398" 
d="M374 532l-17.001 -71.001c-25.333 7.33301 -48.666 11 -69.999 11c-26 0 -48.833 -5.66699 -68.5 -17s-37.167 -28.666 -52.5 -51.999v-403h-72v534h67v-74c38.667 56.667 87.334 85 146.001 85c23.333 0 45.666 -4.33301 66.999 -13zM180.999 624.999l103 159h85v-10
l-132 -159h-56v10z" />
    <glyph glyph-name="Rcommaaccent" unicode="&#x156;" horiz-adv-x="631" 
d="M319 281l-146.999 -0.00195312v-281h-74v724h74h164c69.333 0 123.666 -19.5 162.999 -58.5s59 -93.167 59 -162.5c0 -57.333 -13.833 -104.666 -41.5 -141.999s-66.5 -61.666 -116.5 -72.999l191 -288h-91zM172.001 347.998h164.001c47.333 0 83.166 13 107.499 39
s36.5 64.667 36.5 116c0 50.667 -12.5 89 -37.5 115s-61.833 39 -110.5 39h-160v-309zM254.002 -238.002c17.333 19.333 29.5 37.832 36.5 55.499s10.5 39.834 10.5 66.501c0 10 -0.666992 21 -2 33h72c1.33301 -12 2 -22.667 2 -32c0 -30 -7 -56.833 -21 -80.5
s-37 -48.167 -69 -73.5z" />
    <glyph glyph-name="rcommaaccent" unicode="&#x157;" horiz-adv-x="398" 
d="M374 532l-17.001 -71.001c-25.333 7.33301 -48.666 11 -69.999 11c-26 0 -48.833 -5.66699 -68.5 -17s-37.167 -28.666 -52.5 -51.999v-403h-72v534h67v-74c38.667 56.667 87.334 85 146.001 85c23.333 0 45.666 -4.33301 66.999 -13zM48.999 -238.001
c17.333 19.333 29.5 37.832 36.5 55.499s10.5 39.834 10.5 66.501c0 10 -0.666992 21 -2 33h72c1.33301 -12 2 -22.667 2 -32c0 -30 -7 -56.833 -21 -80.5s-37 -48.167 -69 -73.5z" />
    <glyph glyph-name="Rcaron" unicode="&#x158;" horiz-adv-x="631" 
d="M275 781l-117 133v12h61l99 -94l98 94h58v-12l-117 -133h-82zM319 281l-146.999 -0.00195312v-281h-74v724h74h164c69.333 0 123.666 -19.5 162.999 -58.5s59 -93.167 59 -162.5c0 -57.333 -13.833 -104.666 -41.5 -141.999s-66.5 -61.666 -116.5 -72.999l191 -288h-91z
M172.001 347.998h164.001c47.333 0 83.166 13 107.499 39s36.5 64.667 36.5 116c0 50.667 -12.5 89 -37.5 115s-61.833 39 -110.5 39h-160v-309z" />
    <glyph glyph-name="rcaron" unicode="&#x159;" horiz-adv-x="398" 
d="M374 532l-17.001 -71.001c-25.333 7.33301 -48.666 11 -69.999 11c-26 0 -48.833 -5.66699 -68.5 -17s-37.167 -28.666 -52.5 -51.999v-403h-72v534h67v-74c38.667 56.667 87.334 85 146.001 85c23.333 0 45.666 -4.33301 66.999 -13zM370.999 783.999v-10l-102 -159h-76
l-102 159v10h55l86 -113l87 113h52z" />
    <glyph glyph-name="Sacute" unicode="&#x15a;" horiz-adv-x="560" 
d="M206 793l153 133h95v-12l-182 -133h-66v12zM149.5 3c-39 10 -73.5 23.999 -103.5 41.999l27 65c62 -36 126.667 -54 194 -54c51.333 0 91.333 11.5 120 34.5s43 54.5 43 94.5c0 34 -9.5 61.5 -28.5 82.5s-48.167 36.833 -87.5 47.5l-82 23
c-61.333 17.333 -106.5 42 -135.5 74s-43.5 73.667 -43.5 125c0 60.667 20.5 109 61.5 145s96.167 54 165.5 54c34.667 0 70.167 -3.83301 106.5 -11.5s69.5 -18.5 99.5 -32.5l-26 -65c-68 27.333 -128.667 41 -182 41c-46.667 0 -83.167 -10.833 -109.5 -32.5
s-39.5 -51.167 -39.5 -88.5c0 -34 9.5 -61.5 28.5 -82.5s48.167 -36.833 87.5 -47.5l82 -23c61.333 -17.333 106.5 -42 135.5 -74s43.5 -73.667 43.5 -125c0 -41.333 -9.83301 -77.666 -29.5 -108.999s-47.5 -55.5 -83.5 -72.5s-78 -25.5 -126 -25.5
c-39.333 0 -78.5 5 -117.5 15z" />
    <glyph glyph-name="sacute" unicode="&#x15b;" horiz-adv-x="463" 
d="M124 0.5c-31.333 8.33301 -58.667 19.833 -82 34.5l26 62c48 -29.333 98.667 -44 152 -44c40 0 70.167 7.5 90.5 22.5s30.5 37.167 30.5 66.5c0 22.667 -6.33301 40.667 -19 54s-32.667 23.333 -60 30l-71 17c-48.667 11.333 -84.5 29 -107.5 53s-34.5 55.667 -34.5 95
c0 48.667 16.167 86.667 48.5 114s77.5 41 135.5 41c29.333 0 58.333 -3.5 87 -10.5s54.334 -16.5 77.001 -28.5l-29 -62c-46.667 24 -92.334 36 -137.001 36c-36 0 -63.333 -7.16699 -82 -21.5s-28 -35.166 -28 -62.499c0 -21.333 6.33301 -38.5 19 -51.5
s32.667 -22.833 60 -29.5l71 -17c48.667 -11.333 84.5 -29.333 107.5 -54s34.5 -57.334 34.5 -98.001c0 -50 -17 -89 -51 -117s-81.333 -42 -142 -42c-32.667 0 -64.667 4.16699 -96 12.5zM173.999 625l103 159h85v-10l-132 -159h-56v10z" />
    <glyph glyph-name="Scircumflex" unicode="&#x15c;" horiz-adv-x="560" 
d="M168 781h-58v12l117 133h82l117 -133v-12h-61l-98 94zM462.5 320c29 -32 43.5 -73.668 43.5 -125.001c0 -41.333 -9.83301 -77.666 -29.5 -108.999s-47.5 -55.5 -83.5 -72.5s-78 -25.5 -126 -25.5c-39.333 0 -78.5 5 -117.5 15s-73.5 24 -103.5 42l27 65
c62 -36 126.667 -54 194 -54c51.333 0 91.333 11.5 120 34.5s43 54.5 43 94.5c0 34 -9.5 61.5 -28.5 82.5s-48.167 36.833 -87.5 47.5l-82 23c-61.333 17.333 -106.5 42 -135.5 74s-43.5 73.667 -43.5 125c0 60.667 20.5 109 61.5 145s96.167 54 165.5 54
c34.667 0 70.167 -3.83301 106.5 -11.5s69.5 -18.5 99.5 -32.5l-26 -65c-68 27.333 -128.667 41 -182 41c-46.667 0 -83.167 -10.833 -109.5 -32.5s-39.5 -51.167 -39.5 -88.5c0 -34 9.5 -61.5 28.5 -82.5s48.167 -36.833 87.5 -47.5l82 -23
c61.333 -17.333 106.5 -42 135.5 -74z" />
    <glyph glyph-name="scircumflex" unicode="&#x15d;" horiz-adv-x="463" 
d="M124 0.5c-31.333 8.33301 -58.667 19.833 -82 34.5l26 62c48 -29.333 98.667 -44 152 -44c40 0 70.167 7.5 90.5 22.5s30.5 37.167 30.5 66.5c0 22.667 -6.33301 40.667 -19 54s-32.667 23.333 -60 30l-71 17c-48.667 11.333 -84.5 29 -107.5 53s-34.5 55.667 -34.5 95
c0 48.667 16.167 86.667 48.5 114s77.5 41 135.5 41c29.333 0 58.333 -3.5 87 -10.5s54.334 -16.5 77.001 -28.5l-29 -62c-46.667 24 -92.334 36 -137.001 36c-36 0 -63.333 -7.16699 -82 -21.5s-28 -35.166 -28 -62.499c0 -21.333 6.33301 -38.5 19 -51.5
s32.667 -22.833 60 -29.5l71 -17c48.667 -11.333 84.5 -29.333 107.5 -54s34.5 -57.334 34.5 -98.001c0 -50 -17 -89 -51 -117s-81.333 -42 -142 -42c-32.667 0 -64.667 4.16699 -96 12.5zM363.999 625v-10h-55l-87 113l-86 -113h-52v10l102 159h76z" />
    <glyph glyph-name="Scedilla" unicode="&#x15e;" horiz-adv-x="560" 
d="M449.5 52c-37.667 -36.667 -88.5 -57.667 -152.5 -63l-34 -51c9.33301 1.33301 16 2 20 2c32.667 0 58 -7 76 -21s27 -33.667 27 -59c0 -27.333 -10.167 -48.666 -30.5 -63.999s-48.5 -23 -84.5 -23c-36.667 0 -69.334 7.66699 -98.001 23l15 44
c32 -12.667 59.667 -19 83 -19c36 0 54 13 54 39s-16.667 39 -50 39c-15.333 0 -30 -3 -44 -9l-21 24l32 75c-35.333 2 -70.166 7.83301 -104.499 17.5s-64.833 22.5 -91.5 38.5l27 65c62 -36 126.667 -54 194 -54c51.333 0 91.333 11.5 120 34.5s43 54.5 43 94.5
c0 34 -9.5 61.5 -28.5 82.5s-48.167 36.833 -87.5 47.5l-82 23c-61.333 17.333 -106.5 42 -135.5 74s-43.5 73.667 -43.5 125c0 60.667 20.5 109 61.5 145s96.167 54 165.5 54c34.667 0 70.167 -3.83301 106.5 -11.5s69.5 -18.5 99.5 -32.5l-26 -65
c-68 27.333 -128.667 41 -182 41c-46.667 0 -83.167 -10.833 -109.5 -32.5s-39.5 -51.167 -39.5 -88.5c0 -34 9.5 -61.5 28.5 -82.5s48.167 -36.833 87.5 -47.5l82 -23c61.333 -17.333 106.5 -42 135.5 -74s43.5 -73.667 43.5 -125
c0 -58.667 -18.833 -106.334 -56.5 -143.001z" />
    <glyph glyph-name="scedilla" unicode="&#x15f;" horiz-adv-x="463" 
d="M370 37c-28.667 -27.333 -68.999 -43.334 -120.999 -48.001l-34 -51c9.33301 1.33301 16 2 20 2c32.667 0 58 -7 76 -21s27 -33.667 27 -59c0 -27.333 -10.167 -48.666 -30.5 -63.999s-48.5 -23 -84.5 -23c-36.667 0 -69.334 7.66699 -98.001 23l15 44
c32 -12.667 59.667 -19 83 -19c36 0 54 13 54 39s-16.667 39 -50 39c-15.333 0 -30 -3 -44 -9l-21 24l32 75c-28.667 2 -56.167 7 -82.5 15s-49.5 18.333 -69.5 31l26 62c48 -29.333 98.667 -44 152 -44c40 0 70.167 7.5 90.5 22.5s30.5 37.167 30.5 66.5
c0 22.667 -6.33301 40.667 -19 54s-32.667 23.333 -60 30l-71 17c-48.667 11.333 -84.5 29 -107.5 53s-34.5 55.667 -34.5 95c0 48.667 16.167 86.667 48.5 114s77.5 41 135.5 41c29.333 0 58.333 -3.5 87 -10.5s54.334 -16.5 77.001 -28.5l-29 -62
c-46.667 24 -92.334 36 -137.001 36c-36 0 -63.333 -7.16699 -82 -21.5s-28 -35.166 -28 -62.499c0 -21.333 6.33301 -38.5 19 -51.5s32.667 -22.833 60 -29.5l71 -17c48.667 -11.333 84.5 -29.333 107.5 -54s34.5 -57.334 34.5 -98.001c0 -46 -14.333 -82.667 -43 -110z
" />
    <glyph glyph-name="Scaron" unicode="&#x160;" horiz-adv-x="560" 
d="M227 781l-117 133v12h61l99 -94l98 94h58v-12l-117 -133h-82zM462.5 320c29 -32 43.5 -73.668 43.5 -125.001c0 -41.333 -9.83301 -77.666 -29.5 -108.999s-47.5 -55.5 -83.5 -72.5s-78 -25.5 -126 -25.5c-39.333 0 -78.5 5 -117.5 15s-73.5 24 -103.5 42l27 65
c62 -36 126.667 -54 194 -54c51.333 0 91.333 11.5 120 34.5s43 54.5 43 94.5c0 34 -9.5 61.5 -28.5 82.5s-48.167 36.833 -87.5 47.5l-82 23c-61.333 17.333 -106.5 42 -135.5 74s-43.5 73.667 -43.5 125c0 60.667 20.5 109 61.5 145s96.167 54 165.5 54
c34.667 0 70.167 -3.83301 106.5 -11.5s69.5 -18.5 99.5 -32.5l-26 -65c-68 27.333 -128.667 41 -182 41c-46.667 0 -83.167 -10.833 -109.5 -32.5s-39.5 -51.167 -39.5 -88.5c0 -34 9.5 -61.5 28.5 -82.5s48.167 -36.833 87.5 -47.5l82 -23
c61.333 -17.333 106.5 -42 135.5 -74z" />
    <glyph glyph-name="scaron" unicode="&#x161;" horiz-adv-x="463" 
d="M124 0.5c-31.333 8.33301 -58.667 19.833 -82 34.5l26 62c48 -29.333 98.667 -44 152 -44c40 0 70.167 7.5 90.5 22.5s30.5 37.167 30.5 66.5c0 22.667 -6.33301 40.667 -19 54s-32.667 23.333 -60 30l-71 17c-48.667 11.333 -84.5 29 -107.5 53s-34.5 55.667 -34.5 95
c0 48.667 16.167 86.667 48.5 114s77.5 41 135.5 41c29.333 0 58.333 -3.5 87 -10.5s54.334 -16.5 77.001 -28.5l-29 -62c-46.667 24 -92.334 36 -137.001 36c-36 0 -63.333 -7.16699 -82 -21.5s-28 -35.166 -28 -62.499c0 -21.333 6.33301 -38.5 19 -51.5
s32.667 -22.833 60 -29.5l71 -17c48.667 -11.333 84.5 -29.333 107.5 -54s34.5 -57.334 34.5 -98.001c0 -50 -17 -89 -51 -117s-81.333 -42 -142 -42c-32.667 0 -64.667 4.16699 -96 12.5zM363.999 784v-10l-102 -159h-76l-102 159v10h55l86 -113l87 113h52z" />
    <glyph glyph-name="uni0162" unicode="&#x162;" horiz-adv-x="526" 
d="M291 0l-40.999 -62.001c9.33301 1.33301 16 2 20 2c32.667 0 58 -7 76 -21s27 -33.667 27 -59c0 -27.333 -10.167 -48.666 -30.5 -63.999s-48.5 -23 -84.5 -23c-36.667 0 -69.334 7.66699 -98.001 23l15 44c32 -12.667 59.667 -19 83 -19c36 0 54 13 54 39
s-16.667 39 -50 39c-15.333 0 -30 -3 -44 -9l-21 24l37 86h-8v656h-194v68h268h194v-68h-194v-656h-9z" />
    <glyph glyph-name="uni0163" unicode="&#x163;" horiz-adv-x="382" 
d="M306 -81c18 -14 27.001 -33.668 27.001 -59.001c0 -27.333 -10.167 -48.666 -30.5 -63.999s-48.5 -23 -84.5 -23c-36.667 0 -69.334 7.66699 -98.001 23l15 44c32 -12.667 59.667 -19 83 -19c36 0 54 13 54 39s-16.667 39 -50 39c-15.333 0 -30 -3 -44 -9l-21 24l41 94
c-56 24.667 -84 78.667 -84 162v303h-93v61h93v160h72v-160h161v-61h-161v-293c0 -42 8.16699 -72.833 24.5 -92.5s41.833 -29.5 76.5 -29.5c18 0 36.333 3 55 9l12 -62c-22.667 -8 -48.667 -12 -78 -12c-7.33301 0 -17 0.666992 -29 2l-37 -57c9.33301 1.33301 16 2 20 2
c32.667 0 58 -7 76 -21z" />
    <glyph glyph-name="Tcaron" unicode="&#x164;" horiz-adv-x="526" 
d="M222 781l-117 133v12h61l99 -94l98 94h58v-12l-117 -133h-82zM494 656h-194v-656h-74v656h-194v68h268h194v-68z" />
    <glyph glyph-name="tcaron" unicode="&#x165;" horiz-adv-x="382" 
d="M269 770h72v-10l-24 -175h-48v185zM155 37.5c-27.333 29.667 -41.001 73.833 -41.001 132.5v303h-93v61h93v160h72v-160h161v-61h-161v-293c0 -42 8.16699 -72.833 24.5 -92.5s41.833 -29.5 76.5 -29.5c18 0 36.333 3 55 9l12 -62c-22.667 -8 -48.667 -12 -78 -12
c-53.333 0 -93.666 14.833 -120.999 44.5z" />
    <glyph glyph-name="Tbar" unicode="&#x166;" horiz-adv-x="526" 
d="M300 656v-271h124v-65h-124v-320h-74v320h-124v65h124v271h-194v68h268h194v-68h-194z" />
    <glyph glyph-name="tbar" unicode="&#x167;" horiz-adv-x="382" 
d="M354 5c-22.667 -8 -48.668 -12.001 -78.001 -12.001c-53.333 0 -93.666 14.833 -120.999 44.5s-41 73.834 -41 132.501v125h-93v59h93v119h-93v61h93v160h72v-160h161v-61h-161v-119h161v-59h-161v-115c0 -42 8.16699 -72.833 24.5 -92.5s41.833 -29.5 76.5 -29.5
c18 0 36.333 3 55 9z" />
    <glyph glyph-name="Utilde" unicode="&#x168;" horiz-adv-x="684" 
d="M366 800.5c-13.333 7 -28 16.833 -44 29.5c-12 9.33301 -21.667 16.166 -29 20.499s-15 6.5 -23 6.5c-23.333 0 -37.666 -21.667 -42.999 -65h-48c1.33301 38.667 10 69.167 26 91.5s38.333 33.5 67 33.5c17.333 0 32.666 -3.5 45.999 -10.5s28 -16.833 44 -29.5
c12 -9.33301 21.667 -16.166 29 -20.499s15 -6.5 23 -6.5c23.333 0 37.666 21.667 42.999 65h48c-1.33301 -38.667 -10 -69.167 -26 -91.5s-38.333 -33.5 -67 -33.5c-17.333 0 -32.666 3.5 -45.999 10.5zM158.5 58.5c-43.667 47.667 -65.5 113.834 -65.5 198.501v467h74
v-467c0 -66.667 14.833 -117.167 44.5 -151.5s73.167 -51.5 130.5 -51.5s100.833 17.167 130.5 51.5s44.5 84.833 44.5 151.5v467h74v-467c0 -84.667 -22 -150.834 -66 -198.501s-105.333 -71.5 -184 -71.5c-78 0 -138.833 23.833 -182.5 71.5z" />
    <glyph glyph-name="utilde" unicode="&#x169;" horiz-adv-x="572" 
d="M478 534v-534h-67v64c-39.333 -51.333 -93 -77 -161 -77c-51.333 0 -91.333 15 -120 45s-43 71.333 -43 124v378h72v-373c0 -34 9.33301 -59.833 28 -77.5s46 -26.5 82 -26.5c28 0 53 5 75 15s42.667 26 62 48v414h72zM307 630.5c-13.333 7 -28 16.833 -44 29.5
c-12 9.33301 -21.667 16.166 -29 20.499s-15 6.5 -23 6.5c-23.333 0 -37.666 -21.667 -42.999 -65h-48c1.33301 38.667 10 69.167 26 91.5s38.333 33.5 67 33.5c17.333 0 32.666 -3.5 45.999 -10.5s28 -16.833 44 -29.5c12 -9.33301 21.667 -16.166 29 -20.499
s15 -6.5 23 -6.5c23.333 0 37.666 21.667 42.999 65h48c-1.33301 -38.667 -10 -69.167 -26 -91.5s-38.333 -33.5 -67 -33.5c-17.333 0 -32.666 3.5 -45.999 10.5z" />
    <glyph glyph-name="Umacron" unicode="&#x16a;" horiz-adv-x="684" 
d="M200 869h284v-58h-284v58zM158.5 58.5c-43.667 47.667 -65.5 113.834 -65.5 198.501v467h74v-467c0 -66.667 14.833 -117.167 44.5 -151.5s73.167 -51.5 130.5 -51.5s100.833 17.167 130.5 51.5s44.5 84.833 44.5 151.5v467h74v-467c0 -84.667 -22 -150.834 -66 -198.501
s-105.333 -71.5 -184 -71.5c-78 0 -138.833 23.833 -182.5 71.5z" />
    <glyph glyph-name="umacron" unicode="&#x16b;" horiz-adv-x="572" 
d="M478 534v-534h-67v64c-39.333 -51.333 -93 -77 -161 -77c-51.333 0 -91.333 15 -120 45s-43 71.333 -43 124v378h72v-373c0 -34 9.33301 -59.833 28 -77.5s46 -26.5 82 -26.5c28 0 53 5 75 15s42.667 26 62 48v414h72zM141 699h284v-58h-284v58z" />
    <glyph glyph-name="Ubreve" unicode="&#x16c;" horiz-adv-x="684" 
d="M242 823.5c-24.667 25.667 -38 61.167 -40 106.5h51c8 -55.333 38 -83 90 -83c52.667 0 83 27.667 91 83h48c-2 -45.333 -15.333 -80.833 -40 -106.5s-58 -38.5 -100 -38.5s-75.333 12.833 -100 38.5zM158.5 58.5c-43.667 47.667 -65.5 113.834 -65.5 198.501v467h74
v-467c0 -66.667 14.833 -117.167 44.5 -151.5s73.167 -51.5 130.5 -51.5s100.833 17.167 130.5 51.5s44.5 84.833 44.5 151.5v467h74v-467c0 -84.667 -22 -150.834 -66 -198.501s-105.333 -71.5 -184 -71.5c-78 0 -138.833 23.833 -182.5 71.5z" />
    <glyph glyph-name="ubreve" unicode="&#x16d;" horiz-adv-x="572" 
d="M478 534v-534h-67v64c-39.333 -51.333 -93 -77 -161 -77c-51.333 0 -91.333 15 -120 45s-43 71.333 -43 124v378h72v-373c0 -34 9.33301 -59.833 28 -77.5s46 -26.5 82 -26.5c28 0 53 5 75 15s42.667 26 62 48v414h72zM183 653.5c-24.667 25.667 -38 61.167 -40 106.5h51
c8 -55.333 38 -83 90 -83c52.667 0 83 27.667 91 83h48c-2 -45.333 -15.333 -80.833 -40 -106.5s-58 -38.5 -100 -38.5s-75.333 12.833 -100 38.5z" />
    <glyph glyph-name="Uring" unicode="&#x16e;" horiz-adv-x="684" 
d="M256.5 797c-20.333 18.667 -30.5 44.667 -30.5 78s10.167 59.333 30.5 78s48.833 28 85.5 28s65.167 -9.33301 85.5 -28s30.5 -44.667 30.5 -78s-10.167 -59.333 -30.5 -78s-48.833 -28 -85.5 -28s-65.167 9.33301 -85.5 28zM403 875c0 40.667 -20.333 61 -61 61
s-61 -20.333 -61 -61s20.333 -61 61 -61s61 20.333 61 61zM158.5 58.5c-43.667 47.667 -65.5 113.834 -65.5 198.501v467h74v-467c0 -66.667 14.833 -117.167 44.5 -151.5s73.167 -51.5 130.5 -51.5s100.833 17.167 130.5 51.5s44.5 84.833 44.5 151.5v467h74v-467
c0 -84.667 -22 -150.834 -66 -198.501s-105.333 -71.5 -184 -71.5c-78 0 -138.833 23.833 -182.5 71.5z" />
    <glyph glyph-name="uring" unicode="&#x16f;" horiz-adv-x="572" 
d="M478 534v-534h-67v64c-39.333 -51.333 -93 -77 -161 -77c-51.333 0 -91.333 15 -120 45s-43 71.333 -43 124v378h72v-373c0 -34 9.33301 -59.833 28 -77.5s46 -26.5 82 -26.5c28 0 53 5 75 15s42.667 26 62 48v414h72zM198.5 632c-20.333 18.667 -30.5 44.667 -30.5 78
s10.167 59.333 30.5 78s48.5 28 84.5 28s64.167 -9.33301 84.5 -28s30.5 -44.667 30.5 -78s-10.167 -59.333 -30.5 -78s-48.5 -28 -84.5 -28s-64.167 9.33301 -84.5 28zM344 710c0 41.333 -20.333 62 -61 62s-61 -20.667 -61 -62s20.333 -62 61 -62s61 20.667 61 62z" />
    <glyph glyph-name="Uhungarumlaut" unicode="&#x170;" horiz-adv-x="684" 
d="M216 793l101 133h83v-12l-130 -133h-54v12zM372 793l100 133h83v-12l-129 -133h-54v12zM158.5 58.5c-43.667 47.667 -65.5 113.834 -65.5 198.501v467h74v-467c0 -66.667 14.833 -117.167 44.5 -151.5s73.167 -51.5 130.5 -51.5s100.833 17.167 130.5 51.5
s44.5 84.833 44.5 151.5v467h74v-467c0 -84.667 -22 -150.834 -66 -198.501s-105.333 -71.5 -184 -71.5c-78 0 -138.833 23.833 -182.5 71.5z" />
    <glyph glyph-name="uhungarumlaut" unicode="&#x171;" horiz-adv-x="572" 
d="M478 534v-534h-67v64c-39.333 -51.333 -93 -77 -161 -77c-51.333 0 -91.333 15 -120 45s-43 71.333 -43 124v378h72v-373c0 -34 9.33301 -59.833 28 -77.5s46 -26.5 82 -26.5c28 0 53 5 75 15s42.667 26 62 48v414h72zM176 625l62 159h77v-10l-91 -159h-48v10zM317 625
l62 159h77v-10l-91 -159h-48v10z" />
    <glyph glyph-name="Uogonek" unicode="&#x172;" horiz-adv-x="684" 
d="M407.5 -53c-13.667 -22 -20.5 -42.6689 -20.5 -62.002c0 -29.333 16 -44 48 -44c22 0 44.333 6 67 18l21 -47c-13.333 -9.33301 -28.666 -16.5 -45.999 -21.5s-35.333 -7.5 -54 -7.5c-31.333 0 -56 8 -74 24s-27 37.667 -27 65c0 42 19 81.333 57 118
c-12 -2 -24.667 -3 -38 -3c-78 0 -138.833 23.833 -182.5 71.5s-65.5 113.834 -65.5 198.501v467h74v-467c0 -66.667 14.667 -117.167 44 -151.5s72.666 -51.5 129.999 -51.5s101 17.167 131 51.5s45 84.833 45 151.5v467h74v-467c0 -51.333 -8 -94.666 -24 -129.999
s-41 -67 -75 -95l-28 -23c-24 -19.333 -42.833 -40 -56.5 -62z" />
    <glyph glyph-name="uogonek" unicode="&#x173;" horiz-adv-x="572" 
d="M524 -188c-13.333 -9.33301 -28.668 -16.501 -46.001 -21.501s-35.333 -7.5 -54 -7.5c-31.333 0 -56 7.83301 -74 23.5s-27 37.5 -27 65.5c0 26 8 50.5 24 73.5s38 42.167 66 57.5v64c-23.333 -27.333 -48.166 -47.5 -74.499 -60.5s-55.833 -19.5 -88.5 -19.5
c-51.333 0 -91.333 15 -120 45s-43 71.333 -43 124v378h72v-373c0 -34 9.33301 -59.833 28 -77.5s46 -26.5 82 -26.5c28 0 53 5 75 15s42.667 26 62 48v414h72v-534c-29.333 -16.667 -51.666 -34.667 -66.999 -54s-23 -39.666 -23 -60.999c0 -29.333 16 -44 48 -44
c21.333 0 43.666 6 66.999 18z" />
    <glyph glyph-name="Wcircumflex" unicode="&#x174;" horiz-adv-x="894" 
d="M347 781h-58v12l117 133h82l117 -133v-12h-61l-98 94zM856 724l-186 -724h-84l-140 607l-139 -607h-84l-185 724h79l149 -633l140 632h82l142 -630l148 631h78z" />
    <glyph glyph-name="wcircumflex" unicode="&#x175;" horiz-adv-x="779" 
d="M745 534l-159 -534h-80l-117 428l-117 -428h-80l-158 534h78l121 -454l119 454h76l120 -454l120 454h77zM531 625v-10h-55l-87 113l-86 -113h-52v10l102 159h76z" />
    <glyph glyph-name="Ycircumflex" unicode="&#x176;" horiz-adv-x="586" 
d="M192 781h-58v12l117 133h82l117 -133v-12h-61l-98 94zM558 724l-229 -464v-260h-74v260l-227 464h83l183 -377l182 377h82z" />
    <glyph glyph-name="ycircumflex" unicode="&#x177;" horiz-adv-x="515" 
d="M483 534l-190 -542c-17.333 -48 -45.5 -89.833 -84.5 -125.5s-88.167 -64.167 -147.5 -85.5l-26 64c48 16.667 87 37.167 117 61.5s53.333 53.833 70 88.5l-190 539h79l148 -447l146 447h78zM399 625v-10h-55l-87 113l-86 -113h-52v10l102 159h76z" />
    <glyph glyph-name="Ydieresis" unicode="&#x178;" horiz-adv-x="586" 
d="M159 813.5c-8.66699 9 -13 21.5 -13 37.5s4.33301 28.667 13 38s20.667 14 36 14c16 0 28.333 -4.5 37 -13.5s13 -21.5 13 -37.5c0 -16.667 -4.33301 -29.5 -13 -38.5s-21 -13.5 -37 -13.5c-15.333 0 -27.333 4.5 -36 13.5zM352 813.5c-8.66699 9 -13 21.5 -13 37.5
s4.33301 28.667 13 38s20.667 14 36 14c16 0 28.333 -4.5 37 -13.5s13 -21.5 13 -37.5c0 -16.667 -4.33301 -29.5 -13 -38.5s-21 -13.5 -37 -13.5c-15.333 0 -27.333 4.5 -36 13.5zM558 724l-229 -464v-260h-74v260l-227 464h83l183 -377l182 377h82z" />
    <glyph glyph-name="Zacute" unicode="&#x179;" horiz-adv-x="551" 
d="M278 781h-66v12l153 133h95v-12zM503 66v-66h-457v67l369 591h-357v66h441v-66l-369 -592h373z" />
    <glyph glyph-name="zacute" unicode="&#x17a;" horiz-adv-x="463" 
d="M418 61v-61h-374v61l287 412h-279v61h362v-61l-287 -412h291zM179 625l103 159h85v-10l-132 -159h-56v10z" />
    <glyph glyph-name="Zdotaccent" unicode="&#x17b;" horiz-adv-x="551" 
d="M235.5 814c-9 9.33301 -13.5 22.333 -13.5 39c0 17.333 4.5 30.666 13.5 39.999s21.833 14 38.5 14s29.5 -4.66699 38.5 -14s13.5 -22.333 13.5 -39c0 -17.333 -4.5 -30.666 -13.5 -39.999s-21.833 -14 -38.5 -14s-29.5 4.66699 -38.5 14zM503 66v-66h-457v67l369 591
h-357v66h441v-66l-369 -592h373z" />
    <glyph glyph-name="zdotaccent" unicode="&#x17c;" horiz-adv-x="463" 
d="M418 61v-61h-374v61l287 412h-279v61h362v-61l-287 -412h291zM190.5 644c-9 9.33301 -13.5 22.333 -13.5 39c0 17.333 4.5 30.666 13.5 39.999s21.833 14 38.5 14s29.5 -4.66699 38.5 -14s13.5 -22.333 13.5 -39c0 -17.333 -4.5 -30.666 -13.5 -39.999
s-21.833 -14 -38.5 -14s-29.5 4.66699 -38.5 14z" />
    <glyph glyph-name="Zcaron" unicode="&#x17d;" horiz-adv-x="551" 
d="M233 781l-117 133v12h61l99 -94l98 94h58v-12l-117 -133h-82zM503 66v-66h-457v67l369 591h-357v66h441v-66l-369 -592h373z" />
    <glyph glyph-name="zcaron" unicode="&#x17e;" horiz-adv-x="463" 
d="M418 61v-61h-374v61l287 412h-279v61h362v-61l-287 -412h291zM369 784v-10l-102 -159h-76l-102 159v10h55l86 -113l87 113h52z" />
    <glyph glyph-name="longs" unicode="&#x17f;" horiz-adv-x="280" 
d="M315 770v-64.001c-20 2.66699 -37 4 -51 4c-32 0 -56.333 -9.16699 -73 -27.5s-25 -45.166 -25 -80.499v-18v-584h-72v594v8c0 54.667 15 97.167 45 127.5s71.667 45.5 125 45.5c20.667 0 37.667 -1.66699 51 -5z" />
    <glyph glyph-name="uni0180" unicode="&#x180;" horiz-adv-x="576" 
d="M465.5 456.5c35.667 -48.333 53.501 -115.833 53.501 -202.5c0 -84 -19 -149.5 -57 -196.5s-90.667 -70.5 -158 -70.5c-28.667 0 -55.334 5.83301 -80.001 17.5s-45.667 28.167 -63 49.5v-54h-67v622h-68v53h68v95h72v-95h230v-53h-230v-167c36 49.333 86 74 150 74
s113.833 -24.167 149.5 -72.5zM408.501 104c23.667 34 35.498 84 35.498 150c0 67.333 -12.333 118.333 -37 153s-61 52 -109 52c-26 0 -49.667 -5.16699 -71 -15.5s-41.666 -26.833 -60.999 -49.5v-279c16.667 -19.333 37.334 -34.5 62.001 -45.5s50 -16.5 76 -16.5
c46 0 80.833 17 104.5 51z" />
    <glyph glyph-name="uni0181" unicode="&#x181;" horiz-adv-x="694" 
d="M606.5 320.5c22.333 -29.667 33.502 -68.499 33.502 -116.499c0 -64 -19.167 -114 -57.5 -150s-91.833 -54 -160.5 -54h-235h-39v658c-26.667 0 -46.667 -6.5 -60 -19.5s-20 -32.167 -20 -57.5c0 -10 1 -22.667 3 -38h-70c-2 10 -3 22.333 -3 37
c0 45.333 13.167 80.666 39.5 105.999s63.166 38 110.499 38h74h164c67.333 0 119.666 -17.333 156.999 -52s56 -83 56 -145c0 -78.667 -30.667 -127 -92 -145c44 -11.333 77.167 -31.833 99.5 -61.5zM222.002 657.001v-252h164c44.667 0 78.5 10.333 101.5 31
s34.5 51 34.5 91c0 42.667 -11.833 75 -35.5 97s-58.5 33 -104.5 33h-160zM527.502 102.001c23 23.333 34.5 57.332 34.5 101.999s-11.833 78.334 -35.5 101.001s-58.5 34 -104.5 34h-200v-272h204c44.667 0 78.5 11.667 101.5 35z" />
    <glyph glyph-name="uni0182" unicode="&#x182;" horiz-adv-x="623" 
d="M507.5 392c41 -38.667 61.499 -94.667 61.499 -168c0 -71.333 -20.667 -126.5 -62 -165.5s-97.666 -58.5 -168.999 -58.5h-240v724h74h346v-62h-346v-212h162c74.667 0 132.5 -19.333 173.5 -58zM450.499 106c27 26 40.499 65.334 40.499 118.001
c0 53.333 -13.167 93.166 -39.5 119.499s-64.166 39.5 -113.499 39.5h-166v-316h162c50.667 0 89.5 13 116.5 39z" />
    <glyph glyph-name="uni0183" unicode="&#x183;" horiz-adv-x="574" 
d="M464 472c35.333 -50 53.0029 -119.666 53.0029 -208.999c0 -86.667 -18.833 -154.334 -56.5 -203.001s-89.834 -73 -156.501 -73c-28.667 0 -55.334 5.83301 -80.001 17.5s-45.667 28.167 -63 49.5v-54h-67v493v277h72h267v-59h-267v-238c36 49.333 86 74 150 74
c63.333 0 112.666 -25 147.999 -75zM407.003 106.001c23.333 35.333 34.999 87.667 34.999 157c0 70.667 -12.167 124 -36.5 160s-60.166 54 -107.499 54c-26 0 -49.667 -5.16699 -71 -15.5s-41.666 -26.833 -60.999 -49.5v-297c17.333 -19.333 38 -34.5 62 -45.5
s49.333 -16.5 76 -16.5c45.333 0 79.666 17.667 102.999 53z" />
    <glyph glyph-name="uni0184" unicode="&#x184;" horiz-adv-x="604" 
d="M516.5 392c41 -38.667 61.499 -94.667 61.499 -168c0 -71.333 -20.667 -126.5 -62 -165.5s-97.666 -58.5 -168.999 -58.5h-240v525l-69 63v33l90 103h53v-199v-75h162c74.667 0 132.5 -19.333 173.5 -58zM459.499 106c27 26 40.499 65.334 40.499 118.001
c0 53.333 -13.167 93.166 -39.5 119.499s-64.166 39.5 -113.499 39.5h-166v-316h162c50.667 0 89.5 13 116.5 39z" />
    <glyph glyph-name="uni0185" unicode="&#x185;" horiz-adv-x="575" 
d="M465 472c35.333 -50 53.0029 -119.666 53.0029 -208.999c0 -86.667 -18.833 -154.334 -56.5 -203.001s-89.834 -73 -156.501 -73c-28.667 0 -55.334 5.83301 -80.001 17.5s-45.667 28.167 -63 49.5v-54h-67v493v84l-61 68v25l82 100h51v-193v-104c36 49.333 86 74 150 74
c63.333 0 112.666 -25 147.999 -75zM408.003 106.001c23.333 35.333 34.999 87.667 34.999 157c0 70.667 -12.167 124 -36.5 160s-60.166 54 -107.499 54c-26 0 -49.667 -5.16699 -71 -15.5s-41.666 -26.833 -60.999 -49.5v-297c17.333 -19.333 38 -34.5 62 -45.5
s49.333 -16.5 76 -16.5c45.333 0 79.666 17.667 102.999 53z" />
    <glyph glyph-name="uni0186" unicode="&#x186;" horiz-adv-x="599" 
d="M397.5 693c47.667 -28.667 84.167 -70 109.5 -124s38 -118.333 38 -193c0 -77.333 -13 -145.5 -39 -204.5s-62.667 -104.5 -110 -136.5s-102.333 -48 -165 -48c-32 0 -63.833 4 -95.5 12s-60.834 19.667 -87.501 35l28 61c55.333 -26 107.666 -39 156.999 -39
c73.333 0 130.666 27.5 171.999 82.5s62 131.833 62 230.5c0 97.333 -20.833 171.166 -62.5 221.499s-103.167 75.5 -184.5 75.5c-59.333 0 -109.333 -11.667 -150 -35l-28 60c20.667 14.667 47.334 25.834 80.001 33.501s67.334 11.5 104.001 11.5
c66.667 0 123.834 -14.333 171.501 -43z" />
    <glyph glyph-name="uni0187" unicode="&#x187;" horiz-adv-x="693" 
d="M671 848l0.00292969 -64c-14.667 2 -27.334 3 -38.001 3c-26.667 0 -47 -7.33301 -61 -22s-21 -36 -21 -64v-72h-28c-54.667 26 -107 39 -157 39c-73.333 0 -130.666 -27.5 -171.999 -82.5s-62 -131.833 -62 -230.5c0 -97.333 20.833 -171.166 62.5 -221.499
s103.167 -75.5 184.5 -75.5c59.333 0 109.333 11.667 150 35l28 -60c-20.667 -14.667 -47.334 -25.834 -80.001 -33.501s-67.334 -11.5 -104.001 -11.5c-66.667 0 -123.834 14.333 -171.501 43s-84.167 70 -109.5 124s-38 118.333 -38 193c0 77.333 13 145.5 39 204.5
s62.667 104.5 110 136.5s102.333 48 165 48c42 0 83 -6.66699 123 -20c2.66699 42 16.5 74.833 41.5 98.5s58.833 35.5 101.5 35.5c14.667 0 27 -1 37 -3z" />
    <glyph glyph-name="uni0188" unicode="&#x188;" horiz-adv-x="573" 
d="M556 662l0.00390625 -62.999c-14.667 2 -27.334 3 -38.001 3c-26.667 0 -47 -7.33301 -61 -22s-21 -36.334 -21 -65.001v-70h-28c-43.333 23.333 -85 35 -125 35c-48.667 0 -86.667 -18 -114 -54s-41 -86.333 -41 -151c0 -72 14.167 -126.5 42.5 -163.5
s70.166 -55.5 125.499 -55.5c41.333 0 81 11.333 119 34l27 -58c-18.667 -14 -41.334 -24.833 -68.001 -32.5s-54.667 -11.5 -84 -11.5c-74.667 0 -132.834 24.667 -174.501 74s-62.5 118.333 -62.5 207c0 55.333 9.66699 104 29 146s46.5 74.5 81.5 97.5
s75.5 34.5 121.5 34.5c27.333 0 57.666 -5 90.999 -15c3.33301 42 17.333 74.667 42 98s58.334 35 101.001 35c14.667 0 27 -1 37 -3z" />
    <glyph glyph-name="uni0189" unicode="&#x189;" horiz-adv-x="688" 
d="M538 632c57.333 -61.333 86 -151.333 86 -270s-29 -208.667 -87 -270s-141.667 -92 -251 -92h-189v334h-68v65h68v325h193c108 0 190.667 -30.667 248 -92zM481 142c43.333 50 65 123.333 65 220c0 97.333 -22 170.833 -66 220.5s-108.667 74.5 -194 74.5h-115v-258h191
v-65h-191v-267h119c84 0 147.667 25 191 75z" />
    <glyph glyph-name="uni018A" unicode="&#x18a;" horiz-adv-x="739" 
d="M589 632c57.333 -61.333 86.001 -151.332 86.001 -269.999s-29 -208.667 -87 -270s-141.667 -92 -251 -92h-189v658c-26.667 0 -46.667 -6.5 -60 -19.5s-20 -32.167 -20 -57.5c0 -10 1 -22.667 3 -38h-70c-2 10 -3 22.333 -3 37c0 45.333 13.167 80.666 39.5 105.999
s63.166 38 110.499 38h193c108 0 190.667 -30.667 248 -92zM532.001 142.001c43.333 50 65 123.333 65 220c0 97.333 -22 170.833 -66 220.5s-108.667 74.5 -194 74.5h-115v-590h119c84 0 147.667 25 191 75z" />
    <glyph glyph-name="uni018B" unicode="&#x18b;" horiz-adv-x="623" 
d="M525 0h-240.001c-71.333 0 -127.666 19.5 -168.999 58.5s-62 94.167 -62 165.5c0 73.333 20.5 129.333 61.5 168s98.833 58 173.5 58h162v212h-346v62h420v-724zM450.999 383l-166.001 -0.000976562c-49.333 0 -87.166 -13.167 -113.499 -39.5
s-39.5 -66.166 -39.5 -119.499c0 -52.667 13.5 -92 40.5 -118s65.833 -39 116.5 -39h162v316z" />
    <glyph glyph-name="uni018C" unicode="&#x18c;" horiz-adv-x="574" 
d="M480 41l-0.00195312 -41h-67v68c-18 -26.667 -40.167 -46.834 -66.5 -60.501s-55.833 -20.5 -88.5 -20.5c-63.333 0 -112.666 25 -147.999 75s-53 119.667 -53 209c0 86.667 18.833 154.334 56.5 203.001s89.834 73 156.501 73c27.333 0 52.833 -5.33301 76.5 -16
s44.167 -25.667 61.5 -45v225h-267v59h339v-729zM346.998 72.5c21.333 10.333 41.667 26.832 61 49.499v297c-17.333 19.333 -38 34.5 -62 45.5s-49.333 16.5 -76 16.5c-45.333 0 -79.666 -17.667 -102.999 -53s-35 -87.666 -35 -156.999c0 -70.667 12.167 -124 36.5 -160
s60.166 -54 107.499 -54c26 0 49.667 5.16699 71 15.5z" />
    <glyph glyph-name="uni018D" unicode="&#x18d;" horiz-adv-x="554" 
d="M165.5 -209.5c-21.667 7 -43.5 16.501 -65.5 28.501l28 62c24 -12.667 44.167 -21.667 60.5 -27s37.166 -8 62.499 -8c34.667 0 60.5 6.83301 77.5 20.5s25.5 30.834 25.5 51.501c0 20 -7.83301 37.667 -23.5 53s-39.5 33 -71.5 53
c-14.667 9.33301 -25.667 16.666 -33 21.999c-33.333 22.667 -61.833 45.167 -85.5 67.5s-43.5 50 -59.5 83s-24 71.833 -24 116.5c0 36.667 7.83301 73 23.5 109s40.167 65.833 73.5 89.5s75 35.5 125 35.5c42.667 0 80.5 -10 113.5 -30s58.667 -47.667 77 -83
s27.5 -74.666 27.5 -117.999c0 -54 -14.5 -103.667 -43.5 -149s-71.5 -79.333 -127.5 -102c36.667 -24 62.834 -45.5 78.501 -64.5s23.5 -42.833 23.5 -71.5c0 -26.667 -6.83301 -51.334 -20.5 -74.001s-34 -40.834 -61 -54.501s-59.833 -20.5 -98.5 -20.5
c-33.333 0 -60.833 3.5 -82.5 10.5zM378 175.501c29.333 36.333 44 82.4971 44 138.497c0 50.667 -13.333 91.334 -40 122.001s-62 46 -106 46c-43.333 0 -78.333 -15.333 -105 -46s-40 -71 -40 -121c0 -55.333 11.667 -98.666 35 -129.999s57 -59.666 101 -84.999
c44.667 14 81.667 39.167 111 75.5z" />
    <glyph glyph-name="uni018E" unicode="&#x18e;" horiz-adv-x="574" 
d="M476 724v-724h-430v67h356v269h-258v68h258v253h-344v67h418z" />
    <glyph glyph-name="uni018F" unicode="&#x18f;" horiz-adv-x="685" 
d="M540.5 640.5c53.667 -63.667 80.498 -156.834 80.498 -279.501c0 -122 -24.5 -214.667 -73.5 -278s-119.5 -95 -211.5 -95c-56.667 0 -106.667 13.333 -150 40s-77 66.334 -101 119.001s-36 116.667 -36 192c0 17.333 1.33301 34 4 50h493c-4 86 -27 153 -69 201
s-98.667 72 -170 72c-62 0 -124.667 -17.667 -188 -53l-31 64c28.667 20 62.334 35.5 101.001 46.5s78.667 16.5 120 16.5c100.667 0 177.834 -31.833 231.501 -95.5zM486.498 125c35 44.667 54.833 110.667 59.5 198h-421c0.666992 -83.333 19.667 -148.333 57 -195
s89.333 -70 156 -70c64 0 113.5 22.333 148.5 67z" />
    <glyph glyph-name="uni0190" unicode="&#x190;" horiz-adv-x="544" 
d="M530 39c-29.333 -16.667 -63.168 -29.334 -101.501 -38.001s-77.166 -13 -116.499 -13c-80 0 -143.667 18.833 -191 56.5s-71 91.834 -71 162.501c0 88.667 43.667 146.667 131 174c-68.667 30 -103 84.667 -103 164c0 62.667 22.167 110.334 66.5 143.001
s101.833 49 172.5 49c34.667 0 67.834 -4.16699 99.501 -12.5s59.5 -19.5 83.5 -33.5l-26 -59c-52.667 24.667 -104 37 -154 37c-48.667 0 -88.334 -10.833 -119.001 -32.5s-46 -54.167 -46 -97.5s13 -76.5 39 -99.5s63 -34.5 111 -34.5h104v-66h-112
c-50.667 0 -91.5 -10.333 -122.5 -31s-46.5 -54.334 -46.5 -101.001c0 -48.667 16.667 -85.667 50 -111s81.333 -38 144 -38c60 0 118.667 14 176 42z" />
    <glyph glyph-name="uni0191" unicode="&#x191;" horiz-adv-x="536" 
d="M172 657l0.00195312 -265h276v-68h-276v-324v-64c0 -50.667 -12.167 -89 -36.5 -115s-59.833 -39 -106.5 -39c-20.667 0 -39.334 3 -56.001 9l11 64c12.667 -4 27.667 -6 45 -6c23.333 0 40.666 7 51.999 21s17 35.667 17 65v231v558h412v-67h-338z" />
    <glyph glyph-name="florin" unicode="&#x192;" horiz-adv-x="549" 
d="M324 582l-23 -165.999h154v-61h-163l-55 -398c-6.66699 -52 -25 -92.667 -55 -122s-67.667 -44 -113 -44c-13.333 0 -29.333 1.33301 -48 4l10 67c13.333 -2 24.666 -3 33.999 -3c28 0 50.333 8.33301 67 25s27.334 41 32.001 73l55 398h-114v61h123l23 166
c6.66699 48.667 24.667 86.667 54 114s66.666 41 111.999 41c22 0 43.333 -3.33301 64 -10s38 -16.334 52 -29.001l-36 -55c-25.333 18 -52.666 27 -81.999 27c-52.667 0 -83 -29.333 -91 -88z" />
    <glyph glyph-name="uni0193" unicode="&#x193;" horiz-adv-x="751" 
d="M693 848v-64c-15.333 2 -28 3 -38 3c-26.667 0 -47 -7.33301 -61 -22s-21 -36 -21 -64v-11v-61h-23c-56.667 26.667 -111.667 40 -165 40c-80 0 -140.5 -25.833 -181.5 -77.5s-61.5 -128.167 -61.5 -229.5s20.667 -178 62 -230s102.333 -78 183 -78
c44 0 87 6.66699 129 20v237h-134v67h208v-342c-24.667 -15.333 -54.834 -27.333 -90.501 -36s-73.167 -13 -112.5 -13c-67.333 0 -125.166 14.833 -173.499 44.5s-85.333 72.667 -111 129s-38.5 123.5 -38.5 201.5s12.833 145.167 38.5 201.5s62.667 99.333 111 129
s106.166 44.5 173.499 44.5c44 0 86 -6.33301 126 -19c3.33301 42 17.333 74.667 42 98s58.334 35 101.001 35c14.667 0 27 -1 37 -3z" />
    <glyph glyph-name="uni0194" unicode="&#x194;" horiz-adv-x="630" 
d="M403 41c15.333 -36.667 23 -69.333 23 -98c0 -35.333 -9.66699 -63 -29 -83s-46.333 -30 -81 -30s-61.5 9.83301 -80.5 29.5s-28.5 47.167 -28.5 82.5c0 28.667 7.66699 61.667 23 99l49 117l-243 566h81l199 -476l198 476h80l-241 -562zM357 -57.999
c0 23.333 -7.66699 52.667 -23 88l-19 44l-19 -44c-15.333 -36.667 -23 -65.667 -23 -87c0 -33.333 14.333 -50 43 -50c27.333 0 41 16.333 41 49z" />
    <glyph glyph-name="uni0195" unicode="&#x195;" horiz-adv-x="909" 
d="M815 279c0 -96 -17.833 -168.667 -53.5 -218s-88.167 -74 -157.5 -74c-57.333 0 -102.166 16.667 -134.499 50s-48.5 79.666 -48.5 138.999v104v93c0 69.333 -38 104 -114 104c-52.667 0 -99.667 -17.667 -141 -53v-424h-72v770h72v-288c44.667 43.333 98 65 160 65
c52.667 0 93.667 -14.833 123 -44.5s44 -71.167 44 -124.5v-175v-7c0 -47.333 9.66699 -83.166 29 -107.499s47.666 -36.5 84.999 -36.5c45.333 0 78.833 18.333 100.5 55s32.5 94 32.5 172c0 54 -2.5 100.5 -7.5 139.5s-12.5 77.5 -22.5 115.5h75
c20 -75.333 30 -160.333 30 -255z" />
    <glyph glyph-name="uni0196" unicode="&#x196;" horiz-adv-x="292" 
d="M124.5 21.5c-17.667 19 -26.498 46.833 -26.498 83.5v619h74v-616c0 -16 3.66699 -27.833 11 -35.5s18.666 -11.5 33.999 -11.5c11.333 0 24.666 1.33301 39.999 4l7 -64c-20 -5.33301 -40.667 -8 -62 -8c-34 0 -59.833 9.5 -77.5 28.5z" />
    <glyph glyph-name="uni0197" unicode="&#x197;" horiz-adv-x="314" 
d="M284 340h-90v-340h-74v340h-90v65h90v319h74v-319h90v-65z" />
    <glyph glyph-name="uni0198" unicode="&#x198;" horiz-adv-x="624" 
d="M525 654.5c-11.333 -9 -25.668 -24.167 -43.001 -45.5l-169 -211l297 -398h-91l-254 337l-93 -115v-222h-74v724h74v-407l262 341c21.333 28 41.833 48.167 61.5 60.5s41.167 18.5 64.5 18.5c38.667 0 71.334 -15.333 98.001 -46l-43 -54c-22.667 20.667 -42 31 -58 31
c-10 0 -20.667 -4.5 -32 -13.5z" />
    <glyph glyph-name="uni0199" unicode="&#x199;" horiz-adv-x="535" 
d="M244 253l-77.9971 -85.999v-167h-72v534v103c0 45.333 11.167 79.666 33.5 102.999s55.166 35 98.499 35c20.667 0 39.667 -3 57 -9l-10 -58c-12.667 4 -28.334 6 -47.001 6c-20.667 0 -35.834 -6.16699 -45.501 -18.5s-14.5 -31.5 -14.5 -57.5v-271v-111l241 278h89
l-202 -225l213 -309h-89z" />
    <glyph glyph-name="uni019A" unicode="&#x19a;" horiz-adv-x="337" 
d="M290 2c-20 -5.33301 -40.666 -8 -61.999 -8c-74.667 0 -112 38.333 -112 115v252h-86v59h86v350h72v-350h96v-59h-96v-249c0 -18.667 4.33301 -32.167 13 -40.5s22.667 -12.5 42 -12.5c11.333 0 24.666 1.33301 39.999 4z" />
    <glyph glyph-name="uni019B" unicode="&#x19b;" horiz-adv-x="515" 
d="M405 0l-146 447l-148 -447h-79l190 539c-4.66699 10 -13 24.333 -25 43l-119 -61h-10v55l90 46c-30.667 26.667 -71.667 49 -123 67l26 64c66 -24 119.667 -56.667 161 -98l114 58h10v-55l-89 -45c14.667 -21.333 26.667 -45 36 -71l190 -542h-78z" />
    <glyph glyph-name="uni019C" unicode="&#x19c;" horiz-adv-x="888" 
d="M790 724l-0.00195312 -724h-69v57c-22 -22.667 -46.333 -40 -73 -52s-54.667 -18 -84 -18c-34 0 -63 7 -87 21s-42.333 34.333 -55 61c-23.333 -26.667 -49.166 -47 -77.499 -61s-58.166 -21 -89.499 -21c-48.667 0 -87 15 -115 45s-42 71.333 -42 124v568h74v-563
c0 -34 8.66699 -59.833 26 -77.5s42.666 -26.5 75.999 -26.5c44.667 0 89.334 19.667 134.001 59c-2 12 -3 25.333 -3 40v568h74v-563c0 -34 8.83301 -59.833 26.5 -77.5s43.5 -26.5 77.5 -26.5c46 0 90.333 19 133 57v610h74z" />
    <glyph glyph-name="uni019D" unicode="&#x19d;" horiz-adv-x="722" 
d="M624 724v-724h-69l-385 598v-598v-64c0 -50.667 -12 -89 -36 -115s-59.333 -39 -106 -39c-21.333 0 -40.333 3 -57 9l11 64c12.667 -4 28 -6 46 -6c24 0 41.667 7 53 21s17 35.667 17 65v231v558h69l385 -597v597h72z" />
    <glyph glyph-name="uni019E" unicode="&#x19e;" horiz-adv-x="580" 
d="M447 502c29.333 -30 44 -71.333 44 -124v-378v-207h-72v272v308c0 34 -9.66699 59.833 -29 77.5s-47.333 26.5 -84 26.5c-26.667 0 -51.334 -4.16699 -74.001 -12.5s-44.667 -21.833 -66 -40.5v-424h-72v534h67v-57c44.667 46.667 99.334 70 164.001 70
c52 0 92.667 -15 122 -45z" />
    <glyph glyph-name="uni019F" unicode="&#x19f;" horiz-adv-x="712" 
d="M573 641.5c50 -63.667 75 -156.834 75 -279.501s-25 -215.834 -75 -279.501s-122.333 -95.5 -217 -95.5s-167 31.833 -217 95.5s-75 156.834 -75 279.501s25 215.834 75 279.501s122.333 95.5 217 95.5s167 -31.833 217 -95.5zM202 600.5
c-36 -46.333 -56 -114.166 -60 -203.499h428c-4 89.333 -24 157.166 -60 203.499s-87.333 69.5 -154 69.5s-118 -23.167 -154 -69.5zM511.5 125c36.333 47.333 55.835 116.666 58.502 207.999h-428c2.66699 -91.333 22.167 -160.666 58.5 -207.999s88.166 -71 155.499 -71
s119.166 23.667 155.499 71z" />
    <glyph glyph-name="Ohorn" unicode="&#x1a0;" horiz-adv-x="712" 
d="M657.5 705.5c-23 -22.333 -59.833 -34.8359 -110.5 -37.5029c67.333 -63.333 101 -165.333 101 -306c0 -122 -25.167 -215 -75.5 -279s-122.5 -96 -216.5 -96c-94.667 0 -167 31.833 -217 95.5s-75 156.834 -75 279.501s25 215.834 75 279.501s122.333 95.5 217 95.5
c18 0 33 -1 45 -3s25.667 -5 41 -9c2.66699 -0.666992 11.167 -2.66699 25.5 -6s32.5 -5 54.5 -5c36.667 0 62.667 7.16699 78 21.5s23 36.5 23 66.5c0 16.667 -1.66699 37 -5 61h69c3.33301 -20 5 -39.667 5 -59c0 -43.333 -11.5 -76.166 -34.5 -98.499zM515.5 591.497
c-36.333 52.333 -89.5 78.5 -159.5 78.5c-70.667 0 -124 -26 -160 -78s-54 -128.667 -54 -230s18 -178 54 -230s89.333 -78 160 -78c70 0 123.167 26.167 159.5 78.5s54.5 128.833 54.5 229.5s-18.167 177.167 -54.5 229.5z" />
    <glyph glyph-name="ohorn" unicode="&#x1a1;" horiz-adv-x="565" 
d="M530.5 522.5c-21.667 -20.333 -55.501 -32.168 -101.501 -35.501c46 -46 69 -119.333 69 -220c0 -91.333 -19 -160.833 -57 -208.5s-92.333 -71.5 -163 -71.5c-71.333 0 -126 23.833 -164 71.5s-57 117.167 -57 208.5s19 160.833 57 208.5s92.667 71.5 164 71.5
c17.333 0 37.333 -2 60 -6c18.667 -4.66699 38.334 -7 59.001 -7c37.333 0 63.5 5.83301 78.5 17.5s22.5 31.834 22.5 60.501c0 16.667 -1.66699 37 -5 61h65c3.33301 -20 5 -39.667 5 -59c0 -40.667 -10.833 -71.167 -32.5 -91.5zM385.999 106.498
c24.667 36.333 37 89.833 37 160.5s-12.333 124.167 -37 160.5s-60.667 54.5 -108 54.5c-48 0 -84.333 -18.167 -109 -54.5s-37 -89.833 -37 -160.5s12.333 -124.167 37 -160.5s61 -54.5 109 -54.5c47.333 0 83.333 18.167 108 54.5z" />
    <glyph glyph-name="uni01A2" unicode="&#x1a2;" horiz-adv-x="877" 
d="M779 724l-0.00195312 -932h-74v865h-105v-619c-59.333 -32.667 -140.666 -49 -243.999 -49c-94.667 0 -167 31.667 -217 95s-75 156 -75 278c0 124.667 23.667 218 71 280s121 93 221 93c14.667 0 32.334 -1 53.001 -3c67.333 -5.33301 131 -8 191 -8h179zM525.998 78
l-0.000976562 581.003c-24 1.33301 -41.667 2.66602 -53 3.99902c-8 0.666992 -23.667 1.66699 -47 3s-46.666 2 -69.999 2c-70.667 0 -124 -25.833 -160 -77.5s-54 -127.834 -54 -228.501s18 -176.834 54 -228.501s89.333 -77.5 160 -77.5c70 0 126.667 7.33301 170 22z
" />
    <glyph glyph-name="uni01A3" unicode="&#x1a3;" horiz-adv-x="720" 
d="M626 534l0.000976562 -740h-72v675h-91v-456c-70 -16 -132 -24 -186 -24c-71.333 0 -125.833 23.5 -163.5 70.5s-56.5 116.167 -56.5 207.5s19 160.5 57 207.5s92.667 70.5 164 70.5c10.667 0 28 -1.33301 52 -4c45.333 -4.66699 89.666 -7 132.999 -7h163zM391.001 63
v409l-26 3c-31.333 2.66699 -54 4.33398 -68 5.00098h-19c-48 0 -84.333 -17.833 -109 -53.5s-37 -88.834 -37 -159.501c0 -70 12.333 -123 37 -159s60.667 -54 108 -54c44 0 82 3 114 9z" />
    <glyph glyph-name="uni01A4" unicode="&#x1a4;" horiz-adv-x="645" 
d="M560 663.5c39.333 -40.333 59 -96.832 59 -169.499s-20.167 -129.5 -60.5 -170.5s-96.166 -61.5 -167.499 -61.5h-169v-262h-74v658c-26.667 0 -46.667 -6.5 -60 -19.5s-20 -32.167 -20 -57.5c0 -10 1 -22.667 3 -38h-70c-2 10 -3 22.333 -3 37
c0 45.333 13.167 80.666 39.5 105.999s63.166 38 110.499 38h74h173c70.667 0 125.667 -20.167 165 -60.5zM504 371.001c24.667 28 36.999 69 36.999 123c0 53.333 -12.667 93.833 -38 121.5s-62.666 41.5 -111.999 41.5h-169v-328h173c48 0 84.333 14 109 42z" />
    <glyph glyph-name="uni01A5" unicode="&#x1a5;" horiz-adv-x="574" 
d="M464 472c35.333 -50 53.0049 -119.665 53.0049 -208.998c0 -86.667 -18.833 -154.334 -56.5 -203.001s-89.834 -73 -156.501 -73c-27.333 0 -52.833 5.33301 -76.5 16s-44.167 25.667 -61.5 45v-255h-72v598v143v103c0 45.333 11.167 79.666 33.5 102.999
s55.166 35 98.499 35c20.667 0 39.667 -3 57 -9l-10 -58c-12.667 4 -28.334 6 -47.001 6c-20.667 0 -35.834 -6.16699 -45.501 -18.5s-14.5 -31.5 -14.5 -57.5v-165c36 49.333 86 74 150 74c63.333 0 112.666 -25 147.999 -75zM407.005 106.002
c23.333 35.333 34.999 87.667 34.999 157c0 70.667 -12.167 124 -36.5 160s-60.166 54 -107.499 54c-26 0 -49.667 -5.16699 -71 -15.5s-41.666 -26.833 -60.999 -49.5v-297c17.333 -19.333 38 -34.5 62 -45.5s49.333 -16.5 76 -16.5c45.333 0 79.666 17.667 102.999 53z
" />
    <glyph glyph-name="uni01A6" unicode="&#x1a6;" horiz-adv-x="626" 
d="M566 -110l-225 347.999h-10h-159v-238h-74v724h74v-81h163c68.667 0 122.167 -18.333 160.5 -55s57.5 -85.667 57.5 -147c0 -46.667 -11.5 -86.667 -34.5 -120s-56.167 -56.666 -99.5 -69.999l237 -361h-90zM172 304.999h162.999c46.667 0 81.667 12 105 36
s35 57.333 35 100c0 42 -12.167 75 -36.5 99s-60.166 36 -107.499 36h-159v-271z" />
    <glyph glyph-name="uni01A7" unicode="&#x1a7;" horiz-adv-x="560" 
d="M167 13.5c-36 17 -63.832 41.168 -83.499 72.501s-29.5 67.666 -29.5 108.999c0 51.333 14.5 93 43.5 125s74.167 56.667 135.5 74l82 23c39.333 10.667 68.5 26.5 87.5 47.5s28.5 48.5 28.5 82.5c0 37.333 -13.167 66.833 -39.5 88.5s-62.833 32.5 -109.5 32.5
c-52.667 0 -113.334 -13.667 -182.001 -41l-26 65c30 14 63.167 24.833 99.5 32.5s71.833 11.5 106.5 11.5c69.333 0 124.5 -18 165.5 -54s61.5 -84.333 61.5 -145c0 -51.333 -14.5 -93 -43.5 -125s-74.167 -56.667 -135.5 -74l-82 -23
c-39.333 -10.667 -68.5 -26.5 -87.5 -47.5s-28.5 -48.5 -28.5 -82.5c0 -40 14.333 -71.5 43 -94.5s68.667 -34.5 120 -34.5c67.333 0 132 18 194 54l27 -65c-30 -18 -64.5 -32 -103.5 -42s-78.167 -15 -117.5 -15c-48 0 -90 8.5 -126 25.5z" />
    <glyph glyph-name="uni01A8" unicode="&#x1a8;" horiz-adv-x="463" 
d="M101 30c-34 28 -51.001 67 -51.001 117c0 40.667 11.5 73.334 34.5 98.001s58.833 42.667 107.5 54l71 17c27.333 6.66699 47.333 16.5 60 29.5s19 30.167 19 51.5c0 27.333 -9.33301 48.166 -28 62.499s-46 21.5 -82 21.5c-44.667 0 -90.334 -12 -137.001 -36l-29 62
c22.667 12 48.334 21.5 77.001 28.5s57.667 10.5 87 10.5c58 0 103.167 -13.667 135.5 -41s48.5 -65.333 48.5 -114c0 -39.333 -11.5 -71 -34.5 -95s-58.833 -41.667 -107.5 -53l-71 -17c-27.333 -6.66699 -47.333 -16.667 -60 -30s-19 -31.333 -19 -54
c0 -29.333 10.167 -51.5 30.5 -66.5s50.5 -22.5 90.5 -22.5c53.333 0 104 14.667 152 44l26 -62c-23.333 -14.667 -50.666 -26.167 -81.999 -34.5s-63.333 -12.5 -96 -12.5c-60.667 0 -108 14 -142 42z" />
    <glyph glyph-name="uni01A9" unicode="&#x1a9;" horiz-adv-x="573" 
d="M56 67l245 300l-245 291v66h471v-66h-386l249 -291l-249 -301h386v-66h-471v67z" />
    <glyph glyph-name="uni01AA" unicode="&#x1aa;" horiz-adv-x="294" 
d="M349 -148v-64.001c-13.333 -3.33301 -30.333 -5 -51 -5c-53.333 0 -95 15.167 -125 45.5s-45 72.833 -45 127.5v101v523c-14 -12.667 -34.667 -19 -62 -19c-33.333 0 -60.166 9.5 -80.499 28.5s-30.5 46.5 -30.5 82.5s10.667 64.167 32 84.5s50.666 30.5 87.999 30.5
s67.5 -10.833 90.5 -32.5s34.5 -50.167 34.5 -85.5v-657v-56c0 -35.333 8.33301 -62.166 25 -80.499s41 -27.5 73 -27.5c14 0 31 1.33301 51 4zM127 671.999c0 16.667 -4.5 29.5 -13.5 38.5s-21.167 13.5 -36.5 13.5c-33.333 0 -50 -17.333 -50 -52
c0 -35.333 16.667 -53 50 -53s50 17.667 50 53z" />
    <glyph glyph-name="uni01AB" unicode="&#x1ab;" horiz-adv-x="382" 
d="M354 5l-0.00195312 -84.002c0 -45.333 -10.833 -79.666 -32.5 -102.999s-53.5 -35 -95.5 -35c-23.333 0 -43.666 3 -60.999 9l10 58c12.667 -4 29.667 -6 51 -6c22 0 38.333 6.16699 49 18.5s16 31.5 16 57.5v73h-15c-53.333 0 -93.666 14.833 -120.999 44.5
s-41 73.834 -41 132.501v303h-93v61h93v160h72v-160h161v-61h-161v-293c0 -42 8.16699 -72.833 24.5 -92.5s41.833 -29.5 76.5 -29.5c18 0 36.333 3 55 9z" />
    <glyph glyph-name="uni01AC" unicode="&#x1ac;" horiz-adv-x="526" 
d="M494 656l-194 0.000976562v-656h-74v656h-71c-53.333 0 -80 -25 -80 -75c0 -10 1 -22.667 3 -38h-70c-2 10 -3 22.333 -3 37c0 45.333 13.167 80.666 39.5 105.999s62.833 38 109.5 38h146h194v-68z" />
    <glyph glyph-name="uni01AD" unicode="&#x1ad;" horiz-adv-x="382" 
d="M354 5c-22.667 -8 -48.6699 -12.002 -78.0029 -12.002c-53.333 0 -93.666 14.833 -120.999 44.5s-41 73.834 -41 132.501v303h-93v61h93v68c0 54.667 15.833 97.167 47.5 127.5s75.834 45.5 132.501 45.5c20.667 0 37.667 -1.66699 51 -5v-64c-20 2.66699 -37 4 -51 4
c-35.333 0 -62.166 -9.16699 -80.499 -27.5s-27.5 -45.166 -27.5 -80.499v-68h161v-61h-161v-293c0 -42 8.16699 -72.833 24.5 -92.5s41.833 -29.5 76.5 -29.5c18 0 36.333 3 55 9z" />
    <glyph glyph-name="uni01AE" unicode="&#x1ae;" horiz-adv-x="526" 
d="M317 -130c11.333 -14 28.668 -21 52.001 -21c16.667 0 31.667 2 45 6l11 -64c-16.667 -6 -35.334 -9 -56.001 -9c-46.667 0 -82.167 13 -106.5 39s-36.5 64.333 -36.5 115v230v490h-194v68h268h194v-68h-194v-721c0 -29.333 5.66699 -51 17 -65z" />
    <glyph glyph-name="Uhorn" unicode="&#x1af;" horiz-adv-x="684" 
d="M683.5 715c-19 -20 -49.833 -32.334 -92.5 -37.001v-421c0 -84.667 -22 -150.834 -66 -198.501s-105.333 -71.5 -184 -71.5c-78 0 -138.833 23.833 -182.5 71.5s-65.5 113.834 -65.5 198.501v467h74v-467c0 -66.667 14.833 -117.167 44.5 -151.5
s73.167 -51.5 130.5 -51.5s100.833 17.167 130.5 51.5s44.5 84.833 44.5 151.5v467h25c37.333 0 63.5 5.83301 78.5 17.5s22.5 31.834 22.5 60.501c0 16.667 -1.66699 37 -5 61h69c3.33301 -20 5 -39.667 5 -59c0 -39.333 -9.5 -69 -28.5 -89z" />
    <glyph glyph-name="uhorn" unicode="&#x1b0;" horiz-adv-x="572" 
d="M565.5 526.5c-18.333 -20.333 -47.5 -32.834 -87.5 -37.501v-489h-67v64c-39.333 -51.333 -93 -77 -161 -77c-51.333 0 -91.333 15 -120 45s-43 71.333 -43 124v378h72v-373c0 -34 9.33301 -59.833 28 -77.5s46 -26.5 82 -26.5c28 0 53 5 75 15s42.667 26 62 48v414h21
c37.333 0 63.5 5.83301 78.5 17.5s22.5 31.834 22.5 60.501c0 16.667 -1.66699 37 -5 61h65c3.33301 -20 5 -39.667 5 -59c0 -38 -9.16699 -67.167 -27.5 -87.5z" />
    <glyph glyph-name="uni01B1" unicode="&#x1b1;" horiz-adv-x="732" 
d="M151 73.5c-51.333 57 -77 136.167 -77 237.5c0 68.667 12 132 36 190s59.333 109.667 106 155h-152v68h257v-63c-58 -42.667 -100.667 -92.167 -128 -148.5s-41 -121.833 -41 -196.5c0 -86.667 18 -152 54 -196s89.333 -66 160 -66s124 22 160 66s54 109.333 54 196
c0 74.667 -13.667 140.167 -41 196.5s-70 105.833 -128 148.5v63h257v-68h-152c46.667 -45.333 82 -97 106 -155s36 -121.333 36 -190c0 -101.333 -25.667 -180.5 -77 -237.5s-123 -85.5 -215 -85.5s-163.667 28.5 -215 85.5z" />
    <glyph glyph-name="uni01B2" unicode="&#x1b2;" horiz-adv-x="684" 
d="M554.5 698c24.333 -26 36.499 -64.333 36.499 -115v-230v-96c0 -84.667 -22 -150.834 -66 -198.501s-105.333 -71.5 -184 -71.5c-78 0 -138.833 23.833 -182.5 71.5s-65.5 113.834 -65.5 198.501v467h74v-467c0 -66.667 14.833 -117.167 44.5 -151.5
s73.167 -51.5 130.5 -51.5s100.833 17.167 130.5 51.5s44.5 84.833 44.5 151.5v207v120c0 29.333 -5.66699 51 -17 65s-28.666 21 -51.999 21c-16.667 0 -31.667 -2 -45 -6l-11 64c17.333 6 36 9 56 9c46.667 0 82.167 -13 106.5 -39z" />
    <glyph glyph-name="uni01B3" unicode="&#x1b3;" horiz-adv-x="648" 
d="M637 706c18.667 -22 29.668 -54.333 33.001 -97l-63 -12c-3.33301 24.667 -8.83301 42.667 -16.5 54s-17.834 17 -30.501 17c-10.667 0 -20.334 -4 -29.001 -12s-17.334 -21.333 -26.001 -40l-176 -356v-260h-74v260l-227 464h83l182 -377l144 297
c16 32.667 33.833 56.667 53.5 72s42.834 23 69.501 23c32.667 0 58.334 -11 77.001 -33z" />
    <glyph glyph-name="uni01B4" unicode="&#x1b4;" horiz-adv-x="623" 
d="M609.5 617c18.333 -21.333 28.834 -52.666 31.501 -93.999l-61 -11c-3.33301 23.333 -8.83301 40.666 -16.5 51.999s-17.834 17 -30.501 17c-12 0 -22.5 -5.5 -31.5 -16.5s-17.833 -28.833 -26.5 -53.5l-182 -519c-17.333 -48 -45.5 -89.833 -84.5 -125.5
s-88.167 -64.167 -147.5 -85.5l-26 64c48 16.667 87 37.167 117 61.5s53.333 53.833 70 88.5l-190 539h79l148 -447l148 453c24 72.667 66.333 109 127 109c32 0 57.167 -10.667 75.5 -32z" />
    <glyph glyph-name="uni01B5" unicode="&#x1b5;" horiz-adv-x="551" 
d="M503 66v-66h-457v67l175 280h-135v63h174l155 248h-357v66h441v-66l-155 -248h119v-63h-158l-175 -281h373z" />
    <glyph glyph-name="uni01B6" unicode="&#x1b6;" horiz-adv-x="463" 
d="M418 61v-61h-374v61l128 184h-104v53h141l122 175h-279v61h362v-61l-122 -175h108v-53h-145l-128 -184h291z" />
    <glyph glyph-name="uni01B7" unicode="&#x1b7;" horiz-adv-x="564" 
d="M443.5 370.5c43 -33.667 64.5 -84.168 64.5 -151.501c0 -75.333 -24.5 -132.666 -73.5 -171.999s-114.5 -59 -196.5 -59c-39.333 0 -78.666 4.5 -117.999 13.5s-74 22.167 -104 39.5l32 61c28 -13.333 58.667 -24 92 -32s65.666 -12 96.999 -12
c62 0 109.667 13.5 143 40.5s50 67.167 50 120.5c0 52.667 -19.167 90.5 -57.5 113.5s-93.5 34.5 -165.5 34.5h-41v63l209 227h-322v67h412v-68l-209 -227c82 -5.33301 144.5 -24.833 187.5 -58.5z" />
    <glyph glyph-name="uni01B8" unicode="&#x1b8;" horiz-adv-x="564" 
d="M548 41c-30 -17.333 -64.667 -30.499 -104 -39.499s-78.666 -13.5 -117.999 -13.5c-82 0 -147.5 19.667 -196.5 59s-73.5 96.666 -73.5 171.999c0 67.333 21.5 117.833 64.5 151.5s105.5 53.167 187.5 58.5l-209 227v68h412v-67h-322l209 -227v-63h-41
c-72 0 -127.167 -11.5 -165.5 -34.5s-57.5 -60.833 -57.5 -113.5c0 -53.333 16.667 -93.5 50 -120.5s81 -40.5 143 -40.5c31.333 0 63.666 4 96.999 12s64 18.667 92 32z" />
    <glyph glyph-name="uni01B9" unicode="&#x1b9;" horiz-adv-x="503" 
d="M473 -180c-24 -14 -52.168 -24.167 -84.501 -30.5s-65.166 -9.5 -98.499 -9.5c-72 0 -130.333 19 -175 57s-67 94.333 -67 169c0 66 21.167 115.833 63.5 149.5s100.5 52.834 174.5 57.501l-201 258v63h372v-62h-288l196 -258v-61h-43c-60.667 0 -109 -11.667 -145 -35
s-54 -61.333 -54 -114c0 -50.667 15 -89.834 45 -117.501s72.667 -41.5 128 -41.5c27.333 0 52.5 2.5 75.5 7.5s48.167 13.5 75.5 25.5z" />
    <glyph glyph-name="uni01BA" unicode="&#x1ba;" horiz-adv-x="459" 
d="M278.5 -126c32.333 6.66699 63.168 16.999 92.501 30.999l25 -59c-37.333 -16.667 -72.333 -28.167 -105 -34.5s-66.334 -9.5 -101.001 -9.5c-57.333 0 -101.666 10.667 -132.999 32s-47 52.333 -47 93c0 80.667 60 122.334 180 125.001
c35.333 1.33301 62.5 3.83301 81.5 7.5s34.5 12 46.5 25s18 33.167 18 60.5c0 38 -13.667 65.333 -41 82s-71.666 25 -132.999 25h-34v58l156 162h-254v62h344v-64l-158 -160c67.333 -4.66699 116.666 -19.834 147.999 -45.501s47 -63.834 47 -114.501
c0 -44 -10 -77.667 -30 -101s-45.667 -39.166 -77 -47.499s-69 -13.166 -113 -14.499c-31.333 -0.666992 -57.5 -4.5 -78.5 -11.5s-31.5 -22.833 -31.5 -47.5c0 -42.667 38 -64 114 -64c23.333 0 51.166 3.33301 83.499 10z" />
    <glyph glyph-name="uni01BB" unicode="&#x1bb;" horiz-adv-x="529" 
d="M347 329l-216.998 -264.998h334v-64h-420v65l214 264h-201v63h252c26.667 34 45.5 62.667 56.5 86s16.5 46.666 16.5 69.999c0 37.333 -12 66.666 -36 87.999s-57 32 -99 32c-28.667 0 -57.834 -5 -87.501 -15s-56.5 -23.667 -80.5 -41l-36 59
c24.667 20 56.167 36 94.5 48s76.166 18 113.499 18c61.333 0 110.833 -16.5 148.5 -49.5s56.5 -76.833 56.5 -131.5c0 -26 -4.83301 -52 -14.5 -78s-25.167 -54.667 -46.5 -86h69v-63h-117z" />
    <glyph glyph-name="uni01BC" unicode="&#x1bc;" horiz-adv-x="541" 
d="M429.5 383.5c38.333 -37 57.498 -89.832 57.498 -158.499c0 -47.333 -9.5 -89 -28.5 -125s-46.5 -63.833 -82.5 -83.5s-78.333 -29.5 -127 -29.5c-33.333 0 -67.166 4.66699 -101.499 14s-63.833 21.666 -88.5 36.999l31 65c24 -14.667 50 -26.167 78 -34.5
s55 -12.5 81 -12.5c52.667 0 92.834 14.833 120.501 44.5s41.5 71.167 41.5 124.5c0 51.333 -14.5 90.333 -43.5 117s-75.167 42 -138.5 46l-119 8v264h-84v64h131h300v-64h-275v-205l73 -6c78 -6.66699 136.167 -28.5 174.5 -65.5z" />
    <glyph glyph-name="uni01BD" unicode="&#x1bd;" horiz-adv-x="469" 
d="M366 281.5c35.333 -27 52.999 -66.168 52.999 -117.501c0 -55.333 -18.167 -98.666 -54.5 -129.999s-86.5 -47 -150.5 -47c-27.333 0 -55.833 3.83301 -85.5 11.5s-55.5 17.5 -77.5 29.5l26 58c20.667 -10.667 42.834 -18.834 66.501 -24.501s47.167 -8.5 70.5 -8.5
c41.333 0 73.333 9.33301 96 28s34 46.334 34 83.001c0 34 -13.167 59.833 -39.5 77.5s-60.5 27.5 -102.5 29.5l-107 7v195h-73v61h113h258v-61h-228v-140l54 -4c62.667 -4.66699 111.667 -20.5 147 -47.5z" />
    <glyph glyph-name="uni01BE" unicode="&#x1be;" horiz-adv-x="495" 
d="M145 2.5c-34.667 9.66699 -64.001 22.1719 -88.001 37.5049l26 62c24 -14.667 50.5 -26.5 79.5 -35.5s56.5 -13.5 82.5 -13.5c40 0 70.167 7.33301 90.5 22s30.5 35.667 30.5 63c0 17.333 -3.66699 31.833 -11 43.5s-16.333 21.167 -27 28.5s-26 16 -46 26
c-23.333 11.333 -42.166 22.166 -56.499 32.499s-26.5 24.666 -36.5 42.999s-15 41.166 -15 68.499v93h-93v61h93v160h72v-160h161v-61h-161v-89c0 -24 7 -42.833 21 -56.5s35.333 -27.834 64 -42.501c23.333 -12 42 -23.167 56 -33.5s26 -24.333 36 -42
s15 -39.834 15 -66.501c0 -48.667 -17 -86.667 -51 -114s-81.333 -41 -142 -41c-32 0 -65.333 4.83301 -100 14.5z" />
    <glyph glyph-name="uni01BF" unicode="&#x1bf;" horiz-adv-x="561" 
d="M458.5 493c30.333 -36 45.499 -85.667 45.499 -149c0 -40 -6.83301 -76 -20.5 -108s-35.667 -63.333 -66 -94s-72.166 -64 -125.499 -100l-126 -85v-164h-72v741h67v-76c44 59.333 100.667 89 170 89c54.667 0 97.167 -18 127.5 -54zM394.499 217
c23 34 34.501 74 34.501 120s-9.83301 80.833 -29.5 104.5s-48.5 35.5 -86.5 35.5c-26 0 -50.833 -6.16699 -74.5 -18.5s-47.834 -31.5 -72.501 -57.5v-367l106 72c58.667 40 99.5 77 122.5 111z" />
    <glyph glyph-name="uni01C0" unicode="&#x1c0;" horiz-adv-x="266" 
d="M100 770h66v-770h-66v770z" />
    <glyph glyph-name="uni01C1" unicode="&#x1c1;" horiz-adv-x="413" 
d="M100 770h66v-770h-66v770zM247 770h66v-770h-66v770z" />
    <glyph glyph-name="uni01C2" unicode="&#x1c2;" horiz-adv-x="346" 
d="M206 466v-161h110v-63h-110v-242h-66v242h-110v63h110v161h-110v63h110v241h66v-241h110v-63h-110z" />
    <glyph glyph-name="uni01C3" unicode="&#x1c3;" horiz-adv-x="346" 
d="M128 770h86l-13 -585h-58zM132.5 2c-9.66699 10 -14.5 23.667 -14.5 41s4.83301 31 14.5 41s23.167 15 40.5 15s30.833 -4.83301 40.5 -14.5s14.5 -23.167 14.5 -40.5c0 -18 -4.83301 -32 -14.5 -42s-23.167 -15 -40.5 -15s-30.833 5 -40.5 15z" />
    <glyph glyph-name="uni01C4" unicode="&#x1c4;" horiz-adv-x="1190" 
d="M872 781l-117 133v12h61l99 -94l98 94h58v-12l-117 -133h-82zM539 632c57.333 -61.333 86 -151.333 86 -270s-29 -208.667 -87 -270s-141.667 -92 -251 -92h-189v724h193c108 0 190.667 -30.667 248 -92zM1142 66v-66h-457v67l369 591h-357v66h441v-66l-369 -592h373z
M482 142c43.333 50 65 123.333 65 220c0 97.333 -22 170.833 -66 220.5s-108.667 74.5 -194 74.5h-115v-590h119c84 0 147.667 25 191 75z" />
    <glyph glyph-name="uni01C5" unicode="&#x1c5;" horiz-adv-x="1112" 
d="M837 611l-117 133v12h61l99 -94l98 94h58v-12l-117 -133h-82zM539 632c57.333 -61.333 86 -151.333 86 -270s-29 -208.667 -87 -270s-141.667 -92 -251 -92h-189v724h193c108 0 190.667 -30.667 248 -92zM482 142c43.333 50 65 123.333 65 220
c0 97.333 -22 170.833 -66 220.5s-108.667 74.5 -194 74.5h-115v-590h119c84 0 147.667 25 191 75zM1067 61v-61h-374v61l287 412h-279v61h362v-61l-287 -412h291z" />
    <glyph glyph-name="uni01C6" unicode="&#x1c6;" horiz-adv-x="1007" 
d="M480 770l-0.00195312 -729v-41h-67v68c-18 -26.667 -40.167 -46.834 -66.5 -60.501s-55.833 -20.5 -88.5 -20.5c-63.333 0 -112.666 25 -147.999 75s-53 119.667 -53 209c0 86.667 18.833 154.334 56.5 203.001s89.834 73 156.501 73c27.333 0 52.833 -5.33301 76.5 -16
s44.167 -25.667 61.5 -45v284h72zM346.998 72.5c21.333 10.333 41.667 26.832 61 49.499v297c-17.333 19.333 -38 34.5 -62 45.5s-49.333 16.5 -76 16.5c-45.333 0 -79.666 -17.667 -102.999 -53s-35 -87.666 -35 -156.999c0 -70.667 12.167 -124 36.5 -160
s60.166 -54 107.499 -54c26 0 49.667 5.16699 71 15.5zM961.999 60.999v-61h-374v61l287 412h-279v61h362v-61l-287 -412h291zM912.999 783.999v-10l-102 -159h-76l-102 159v10h55l86 -113l87 113h52z" />
    <glyph glyph-name="uni01C7" unicode="&#x1c7;" horiz-adv-x="972" 
d="M172 68h325v-68h-399v724h74v-656zM879 724l0.00195312 -543.999c0 -60.667 -15.833 -108 -47.5 -142s-75.834 -51 -132.501 -51c-22 0 -44.833 2.66699 -68.5 8s-44.834 12.666 -63.501 21.999l25 64c40 -17.333 75.667 -26 107 -26c34.667 0 61 10.5 79 31.5
s27 52.167 27 93.5v544h74z" />
    <glyph glyph-name="uni01C8" unicode="&#x1c8;" horiz-adv-x="791" 
d="M497 68v-68h-399v724h74v-656h325zM486 -159c36 12.667 63.668 26.499 83.001 41.499s33.166 33.667 41.499 56s12.5 51.5 12.5 87.5v508h72v-508c0 -48 -5.5 -86.667 -16.5 -116s-29.5 -54.166 -55.5 -74.499s-63.333 -38.833 -112 -55.5zM620.501 643.999
c-9 9.33301 -13.5 22.333 -13.5 39c0 17.333 4.5 30.666 13.5 39.999s21.833 14 38.5 14s29.5 -4.66699 38.5 -14s13.5 -22.333 13.5 -39c0 -17.333 -4.5 -30.666 -13.5 -39.999s-21.833 -14 -38.5 -14s-29.5 4.66699 -38.5 14z" />
    <glyph glyph-name="uni01C9" unicode="&#x1c9;" horiz-adv-x="563" 
d="M92 109l0.000976562 661h72v-658c0 -18.667 4.33301 -32.167 13 -40.5s22.667 -12.5 42 -12.5c11.333 0 24.666 1.33301 39.999 4l7 -61c-20 -5.33301 -40.667 -8 -62 -8c-74.667 0 -112 38.333 -112 115zM238.001 -159c36 12.667 63.668 26.499 83.001 41.499
s33.166 33.667 41.499 56s12.5 51.5 12.5 87.5v508h72v-508c0 -48 -5.5 -86.667 -16.5 -116s-29.5 -54.166 -55.5 -74.499s-63.333 -38.833 -112 -55.5zM372.502 643.999c-9 9.33301 -13.5 22.333 -13.5 39c0 17.333 4.5 30.666 13.5 39.999s21.833 14 38.5 14
s29.5 -4.66699 38.5 -14s13.5 -22.333 13.5 -39c0 -17.333 -4.5 -30.666 -13.5 -39.999s-21.833 -14 -38.5 -14s-29.5 4.66699 -38.5 14z" />
    <glyph glyph-name="uni01CA" unicode="&#x1ca;" horiz-adv-x="1117" 
d="M552 724h72v-724h-69l-385 598v-598h-72v724h69l385 -597v597zM1024 724l0.00195312 -543.999c0 -60.667 -15.833 -108 -47.5 -142s-75.834 -51 -132.501 -51c-22 0 -44.833 2.66699 -68.5 8s-44.834 12.666 -63.501 21.999l25 64c40 -17.333 75.667 -26 107 -26
c34.667 0 61 10.5 79 31.5s27 52.167 27 93.5v544h74z" />
    <glyph glyph-name="uni01CB" unicode="&#x1cb;" horiz-adv-x="966" 
d="M624 724v-724h-69l-385 598v-598h-72v724h69l385 -597v597h72zM661 -159c36 12.667 63.668 26.499 83.001 41.499s33.166 33.667 41.499 56s12.5 51.5 12.5 87.5v508h72v-508c0 -48 -5.5 -86.667 -16.5 -116s-29.5 -54.166 -55.5 -74.499s-63.333 -38.833 -112 -55.5z
M795.501 643.999c-9 9.33301 -13.5 22.333 -13.5 39c0 17.333 4.5 30.666 13.5 39.999s21.833 14 38.5 14s29.5 -4.66699 38.5 -14s13.5 -22.333 13.5 -39c0 -17.333 -4.5 -30.666 -13.5 -39.999s-21.833 -14 -38.5 -14s-29.5 4.66699 -38.5 14z" />
    <glyph glyph-name="uni01CC" unicode="&#x1cc;" horiz-adv-x="824" 
d="M447 502c29.333 -30 44 -71.333 44 -124v-378h-72v373c0 34 -9.66699 59.833 -29 77.5s-47.333 26.5 -84 26.5c-26.667 0 -51.334 -4.16699 -74.001 -12.5s-44.667 -21.833 -66 -40.5v-424h-72v534h67v-57c44.667 46.667 99.334 70 164.001 70c52 0 92.667 -15 122 -45z
M519 -159c36 12.667 63.668 26.499 83.001 41.499s33.166 33.667 41.499 56s12.5 51.5 12.5 87.5v508h72v-508c0 -48 -5.5 -86.667 -16.5 -116s-29.5 -54.166 -55.5 -74.499s-63.333 -38.833 -112 -55.5zM653.501 643.999c-9 9.33301 -13.5 22.333 -13.5 39
c0 17.333 4.5 30.666 13.5 39.999s21.833 14 38.5 14s29.5 -4.66699 38.5 -14s13.5 -22.333 13.5 -39c0 -17.333 -4.5 -30.666 -13.5 -39.999s-21.833 -14 -38.5 -14s-29.5 4.66699 -38.5 14z" />
    <glyph glyph-name="uni01CD" unicode="&#x1cd;" horiz-adv-x="666" 
d="M292 781l-117 133v12h61l99 -94l98 94h58v-12l-117 -133h-82zM485 198h-305l-68 -198h-80l259 724h84l259 -724h-81zM462 264l-130 378l-130 -378h260z" />
    <glyph glyph-name="uni01CE" unicode="&#x1ce;" horiz-adv-x="528" 
d="M388.5 504c35 -28.667 52.501 -70.666 52.501 -125.999v-378h-67v65c-34.667 -50.667 -88.334 -76 -161.001 -76c-52.667 0 -93.834 14 -123.501 42s-44.5 67 -44.5 117c0 63.333 26.333 110.166 79 140.499s134.334 45.833 245.001 46.5v37
c0 34.667 -10.833 61.167 -32.5 79.5s-53.167 27.5 -94.5 27.5c-43.333 0 -85.333 -9.66699 -126 -29l-19 61c47.333 24 98.333 36 153 36c57.333 0 103.5 -14.333 138.5 -43zM306.001 71.001c22.667 10.667 43.665 27.001 62.998 49.001v155
c-86 -0.666992 -149.333 -10.834 -190 -30.501s-61 -50.167 -61 -91.5c0 -32 9.33301 -56.333 28 -73s46.334 -25 83.001 -25c28.667 0 54.334 5.33301 77.001 16zM391.999 784.002v-10l-102 -159h-76l-102 159v10h55l86 -113l87 113h52z" />
    <glyph glyph-name="uni01CF" unicode="&#x1cf;" horiz-adv-x="274" 
d="M295 926v-12l-117 -133h-82l-117 133v12h61l99 -94l98 94h58zM100 724h74v-724h-74v724z" />
    <glyph glyph-name="uni01D0" unicode="&#x1d0;" horiz-adv-x="264" 
d="M96 534h72v-534h-72v534zM272 784v-10l-102 -159h-76l-102 159v10h55l86 -113l87 113h52z" />
    <glyph glyph-name="uni01D1" unicode="&#x1d1;" horiz-adv-x="712" 
d="M315 781l-117 133v12h61l99 -94l98 94h58v-12l-117 -133h-82zM573 641.5c50 -63.667 75 -156.834 75 -279.501s-25 -215.834 -75 -279.501s-122.333 -95.5 -217 -95.5s-167 31.833 -217 95.5s-75 156.834 -75 279.501s25 215.834 75 279.501s122.333 95.5 217 95.5
s167 -31.833 217 -95.5zM516 132c36 52 54 128.667 54 230s-18 178 -54 230s-89.333 78 -160 78s-124 -26 -160 -78s-54 -128.667 -54 -230s18 -178 54 -230s89.333 -78 160 -78s124 26 160 78z" />
    <glyph glyph-name="uni01D2" unicode="&#x1d2;" horiz-adv-x="555" 
d="M114 58.5c-38 47.667 -57 117.167 -57 208.5s19 160.833 57 208.5s92.667 71.5 164 71.5c70.667 0 125 -23.833 163 -71.5s57 -117.167 57 -208.5s-19 -160.833 -57 -208.5s-92.667 -71.5 -164 -71.5c-70.667 0 -125 23.833 -163 71.5zM386 106.5
c24.667 36.333 37 89.833 37 160.5s-12.333 124.167 -37 160.5s-60.667 54.5 -108 54.5c-48 0 -84.333 -18.167 -109 -54.5s-37 -89.833 -37 -160.5s12.333 -124.167 37 -160.5s60.667 -54.5 108 -54.5c48 0 84.333 18.167 109 54.5zM418 784v-10l-102 -159h-76l-102 159v10
h55l86 -113l87 113h52z" />
    <glyph glyph-name="uni01D3" unicode="&#x1d3;" horiz-adv-x="684" 
d="M301 781l-117 133v12h61l99 -94l98 94h58v-12l-117 -133h-82zM591 724v-467c0 -84.667 -22 -150.834 -66 -198.501s-105.333 -71.5 -184 -71.5c-78 0 -138.833 23.833 -182.5 71.5s-65.5 113.834 -65.5 198.501v467h74v-467c0 -66.667 14.833 -117.167 44.5 -151.5
s73.167 -51.5 130.5 -51.5s100.833 17.167 130.5 51.5s44.5 84.833 44.5 151.5v467h74z" />
    <glyph glyph-name="uni01D4" unicode="&#x1d4;" horiz-adv-x="572" 
d="M478 534v-534h-67v64c-39.333 -51.333 -93 -77 -161 -77c-51.333 0 -91.333 15 -120 45s-43 71.333 -43 124v378h72v-373c0 -34 9.33301 -59.833 28 -77.5s46 -26.5 82 -26.5c28 0 53 5 75 15s42.667 26 62 48v414h72zM423 784v-10l-102 -159h-76l-102 159v10h55l86 -113
l87 113h52z" />
    <glyph glyph-name="uni01D5" unicode="&#x1d5;" horiz-adv-x="684" 
d="M200 983h284v-54h-284v54zM216 792c-8.66699 8.66699 -12.9961 20.667 -12.9961 36c0 16 4.16699 28.333 12.5 37s20.166 13 35.499 13s27.166 -4.33301 35.499 -13s12.5 -20.667 12.5 -36s-4.33301 -27.5 -13 -36.5s-20.334 -13.5 -35.001 -13.5
s-26.334 4.33301 -35.001 13zM398.004 792c-8.66699 8.66699 -12.9961 20.667 -12.9961 36c0 16 4.16699 28.333 12.5 37s20.166 13 35.499 13s27.166 -4.33301 35.499 -13s12.5 -20.667 12.5 -36s-4.33301 -27.5 -13 -36.5s-20.334 -13.5 -35.001 -13.5
s-26.334 4.33301 -35.001 13zM158.508 58.5c-43.667 47.667 -65.5 113.834 -65.5 198.501v467h74v-467c0 -66.667 14.833 -117.167 44.5 -151.5s73.167 -51.5 130.5 -51.5s100.833 17.167 130.5 51.5s44.5 84.833 44.5 151.5v467h74v-467
c0 -84.667 -22 -150.834 -66 -198.501s-105.333 -71.5 -184 -71.5c-78 0 -138.833 23.833 -182.5 71.5z" />
    <glyph glyph-name="uni01D6" unicode="&#x1d6;" horiz-adv-x="572" 
d="M425 759h-284v54h284v-54zM156.5 695c8.33301 8.66699 20.1699 13 35.5029 13s27.166 -4.33301 35.499 -13s12.5 -20.667 12.5 -36s-4.33301 -27.5 -13 -36.5s-20.334 -13.5 -35.001 -13.5s-26.334 4.33301 -35.001 13s-13 20.667 -13 36c0 16 4.16699 28.333 12.5 37z
M338.504 695c8.33301 8.66699 20.1699 13 35.5029 13s27.166 -4.33301 35.499 -13s12.5 -20.667 12.5 -36s-4.33301 -27.5 -13 -36.5s-20.334 -13.5 -35.001 -13.5s-26.334 4.33301 -35.001 13s-13 20.667 -13 36c0 16 4.16699 28.333 12.5 37zM478.008 534v-534h-67v64
c-39.333 -51.333 -93 -77 -161 -77c-51.333 0 -91.333 15 -120 45s-43 71.333 -43 124v378h72v-373c0 -34 9.33301 -59.833 28 -77.5s46 -26.5 82 -26.5c28 0 53 5 75 15s42.667 26 62 48v414h72z" />
    <glyph glyph-name="uni01D7" unicode="&#x1d7;" horiz-adv-x="684" 
d="M317 912l81 127h69v-10l-102 -127h-48v10zM216 792c-8.66699 8.66699 -12.9961 20.667 -12.9961 36c0 16 4.16699 28.333 12.5 37s20.166 13 35.499 13s27.166 -4.33301 35.499 -13s12.5 -20.667 12.5 -36s-4.33301 -27.5 -13 -36.5s-20.334 -13.5 -35.001 -13.5
s-26.334 4.33301 -35.001 13zM398.004 792c-8.66699 8.66699 -12.9961 20.667 -12.9961 36c0 16 4.16699 28.333 12.5 37s20.166 13 35.499 13s27.166 -4.33301 35.499 -13s12.5 -20.667 12.5 -36s-4.33301 -27.5 -13 -36.5s-20.334 -13.5 -35.001 -13.5
s-26.334 4.33301 -35.001 13zM158.508 58.5c-43.667 47.667 -65.5 113.834 -65.5 198.501v467h74v-467c0 -66.667 14.833 -117.167 44.5 -151.5s73.167 -51.5 130.5 -51.5s100.833 17.167 130.5 51.5s44.5 84.833 44.5 151.5v467h74v-467
c0 -84.667 -22 -150.834 -66 -198.501s-105.333 -71.5 -184 -71.5c-78 0 -138.833 23.833 -182.5 71.5z" />
    <glyph glyph-name="uni01D8" unicode="&#x1d8;" horiz-adv-x="572" 
d="M306 732h-48v10l81 127h69v-10zM157 622c-8.66699 8.66699 -12.9961 20.667 -12.9961 36c0 16 4.16699 28.333 12.5 37s20.166 13 35.499 13s27.166 -4.33301 35.499 -13s12.5 -20.667 12.5 -36s-4.33301 -27.5 -13 -36.5s-20.334 -13.5 -35.001 -13.5
s-26.334 4.33301 -35.001 13zM338.504 695c8.33301 8.66699 20.1699 13 35.5029 13s27.166 -4.33301 35.499 -13s12.5 -20.667 12.5 -36s-4.33301 -27.5 -13 -36.5s-20.334 -13.5 -35.001 -13.5s-26.334 4.33301 -35.001 13s-13 20.667 -13 36c0 16 4.16699 28.333 12.5 37z
M478.008 534v-534h-67v64c-39.333 -51.333 -93 -77 -161 -77c-51.333 0 -91.333 15 -120 45s-43 71.333 -43 124v378h72v-373c0 -34 9.33301 -59.833 28 -77.5s46 -26.5 82 -26.5c28 0 53 5 75 15s42.667 26 62 48v414h72z" />
    <glyph glyph-name="uni01D9" unicode="&#x1d9;" horiz-adv-x="684" 
d="M304 904l-104 129v10h55l89 -89l88 89h52v-10l-104 -129h-76zM215.5 865c8.33301 8.66699 20.1699 13 35.5029 13s27.166 -4.33301 35.499 -13s12.5 -20.667 12.5 -36s-4.33301 -27.5 -13 -36.5s-20.334 -13.5 -35.001 -13.5s-26.334 4.33301 -35.001 13
s-13 20.667 -13 36c0 16 4.16699 28.333 12.5 37zM397.504 865c8.33301 8.66699 20.1699 13 35.5029 13s27.166 -4.33301 35.499 -13s12.5 -20.667 12.5 -36s-4.33301 -27.5 -13 -36.5s-20.334 -13.5 -35.001 -13.5s-26.334 4.33301 -35.001 13s-13 20.667 -13 36
c0 16 4.16699 28.333 12.5 37zM591.008 724v-467c0 -84.667 -22 -150.834 -66 -198.501s-105.333 -71.5 -184 -71.5c-78 0 -138.833 23.833 -182.5 71.5s-65.5 113.834 -65.5 198.501v467h74v-467c0 -66.667 14.833 -117.167 44.5 -151.5s73.167 -51.5 130.5 -51.5
s100.833 17.167 130.5 51.5s44.5 84.833 44.5 151.5v467h74z" />
    <glyph glyph-name="uni01DA" unicode="&#x1da;" horiz-adv-x="572" 
d="M245 727l-104 139v10h55l89 -97l88 97h52v-10l-104 -139h-76zM156.5 695c8.33301 8.66699 20.1699 13 35.5029 13s27.166 -4.33301 35.499 -13s12.5 -20.667 12.5 -36s-4.33301 -27.5 -13 -36.5s-20.334 -13.5 -35.001 -13.5s-26.334 4.33301 -35.001 13
s-13 20.667 -13 36c0 16 4.16699 28.333 12.5 37zM338.504 695c8.33301 8.66699 20.1699 13 35.5029 13s27.166 -4.33301 35.499 -13s12.5 -20.667 12.5 -36s-4.33301 -27.5 -13 -36.5s-20.334 -13.5 -35.001 -13.5s-26.334 4.33301 -35.001 13s-13 20.667 -13 36
c0 16 4.16699 28.333 12.5 37zM478.008 534v-534h-67v64c-39.333 -51.333 -93 -77 -161 -77c-51.333 0 -91.333 15 -120 45s-43 71.333 -43 124v378h72v-373c0 -34 9.33301 -59.833 28 -77.5s46 -26.5 82 -26.5c28 0 53 5 75 15s42.667 26 62 48v414h72z" />
    <glyph glyph-name="uni01DB" unicode="&#x1db;" horiz-adv-x="684" 
d="M226 1029v10h69l75 -127v-10h-48zM216 792c-8.66699 8.66699 -12.9961 20.667 -12.9961 36c0 16 4.16699 28.333 12.5 37s20.166 13 35.499 13s27.166 -4.33301 35.499 -13s12.5 -20.667 12.5 -36s-4.33301 -27.5 -13 -36.5s-20.334 -13.5 -35.001 -13.5
s-26.334 4.33301 -35.001 13zM398.004 792c-8.66699 8.66699 -12.9961 20.667 -12.9961 36c0 16 4.16699 28.333 12.5 37s20.166 13 35.499 13s27.166 -4.33301 35.499 -13s12.5 -20.667 12.5 -36s-4.33301 -27.5 -13 -36.5s-20.334 -13.5 -35.001 -13.5
s-26.334 4.33301 -35.001 13zM158.508 58.5c-43.667 47.667 -65.5 113.834 -65.5 198.501v467h74v-467c0 -66.667 14.833 -117.167 44.5 -151.5s73.167 -51.5 130.5 -51.5s100.833 17.167 130.5 51.5s44.5 84.833 44.5 151.5v467h74v-467
c0 -84.667 -22 -150.834 -66 -198.501s-105.333 -71.5 -184 -71.5c-78 0 -138.833 23.833 -182.5 71.5z" />
    <glyph glyph-name="uni01DC" unicode="&#x1dc;" horiz-adv-x="572" 
d="M263 732l-96 127v10h69l75 -127v-10h-48zM157 622c-8.66699 8.66699 -12.9961 20.667 -12.9961 36c0 16 4.16699 28.333 12.5 37s20.166 13 35.499 13s27.166 -4.33301 35.499 -13s12.5 -20.667 12.5 -36s-4.33301 -27.5 -13 -36.5s-20.334 -13.5 -35.001 -13.5
s-26.334 4.33301 -35.001 13zM339.004 622c-8.66699 8.66699 -12.9961 20.667 -12.9961 36c0 16 4.16699 28.333 12.5 37s20.166 13 35.499 13s27.166 -4.33301 35.499 -13s12.5 -20.667 12.5 -36s-4.33301 -27.5 -13 -36.5s-20.334 -13.5 -35.001 -13.5
s-26.334 4.33301 -35.001 13zM478.008 534v-534h-67v64c-39.333 -51.333 -93 -77 -161 -77c-51.333 0 -91.333 15 -120 45s-43 71.333 -43 124v378h72v-373c0 -34 9.33301 -59.833 28 -77.5s46 -26.5 82 -26.5c28 0 53 5 75 15s42.667 26 62 48v414h72z" />
    <glyph glyph-name="uni01DD" unicode="&#x1dd;" horiz-adv-x="538" 
d="M420.5 472c41.667 -49.333 62.498 -117.666 62.498 -204.999c0 -88 -19.333 -156.667 -58 -206s-92.334 -74 -161.001 -74c-67.333 0 -119.666 22.667 -156.999 68s-56 108.333 -56 189c0 16 1 30 3 42h356c-2.66699 63.333 -18.167 111.166 -46.5 143.499
s-68.833 48.5 -121.5 48.5c-50 0 -96 -14 -138 -42l-28 58c20.667 16.667 45.834 29.5 75.501 38.5s61.167 13.5 94.5 13.5c74.667 0 132.834 -24.667 174.501 -74zM365.498 95.5c23.667 29 37.832 72.167 42.499 129.5h-284c0.666992 -54.667 13.5 -97.167 38.5 -127.5
s59.5 -45.5 103.5 -45.5c42.667 0 75.834 14.5 99.501 43.5z" />
    <glyph glyph-name="uni01DE" unicode="&#x1de;" horiz-adv-x="666" 
d="M475 963h-284v58h284v-58zM200 813.5c-8.66699 9 -13 21.5 -13 37.5s4.33301 28.667 13 38s20.667 14 36 14c16 0 28.333 -4.5 37 -13.5s13 -21.5 13 -37.5c0 -16.667 -4.33301 -29.5 -13 -38.5s-21 -13.5 -37 -13.5c-15.333 0 -27.333 4.5 -36 13.5zM466 889.5
c8.66699 -9 13 -21.5 13 -37.5c0 -16.667 -4.33301 -29.5 -13 -38.5s-21 -13.5 -37 -13.5c-15.333 0 -27.333 4.5 -36 13.5s-13 21.5 -13 37.5s4.33301 28.667 13 38s20.667 14 36 14c16 0 28.333 -4.5 37 -13.5zM485 198h-305l-68 -198h-80l259 724h84l259 -724h-81z
M462 264l-130 378l-130 -378h260z" />
    <glyph glyph-name="uni01DF" unicode="&#x1df;" horiz-adv-x="528" 
d="M394 787h-284v58h284v-58zM123 643.5c-8.66699 9 -13 21.5 -13 37.5s4.33301 28.667 13 38s20.667 14 36 14c16 0 28.333 -4.5 37 -13.5s13 -21.5 13 -37.5c0 -16.667 -4.33301 -29.5 -13 -38.5s-21 -13.5 -37 -13.5c-15.333 0 -27.333 4.5 -36 13.5zM308 719
c8.66699 9.33301 20.667 14 36 14c16 0 28.333 -4.5 37 -13.5s13 -21.5 13 -37.5c0 -16.667 -4.33301 -29.5 -13 -38.5s-21 -13.5 -37 -13.5c-15.333 0 -27.333 4.5 -36 13.5s-13 21.5 -13 37.5s4.33301 28.667 13 38zM388.5 504c35 -28.667 52.501 -70.666 52.501 -125.999
v-378h-67v65c-34.667 -50.667 -88.334 -76 -161.001 -76c-52.667 0 -93.834 14 -123.501 42s-44.5 67 -44.5 117c0 63.333 26.333 110.166 79 140.499s134.334 45.833 245.001 46.5v37c0 34.667 -10.833 61.167 -32.5 79.5s-53.167 27.5 -94.5 27.5
c-43.333 0 -85.333 -9.66699 -126 -29l-19 61c47.333 24 98.333 36 153 36c57.333 0 103.5 -14.333 138.5 -43zM306.001 71.001c22.667 10.667 43.665 27.001 62.998 49.001v155c-86 -0.666992 -149.333 -10.834 -190 -30.501s-61 -50.167 -61 -91.5
c0 -32 9.33301 -56.333 28 -73s46.334 -25 83.001 -25c28.667 0 54.334 5.33301 77.001 16z" />
    <glyph glyph-name="uni01E0" unicode="&#x1e0;" horiz-adv-x="666" 
d="M475 963h-284v58h284v-58zM294.5 893c9 9.33301 21.833 14 38.5 14s29.5 -4.66699 38.5 -14s13.5 -22.333 13.5 -39c0 -17.333 -4.5 -30.666 -13.5 -39.999s-21.833 -14 -38.5 -14s-29.5 4.66699 -38.5 14s-13.5 22.333 -13.5 39c0 17.333 4.5 30.666 13.5 39.999z
M485 198h-305l-68 -198h-80l259 724h84l259 -724h-81zM462 264l-130 378l-130 -378h260z" />
    <glyph glyph-name="uni01E1" unicode="&#x1e1;" horiz-adv-x="528" 
d="M388.5 504c35 -28.667 52.501 -70.666 52.501 -125.999v-378h-67v65c-34.667 -50.667 -88.334 -76 -161.001 -76c-52.667 0 -93.834 14 -123.501 42s-44.5 67 -44.5 117c0 63.333 26.333 110.166 79 140.499s134.334 45.833 245.001 46.5v37
c0 34.667 -10.833 61.167 -32.5 79.5s-53.167 27.5 -94.5 27.5c-43.333 0 -85.333 -9.66699 -126 -29l-19 61c47.333 24 98.333 36 153 36c57.333 0 103.5 -14.333 138.5 -43zM306.001 71.001c22.667 10.667 43.665 27.001 62.998 49.001v155
c-86 -0.666992 -149.333 -10.834 -190 -30.501s-61 -50.167 -61 -91.5c0 -32 9.33301 -56.333 28 -73s46.334 -25 83.001 -25c28.667 0 54.334 5.33301 77.001 16zM213.499 644.002c-9 9.33301 -13.5 22.333 -13.5 39c0 17.333 4.5 30.666 13.5 39.999s21.833 14 38.5 14
s29.5 -4.66699 38.5 -14s13.5 -22.333 13.5 -39c0 -17.333 -4.5 -30.666 -13.5 -39.999s-21.833 -14 -38.5 -14s-29.5 4.66699 -38.5 14zM109.999 845.002h284v-58h-284v58z" />
    <glyph glyph-name="uni01E2" unicode="&#x1e2;" horiz-adv-x="898" 
d="M616 811h-284v58h284v-58zM852 67v-67h-414v190h-256l-102 -190h-82l393 724h76h373v-67h-330v-253h244v-68h-244v-269h342zM438 256v414l-221 -414h221z" />
    <glyph glyph-name="uni01E3" unicode="&#x1e3;" horiz-adv-x="828" 
d="M774 248h-346.004c2.66699 -63.333 17.834 -111.166 45.501 -143.499s66.834 -48.5 117.501 -48.5c46.667 0 91 14 133 42l27 -58c-20 -16.667 -44.5 -29.5 -73.5 -38.5s-59.167 -13.5 -90.5 -13.5c-41.333 0 -77.833 8.33301 -109.5 25s-57.5 41 -77.5 73
c-27.333 -33.333 -56.666 -57.833 -87.999 -73.5s-66 -23.5 -104 -23.5c-51.333 0 -91.333 14 -120 42s-43 67 -43 117c0 61.333 25.5 106.5 76.5 135.5s130.167 43.833 237.5 44.5v44c0 35.333 -10.333 62 -31 80s-51 27 -91 27c-42 0 -82.333 -9.66699 -121 -29l-19 61
c26 13.333 52 22.666 78 27.999s49.333 8 70 8c39.333 0 72.833 -7.66699 100.5 -23s47.834 -37.333 60.501 -66c16.667 28 39 49.833 67 65.5s60 23.5 96 23.5c65.333 0 116.333 -22.667 153 -68s55 -108.333 55 -189c0 -16.667 -1 -30.667 -3 -42zM471.496 438
c-23 -29.333 -36.833 -72.333 -41.5 -129h274c-0.666992 54.667 -13 97.167 -37 127.5s-57.333 45.5 -100 45.5c-40.667 0 -72.5 -14.667 -95.5 -44zM304.996 76c24.667 14 48 35.6689 70 65.002c-12 36 -18 78 -18 126v1c-81.333 -0.666992 -141.5 -10.334 -180.5 -29.001
s-58.5 -47.334 -58.5 -86.001c0 -32 9 -56.333 27 -73s44.333 -25 79 -25c29.333 0 56.333 7 81 21zM282.996 699.002h284v-58h-284v58z" />
    <glyph glyph-name="uni01E4" unicode="&#x1e4;" horiz-adv-x="672" 
d="M664 162h-73.999v-126c-24.667 -15.333 -54.834 -27.333 -90.501 -36s-73.167 -13 -112.5 -13c-67.333 0 -125.166 14.833 -173.499 44.5s-85.333 72.667 -111 129s-38.5 123.5 -38.5 201.5s12.833 145.167 38.5 201.5s62.667 99.333 111 129s106.166 44.5 173.499 44.5
c34.667 0 68.5 -4 101.5 -12s61.167 -19 84.5 -33l-23 -63c-56.667 26.667 -111.667 40 -165 40c-80 0 -140.5 -25.833 -181.5 -77.5s-61.5 -128.167 -61.5 -229.5s20.667 -178 62 -230s102.333 -78 183 -78c44 0 87 6.66699 129 20v88h-134v63h134v86h-134v67h208v-153h74
v-63z" />
    <glyph glyph-name="uni01E5" unicode="&#x1e5;" horiz-adv-x="577" 
d="M553 -81l-80.999 0.000976562c-13.333 -44.667 -39 -79 -77 -103s-85.667 -36 -143 -36c-26.667 0 -52.834 2.66699 -78.501 8s-47.5 12.666 -65.5 21.999l22 65c37.333 -18.667 78 -28 122 -28c73.333 0 121.333 24 144 72h-359v53h373c0.666992 5.33301 1 13.333 1 24
v95c-36 -49.333 -86.333 -74 -151 -74c-63.333 0 -113 23.667 -149 71s-54 113.333 -54 198c0 82 19 146 57 192s90.667 69 158 69c29.333 0 56.333 -6 81 -18s45.667 -29 63 -51v56h67v-538c0 -10.667 -0.333008 -18.667 -1 -24h71v-53zM350.001 102.501
c21.333 10.333 41.666 26.834 60.999 49.501v259l1 7c-18 20 -39.167 35.5 -63.5 46.5s-49.833 16.5 -76.5 16.5c-46 0 -80.833 -16.333 -104.5 -49s-35.5 -81.334 -35.5 -146.001c0 -65.333 12.333 -114.833 37 -148.5s61.334 -50.5 110.001 -50.5
c26 0 49.667 5.16699 71 15.5z" />
    </font>
</defs>
</svg>
